<?xml version="1.0" encoding="UTF-8" standalone="no"?>
<!DOCTYPE svg PUBLIC "-//W3C//DTD SVG 1.1//EN" "http://www.w3.org/Graphics/SVG/1.1/DTD/svg11.dtd">
<svg width="100%" height="100%" viewBox="0 0 297 385" version="1.1" xmlns="http://www.w3.org/2000/svg" xmlns:xlink="http://www.w3.org/1999/xlink" xml:space="preserve" xmlns:serif="http://www.serif.com/" style="fill-rule:evenodd;clip-rule:evenodd;stroke-linecap:round;stroke-linejoin:round;stroke-miterlimit:2;">
    <g transform="matrix(1,0,0,1,-1811.43,-982.954)">
        <path d="M1839.6,1366.78C1839.6,1366.91 1839.57,1367.02 1839.51,1367.12C1839.44,1367.21 1839.33,1367.29 1839.17,1367.34C1839.01,1367.4 1838.8,1367.44 1838.54,1367.48C1838.27,1367.52 1837.94,1367.55 1837.54,1367.55C1837.15,1367.55 1836.83,1367.52 1836.55,1367.48C1836.28,1367.44 1836.07,1367.4 1835.91,1367.34C1835.75,1367.29 1835.63,1367.21 1835.57,1367.12C1835.5,1367.02 1835.47,1366.91 1835.47,1366.78L1835.47,1336.94C1835.47,1336.81 1835.51,1336.7 1835.58,1336.61C1835.66,1336.51 1835.77,1336.44 1835.95,1336.38C1836.11,1336.33 1836.33,1336.28 1836.59,1336.24C1836.86,1336.2 1837.17,1336.17 1837.54,1336.17C1837.94,1336.17 1838.27,1336.2 1838.54,1336.24C1838.8,1336.28 1839.01,1336.33 1839.17,1336.38C1839.33,1336.44 1839.44,1336.51 1839.51,1336.61C1839.57,1336.7 1839.6,1336.81 1839.6,1336.94L1839.6,1366.78Z" style="fill:rgb(51,51,51);fill-rule:nonzero;"/>
    </g>
    <g transform="matrix(1,0,0,1,-1811.43,-982.954)">
        <path d="M1871.36,1365.7C1871.36,1366.02 1871.31,1366.29 1871.2,1366.52C1871.1,1366.74 1870.96,1366.92 1870.78,1367.07C1870.6,1367.21 1870.41,1367.32 1870.19,1367.38C1869.98,1367.44 1869.77,1367.48 1869.55,1367.48L1868.18,1367.48C1867.75,1367.48 1867.38,1367.43 1867.05,1367.34C1866.73,1367.26 1866.42,1367.1 1866.13,1366.86C1865.85,1366.64 1865.56,1366.32 1865.27,1365.92C1864.97,1365.51 1864.66,1365 1864.34,1364.38L1854.86,1346.7C1854.36,1345.78 1853.87,1344.83 1853.35,1343.83C1852.86,1342.83 1852.38,1341.85 1851.95,1340.91L1851.9,1340.91C1851.94,1342.06 1851.96,1343.24 1851.98,1344.44C1851.99,1345.64 1852,1346.83 1852,1348.02L1852,1366.78C1852,1366.89 1851.97,1367 1851.9,1367.1C1851.83,1367.21 1851.72,1367.29 1851.56,1367.34C1851.4,1367.4 1851.18,1367.44 1850.92,1367.48C1850.66,1367.52 1850.33,1367.55 1849.93,1367.55C1849.51,1367.55 1849.18,1367.52 1848.92,1367.48C1848.66,1367.44 1848.45,1367.4 1848.3,1367.34C1848.15,1367.29 1848.04,1367.21 1847.97,1367.1C1847.9,1367 1847.87,1366.89 1847.87,1366.78L1847.87,1338.1C1847.87,1337.46 1848.05,1337 1848.41,1336.73C1848.77,1336.45 1849.17,1336.32 1849.61,1336.32L1851.64,1336.32C1852.12,1336.32 1852.52,1336.36 1852.84,1336.44C1853.16,1336.52 1853.45,1336.65 1853.71,1336.83C1853.96,1337.02 1854.21,1337.28 1854.45,1337.6C1854.69,1337.94 1854.94,1338.34 1855.21,1338.84L1862.5,1352.49C1862.95,1353.32 1863.38,1354.13 1863.8,1354.93C1864.21,1355.71 1864.61,1356.5 1865.01,1357.27C1865.39,1358.04 1865.77,1358.79 1866.15,1359.54C1866.54,1360.28 1866.9,1361.03 1867.28,1361.78L1867.3,1361.78C1867.27,1360.52 1867.26,1359.21 1867.24,1357.83C1867.24,1356.47 1867.23,1355.14 1867.23,1353.88L1867.23,1337.01C1867.23,1336.9 1867.26,1336.8 1867.34,1336.7C1867.4,1336.61 1867.51,1336.53 1867.67,1336.45C1867.83,1336.38 1868.05,1336.33 1868.31,1336.29C1868.57,1336.26 1868.91,1336.25 1869.34,1336.25C1869.71,1336.25 1870.03,1336.26 1870.3,1336.29C1870.57,1336.33 1870.78,1336.38 1870.93,1336.45C1871.08,1336.53 1871.2,1336.61 1871.26,1336.7C1871.33,1336.8 1871.36,1336.9 1871.36,1337.01L1871.36,1365.7Z" style="fill:rgb(51,51,51);fill-rule:nonzero;"/>
    </g>
    <g transform="matrix(1,0,0,1,-1811.43,-982.954)">
        <path d="M1896.32,1358.68C1896.32,1360.14 1896.05,1361.44 1895.52,1362.58C1894.98,1363.71 1894.24,1364.68 1893.28,1365.47C1892.34,1366.27 1891.21,1366.86 1889.92,1367.26C1888.64,1367.66 1887.24,1367.86 1885.75,1367.86C1884.71,1367.86 1883.75,1367.77 1882.85,1367.6C1881.97,1367.42 1881.17,1367.2 1880.48,1366.95C1879.78,1366.69 1879.2,1366.43 1878.72,1366.16C1878.26,1365.88 1877.92,1365.65 1877.75,1365.46C1877.55,1365.27 1877.43,1365.03 1877.33,1364.73C1877.25,1364.43 1877.2,1364.03 1877.2,1363.54C1877.2,1363.18 1877.22,1362.9 1877.25,1362.66C1877.28,1362.43 1877.33,1362.24 1877.39,1362.1C1877.46,1361.95 1877.54,1361.86 1877.63,1361.8C1877.73,1361.74 1877.84,1361.71 1877.97,1361.71C1878.19,1361.71 1878.51,1361.85 1878.92,1362.12C1879.33,1362.39 1879.85,1362.69 1880.49,1363.01C1881.13,1363.33 1881.91,1363.63 1882.81,1363.91C1883.72,1364.19 1884.76,1364.33 1885.95,1364.33C1886.84,1364.33 1887.66,1364.21 1888.41,1363.97C1889.15,1363.73 1889.79,1363.39 1890.33,1362.95C1890.86,1362.51 1891.28,1361.97 1891.57,1361.33C1891.86,1360.69 1892,1359.96 1892,1359.14C1892,1358.26 1891.8,1357.51 1891.4,1356.88C1891,1356.26 1890.47,1355.71 1889.81,1355.23C1889.16,1354.77 1888.41,1354.34 1887.56,1353.94C1886.73,1353.55 1885.87,1353.15 1884.99,1352.73C1884.1,1352.33 1883.25,1351.88 1882.41,1351.38C1881.58,1350.88 1880.84,1350.3 1880.18,1349.63C1879.52,1348.96 1879,1348.17 1878.58,1347.26C1878.18,1346.36 1877.97,1345.27 1877.97,1344.01C1877.97,1342.71 1878.21,1341.56 1878.67,1340.53C1879.16,1339.52 1879.81,1338.67 1880.64,1337.98C1881.49,1337.29 1882.49,1336.77 1883.66,1336.4C1884.81,1336.05 1886.07,1335.86 1887.41,1335.86C1888.1,1335.86 1888.8,1335.92 1889.49,1336.05C1890.19,1336.16 1890.85,1336.33 1891.46,1336.53C1892.08,1336.73 1892.62,1336.95 1893.1,1337.2C1893.58,1337.45 1893.91,1337.65 1894.05,1337.79C1894.21,1337.95 1894.31,1338.07 1894.35,1338.16C1894.4,1338.25 1894.44,1338.36 1894.47,1338.5C1894.51,1338.63 1894.53,1338.79 1894.55,1338.99C1894.56,1339.18 1894.57,1339.43 1894.57,1339.73C1894.57,1340.02 1894.56,1340.27 1894.53,1340.5C1894.51,1340.72 1894.47,1340.92 1894.43,1341.06C1894.38,1341.22 1894.31,1341.33 1894.23,1341.4C1894.13,1341.48 1894.03,1341.51 1893.92,1341.51C1893.75,1341.51 1893.47,1341.4 1893.09,1341.17C1892.72,1340.95 1892.26,1340.7 1891.71,1340.42C1891.17,1340.14 1890.53,1339.88 1889.77,1339.65C1889.04,1339.42 1888.2,1339.3 1887.27,1339.3C1886.4,1339.3 1885.65,1339.42 1885.01,1339.65C1884.37,1339.88 1883.84,1340.19 1883.42,1340.57C1883.01,1340.96 1882.69,1341.41 1882.49,1341.94C1882.28,1342.47 1882.17,1343.03 1882.17,1343.62C1882.17,1344.49 1882.37,1345.23 1882.77,1345.86C1883.17,1346.48 1883.7,1347.03 1884.38,1347.51C1885.03,1347.99 1885.79,1348.43 1886.64,1348.83C1887.49,1349.24 1888.36,1349.64 1889.24,1350.04C1890.12,1350.46 1890.98,1350.91 1891.83,1351.39C1892.68,1351.89 1893.44,1352.46 1894.1,1353.12C1894.77,1353.79 1895.3,1354.58 1895.72,1355.47C1896.12,1356.39 1896.32,1357.45 1896.32,1358.68Z" style="fill:rgb(51,51,51);fill-rule:nonzero;"/>
    </g>
    <g transform="matrix(1,0,0,1,-1811.43,-982.954)">
        <path d="M1916.98,1345.76C1916.98,1344.49 1916.74,1343.44 1916.28,1342.59C1915.8,1341.74 1915.22,1341.11 1914.52,1340.69C1913.83,1340.27 1913.11,1340.01 1912.36,1339.9C1911.62,1339.79 1910.89,1339.73 1910.19,1339.73L1906.37,1339.73L1906.37,1352.2L1910.09,1352.2C1911.34,1352.2 1912.37,1352.04 1913.21,1351.72C1914.02,1351.4 1914.72,1350.96 1915.28,1350.38C1915.84,1349.82 1916.26,1349.13 1916.55,1348.35C1916.84,1347.54 1916.98,1346.69 1916.98,1345.76ZM1921.33,1345.42C1921.33,1346.98 1921.08,1348.38 1920.56,1349.63C1920.05,1350.88 1919.32,1351.94 1918.36,1352.82C1917.42,1353.7 1916.25,1354.38 1914.85,1354.86C1913.48,1355.34 1911.82,1355.58 1909.9,1355.58L1906.37,1355.58L1906.37,1366.78C1906.37,1366.91 1906.33,1367.02 1906.25,1367.12C1906.19,1367.21 1906.08,1367.29 1905.92,1367.34C1905.77,1367.4 1905.57,1367.44 1905.29,1367.48C1905.04,1367.52 1904.7,1367.55 1904.3,1367.55C1903.9,1367.55 1903.56,1367.52 1903.31,1367.48C1903.04,1367.44 1902.83,1367.4 1902.67,1367.34C1902.51,1367.29 1902.39,1367.21 1902.33,1367.12C1902.27,1367.02 1902.23,1366.91 1902.23,1366.78L1902.23,1338.1C1902.23,1337.46 1902.4,1337 1902.74,1336.73C1903.08,1336.45 1903.45,1336.32 1903.87,1336.32L1910.52,1336.32C1911.19,1336.32 1911.84,1336.35 1912.45,1336.4C1913.08,1336.46 1913.8,1336.58 1914.65,1336.77C1915.48,1336.95 1916.34,1337.29 1917.21,1337.79C1918.09,1338.3 1918.83,1338.92 1919.43,1339.66C1920.04,1340.39 1920.51,1341.25 1920.84,1342.21C1921.16,1343.19 1921.33,1344.25 1921.33,1345.42Z" style="fill:rgb(51,51,51);fill-rule:nonzero;"/>
    </g>
    <g transform="matrix(1,0,0,1,-1811.43,-982.954)">
        <path d="M1931.78,1366.78C1931.78,1366.91 1931.75,1367.02 1931.69,1367.12C1931.62,1367.21 1931.51,1367.29 1931.35,1367.34C1931.19,1367.4 1930.98,1367.44 1930.71,1367.48C1930.45,1367.52 1930.12,1367.55 1929.72,1367.55C1929.33,1367.55 1929,1367.52 1928.73,1367.48C1928.46,1367.44 1928.24,1367.4 1928.08,1367.34C1927.92,1367.29 1927.81,1367.21 1927.75,1367.12C1927.68,1367.02 1927.65,1366.91 1927.65,1366.78L1927.65,1336.94C1927.65,1336.81 1927.68,1336.7 1927.76,1336.61C1927.83,1336.51 1927.96,1336.44 1928.12,1336.38C1928.29,1336.33 1928.5,1336.28 1928.77,1336.24C1929.03,1336.2 1929.35,1336.17 1929.72,1336.17C1930.12,1336.17 1930.45,1336.2 1930.71,1336.24C1930.98,1336.28 1931.19,1336.33 1931.35,1336.38C1931.51,1336.44 1931.62,1336.51 1931.69,1336.61C1931.75,1336.7 1931.78,1336.81 1931.78,1336.94L1931.78,1366.78Z" style="fill:rgb(51,51,51);fill-rule:nonzero;"/>
    </g>
    <g transform="matrix(1,0,0,1,-1811.43,-982.954)">
        <path d="M1954.56,1344.94C1954.56,1343.73 1954.29,1342.69 1953.74,1341.86C1953.2,1341.01 1952.28,1340.41 1951,1340.04C1950.6,1339.93 1950.15,1339.85 1949.64,1339.8C1949.14,1339.75 1948.48,1339.73 1947.66,1339.73L1944.18,1339.73L1944.18,1350.2L1948.21,1350.2C1949.3,1350.2 1950.25,1350.08 1951.03,1349.8C1951.83,1349.55 1952.49,1349.18 1953.02,1348.7C1953.55,1348.23 1953.93,1347.67 1954.19,1347.03C1954.43,1346.39 1954.56,1345.7 1954.56,1344.94ZM1960.78,1366.78C1960.78,1366.91 1960.75,1367.02 1960.71,1367.12C1960.66,1367.21 1960.55,1367.29 1960.39,1367.36C1960.23,1367.42 1960.01,1367.47 1959.72,1367.5C1959.43,1367.53 1959.05,1367.55 1958.57,1367.55C1958.15,1367.55 1957.81,1367.53 1957.55,1367.5C1957.28,1367.47 1957.07,1367.42 1956.91,1367.34C1956.75,1367.28 1956.62,1367.17 1956.54,1367.04C1956.45,1366.92 1956.38,1366.76 1956.31,1366.56L1953.45,1359.24C1953.12,1358.4 1952.76,1357.63 1952.41,1356.95C1952.04,1356.24 1951.62,1355.65 1951.12,1355.14C1950.63,1354.64 1950.04,1354.25 1949.37,1353.97C1948.7,1353.69 1947.89,1353.54 1946.94,1353.54L1944.18,1353.54L1944.18,1366.78C1944.18,1366.91 1944.15,1367.02 1944.07,1367.12C1944,1367.21 1943.89,1367.29 1943.73,1367.34C1943.59,1367.4 1943.38,1367.44 1943.11,1367.48C1942.85,1367.52 1942.51,1367.55 1942.11,1367.55C1941.71,1367.55 1941.38,1367.52 1941.12,1367.48C1940.85,1367.44 1940.64,1367.4 1940.48,1367.34C1940.32,1367.29 1940.21,1367.21 1940.14,1367.12C1940.08,1367.02 1940.05,1366.91 1940.05,1366.78L1940.05,1338C1940.05,1337.38 1940.21,1336.94 1940.54,1336.69C1940.86,1336.45 1941.22,1336.32 1941.58,1336.32L1948.19,1336.32C1948.98,1336.32 1949.62,1336.34 1950.15,1336.38C1950.67,1336.42 1951.14,1336.46 1951.55,1336.51C1952.75,1336.72 1953.82,1337.05 1954.73,1337.5C1955.66,1337.94 1956.43,1338.51 1957.06,1339.2C1957.68,1339.89 1958.14,1340.67 1958.46,1341.57C1958.77,1342.45 1958.93,1343.44 1958.93,1344.51C1958.93,1345.55 1958.79,1346.49 1958.51,1347.3C1958.22,1348.14 1957.82,1348.87 1957.3,1349.5C1956.77,1350.13 1956.13,1350.68 1955.4,1351.14C1954.66,1351.61 1953.84,1352 1952.92,1352.32C1953.44,1352.54 1953.9,1352.83 1954.32,1353.17C1954.73,1353.52 1955.12,1353.93 1955.49,1354.41C1955.84,1354.89 1956.18,1355.44 1956.5,1356.07C1956.82,1356.69 1957.14,1357.39 1957.46,1358.18L1960.25,1365.03C1960.47,1365.6 1960.62,1366.01 1960.68,1366.24C1960.75,1366.48 1960.78,1366.65 1960.78,1366.78Z" style="fill:rgb(51,51,51);fill-rule:nonzero;"/>
    </g>
    <g transform="matrix(1,0,0,1,-1811.43,-982.954)">
        <path d="M1976.66,1340.45L1976.63,1340.45L1971.28,1355.95L1982.09,1355.95L1976.66,1340.45ZM1990.04,1365.94C1990.17,1366.29 1990.24,1366.57 1990.24,1366.8C1990.26,1367 1990.19,1367.17 1990.06,1367.28C1989.94,1367.4 1989.73,1367.47 1989.42,1367.5C1989.13,1367.53 1988.73,1367.55 1988.24,1367.55C1987.74,1367.55 1987.34,1367.53 1987.05,1367.52C1986.75,1367.48 1986.52,1367.44 1986.38,1367.39C1986.22,1367.34 1986.11,1367.26 1986.04,1367.16C1985.96,1367.07 1985.9,1366.95 1985.84,1366.8L1983.17,1359.24L1970.24,1359.24L1967.7,1366.71C1967.65,1366.85 1967.59,1366.98 1967.51,1367.08C1967.43,1367.19 1967.31,1367.28 1967.16,1367.34C1967,1367.42 1966.79,1367.47 1966.5,1367.5C1966.23,1367.53 1965.86,1367.55 1965.42,1367.55C1964.95,1367.55 1964.57,1367.52 1964.28,1367.48C1963.97,1367.44 1963.77,1367.37 1963.65,1367.26C1963.53,1367.15 1963.48,1366.99 1963.48,1366.76C1963.49,1366.56 1963.56,1366.27 1963.69,1365.92L1974.11,1337.04C1974.18,1336.86 1974.26,1336.72 1974.37,1336.61C1974.46,1336.49 1974.63,1336.41 1974.82,1336.34C1975.03,1336.28 1975.28,1336.24 1975.59,1336.21C1975.91,1336.19 1976.3,1336.17 1976.78,1336.17C1977.29,1336.17 1977.72,1336.19 1978.05,1336.21C1978.39,1336.24 1978.66,1336.28 1978.87,1336.34C1979.08,1336.41 1979.24,1336.49 1979.35,1336.62C1979.46,1336.73 1979.55,1336.89 1979.61,1337.06L1990.04,1365.94Z" style="fill:rgb(51,51,51);fill-rule:nonzero;"/>
    </g>
    <g transform="matrix(1,0,0,1,-1811.43,-982.954)">
        <path d="M2010.87,1338.1C2010.87,1338.4 2010.85,1338.67 2010.82,1338.89C2010.79,1339.11 2010.74,1339.3 2010.66,1339.43C2010.6,1339.57 2010.5,1339.67 2010.4,1339.73C2010.29,1339.79 2010.18,1339.83 2010.05,1339.83L2001.31,1339.83L2001.31,1366.78C2001.31,1366.91 2001.27,1367.02 2001.21,1367.12C2001.15,1367.21 2001.03,1367.29 2000.87,1367.34C2000.71,1367.4 2000.51,1367.44 2000.23,1367.48C1999.98,1367.52 1999.64,1367.55 1999.24,1367.55C1998.86,1367.55 1998.53,1367.52 1998.26,1367.48C1997.98,1367.44 1997.77,1367.4 1997.61,1367.34C1997.45,1367.29 1997.33,1367.21 1997.27,1367.12C1997.21,1367.02 1997.17,1366.91 1997.17,1366.78L1997.17,1339.83L1988.43,1339.83C1988.3,1339.83 1988.19,1339.79 1988.08,1339.73C1987.98,1339.67 1987.89,1339.57 1987.83,1339.43C1987.77,1339.3 1987.71,1339.11 1987.68,1338.89C1987.63,1338.67 1987.61,1338.4 1987.61,1338.1C1987.61,1337.79 1987.63,1337.53 1987.68,1337.29C1987.71,1337.06 1987.77,1336.87 1987.83,1336.73C1987.89,1336.58 1987.98,1336.48 1988.08,1336.41C1988.19,1336.35 1988.3,1336.32 1988.43,1336.32L2010.05,1336.32C2010.18,1336.32 2010.29,1336.35 2010.4,1336.41C2010.5,1336.48 2010.6,1336.58 2010.66,1336.73C2010.74,1336.87 2010.79,1337.06 2010.82,1337.29C2010.85,1337.53 2010.87,1337.79 2010.87,1338.1Z" style="fill:rgb(51,51,51);fill-rule:nonzero;"/>
    </g>
    <g transform="matrix(1,0,0,1,-1811.43,-982.954)">
        <path d="M2019.49,1366.78C2019.49,1366.91 2019.46,1367.02 2019.4,1367.12C2019.33,1367.21 2019.22,1367.29 2019.06,1367.34C2018.9,1367.4 2018.68,1367.44 2018.43,1367.48C2018.16,1367.52 2017.83,1367.55 2017.43,1367.55C2017.04,1367.55 2016.71,1367.52 2016.44,1367.48C2016.17,1367.44 2015.95,1367.4 2015.79,1367.34C2015.63,1367.29 2015.52,1367.21 2015.46,1367.12C2015.39,1367.02 2015.36,1366.91 2015.36,1366.78L2015.36,1336.94C2015.36,1336.81 2015.4,1336.7 2015.46,1336.61C2015.54,1336.51 2015.66,1336.44 2015.83,1336.38C2015.99,1336.33 2016.22,1336.28 2016.47,1336.24C2016.75,1336.2 2017.06,1336.17 2017.43,1336.17C2017.83,1336.17 2018.16,1336.2 2018.43,1336.24C2018.68,1336.28 2018.9,1336.33 2019.06,1336.38C2019.22,1336.44 2019.33,1336.51 2019.4,1336.61C2019.46,1336.7 2019.49,1336.81 2019.49,1336.94L2019.49,1366.78Z" style="fill:rgb(51,51,51);fill-rule:nonzero;"/>
    </g>
    <g transform="matrix(1,0,0,1,-1811.43,-982.954)">
        <path d="M2049.43,1351.79C2049.43,1350.03 2049.27,1348.39 2048.95,1346.87C2048.65,1345.37 2048.12,1344.05 2047.4,1342.93C2046.67,1341.83 2045.7,1340.96 2044.49,1340.33C2043.27,1339.71 2041.76,1339.39 2039.97,1339.39C2038.18,1339.39 2036.68,1339.73 2035.46,1340.4C2034.25,1341.08 2033.26,1341.97 2032.5,1343.09C2031.74,1344.21 2031.19,1345.53 2030.87,1347.02C2030.54,1348.52 2030.38,1350.09 2030.38,1351.74C2030.38,1353.57 2030.53,1355.25 2030.83,1356.79C2031.14,1358.32 2031.65,1359.65 2032.36,1360.76C2033.08,1361.88 2034.05,1362.74 2035.26,1363.35C2036.46,1363.98 2037.98,1364.28 2039.81,1364.28C2041.61,1364.28 2043.13,1363.95 2044.37,1363.27C2045.59,1362.6 2046.58,1361.7 2047.34,1360.55C2048.09,1359.41 2048.63,1358.08 2048.95,1356.57C2049.27,1355.06 2049.43,1353.47 2049.43,1351.79ZM2053.8,1351.5C2053.8,1354.02 2053.5,1356.28 2052.91,1358.3C2052.32,1360.32 2051.44,1362.04 2050.25,1363.45C2049.08,1364.87 2047.6,1365.96 2045.82,1366.72C2044.04,1367.48 2041.97,1367.86 2039.6,1367.86C2037.26,1367.86 2035.24,1367.52 2033.53,1366.81C2031.83,1366.12 2030.42,1365.11 2029.3,1363.78C2028.2,1362.45 2027.36,1360.8 2026.82,1358.83C2026.28,1356.86 2026,1354.59 2026,1352.03C2026,1349.58 2026.3,1347.35 2026.89,1345.35C2027.48,1343.35 2028.37,1341.65 2029.56,1340.24C2030.74,1338.85 2032.23,1337.77 2034,1337.01C2035.78,1336.25 2037.85,1335.86 2040.22,1335.86C2042.52,1335.86 2044.51,1336.21 2046.21,1336.89C2047.9,1337.58 2049.32,1338.59 2050.44,1339.91C2051.58,1341.24 2052.41,1342.87 2052.97,1344.81C2053.52,1346.76 2053.8,1348.99 2053.8,1351.5Z" style="fill:rgb(51,51,51);fill-rule:nonzero;"/>
    </g>
    <g transform="matrix(1,0,0,1,-1811.43,-982.954)">
        <path d="M2083.83,1365.7C2083.83,1366.02 2083.77,1366.29 2083.67,1366.52C2083.56,1366.74 2083.42,1366.92 2083.24,1367.07C2083.07,1367.21 2082.88,1367.32 2082.66,1367.38C2082.44,1367.44 2082.23,1367.48 2082.01,1367.48L2080.65,1367.48C2080.22,1367.48 2079.84,1367.43 2079.51,1367.34C2079.19,1367.26 2078.89,1367.1 2078.6,1366.86C2078.31,1366.64 2078.02,1366.32 2077.73,1365.92C2077.44,1365.51 2077.13,1365 2076.8,1364.38L2067.32,1346.7C2066.83,1345.78 2066.33,1344.83 2065.82,1343.83C2065.32,1342.83 2064.85,1341.85 2064.42,1340.91L2064.37,1340.91C2064.4,1342.06 2064.42,1343.24 2064.44,1344.44C2064.46,1345.64 2064.46,1346.83 2064.46,1348.02L2064.46,1366.78C2064.46,1366.89 2064.43,1367 2064.36,1367.1C2064.3,1367.21 2064.18,1367.29 2064.02,1367.34C2063.86,1367.4 2063.65,1367.44 2063.38,1367.48C2063.13,1367.52 2062.79,1367.55 2062.39,1367.55C2061.97,1367.55 2061.65,1367.52 2061.38,1367.48C2061.13,1367.44 2060.92,1367.4 2060.76,1367.34C2060.61,1367.29 2060.5,1367.21 2060.44,1367.1C2060.36,1367 2060.33,1366.89 2060.33,1366.78L2060.33,1338.1C2060.33,1337.46 2060.52,1337 2060.88,1336.73C2061.24,1336.45 2061.64,1336.32 2062.07,1336.32L2064.1,1336.32C2064.58,1336.32 2064.99,1336.36 2065.31,1336.44C2065.63,1336.52 2065.91,1336.65 2066.17,1336.83C2066.43,1337.02 2066.67,1337.28 2066.92,1337.6C2067.16,1337.94 2067.4,1338.34 2067.68,1338.84L2074.96,1352.49C2075.41,1353.32 2075.84,1354.13 2076.26,1354.93C2076.68,1355.71 2077.08,1356.5 2077.47,1357.27C2077.85,1358.04 2078.24,1358.79 2078.61,1359.54C2079,1360.28 2079.37,1361.03 2079.74,1361.78L2079.77,1361.78C2079.74,1360.52 2079.72,1359.21 2079.7,1357.83L2079.7,1337.01C2079.7,1336.9 2079.73,1336.8 2079.8,1336.7C2079.86,1336.61 2079.98,1336.53 2080.14,1336.45C2080.3,1336.38 2080.51,1336.33 2080.78,1336.29C2081.03,1336.26 2081.38,1336.25 2081.8,1336.25C2082.17,1336.25 2082.49,1336.26 2082.76,1336.29C2083.04,1336.33 2083.24,1336.38 2083.4,1336.45C2083.55,1336.53 2083.66,1336.61 2083.72,1336.7C2083.8,1336.8 2083.83,1336.9 2083.83,1337.01L2083.83,1365.7Z" style="fill:rgb(51,51,51);fill-rule:nonzero;"/>
    </g>
    <g transform="matrix(1,0,0,1,-1811.43,-982.954)">
        <rect x="1832.53" y="1246.56" width="174.01" height="27.49" style="fill:rgb(232,234,237);fill-rule:nonzero;"/>
    </g>
    <g transform="matrix(1,0,0,1,-1811.43,-982.954)">
        <rect x="1832.53" y="1246.56" width="174.01" height="27.49" style="fill:none;stroke:rgb(51,51,51);stroke-width:5.33px;"/>
    </g>
    <g transform="matrix(1,0,0,1,-1811.43,-982.954)">
        <path d="M1827.84,1246.56L1832.53,1246.56L1832.53,1274.05L1827.84,1274.05C1820.25,1274.05 1814.1,1267.9 1814.1,1260.31C1814.1,1252.72 1820.25,1246.56 1827.84,1246.56Z" style="fill:rgb(251,192,85);fill-rule:nonzero;"/>
    </g>
    <g transform="matrix(1,0,0,1,-1811.43,-982.954)">
        <path d="M2046.64,1260.31C2046.64,1260.31 2013.93,1274.05 2006.54,1274.05L2006.54,1246.56C2014.66,1246.56 2046.64,1260.31 2046.64,1260.31Z" style="fill:rgb(150,192,251);fill-rule:nonzero;"/>
    </g>
    <g transform="matrix(1,0,0,1,-1811.43,-982.954)">
        <path d="M1827.84,1246.56L1832.53,1246.56L1832.53,1274.05L1827.84,1274.05C1820.25,1274.05 1814.1,1267.9 1814.1,1260.31C1814.1,1252.72 1820.25,1246.56 1827.84,1246.56Z" style="fill:none;stroke:rgb(51,51,51);stroke-width:5.33px;"/>
    </g>
    <g transform="matrix(1,0,0,1,-1811.43,-982.954)">
        <path d="M2046.64,1260.31C2046.64,1260.31 2013.93,1274.05 2006.54,1274.05L2006.54,1246.56C2014.66,1246.56 2046.64,1260.31 2046.64,1260.31Z" style="fill:none;stroke:rgb(51,51,51);stroke-width:5.33px;"/>
    </g>
    <g transform="matrix(1,0,0,1,-1811.43,-982.954)">
        <path d="M1832.53,1260.28L2006.54,1260.28" style="fill:none;stroke:rgb(51,51,51);stroke-width:5.33px;"/>
    </g>
    <g transform="matrix(1,0,0,1,-1811.43,-982.954)">
        <path d="M2023.65,1251.22L2023.65,1269.28" style="fill:none;stroke:rgb(51,51,51);stroke-width:5.33px;"/>
    </g>
    <g transform="matrix(1,0,0,1,-1811.43,-982.954)">
        <path d="M2061.61,1260.31L2084.59,1260.31C2095.97,1260.31 2105.2,1251.08 2105.2,1239.69C2105.2,1228.31 2095.97,1219.08 2084.59,1219.08L1980.42,1219.08C1969.03,1219.08 1959.8,1209.85 1959.8,1198.47L1959.8,1191.59" style="fill:none;stroke:rgb(51,51,51);stroke-width:5.33px;"/>
    </g>
    <g transform="matrix(1,0,0,1,-1811.43,-982.954)">
        <path d="M2012.89,1038.88C2012.89,1005.69 1982.54,979.596 1948.08,986.833C1927.61,991.132 1911.26,1007.95 1907.36,1028.49C1903.88,1046.8 1909.83,1063.66 1921.13,1075.41C1929.25,1083.87 1934.51,1094.66 1934.51,1106.4L1934.51,1123.7L1984.75,1123.7L1984.75,1106.4C1984.75,1094.65 1990.03,1083.85 1998.17,1075.37C2007.27,1065.88 2012.89,1053.08 2012.89,1038.88Z" style="fill:rgb(221,234,251);fill-rule:nonzero;"/>
    </g>
    <g transform="matrix(1,0,0,1,-1811.43,-982.954)">
        <path d="M2012.89,1038.88C2012.89,1005.69 1982.54,979.596 1948.08,986.833C1927.61,991.132 1911.26,1007.95 1907.36,1028.49C1903.88,1046.8 1909.83,1063.66 1921.13,1075.41C1929.25,1083.87 1934.51,1094.66 1934.51,1106.4L1934.51,1123.7L1984.75,1123.7L1984.75,1106.4C1984.75,1094.65 1990.03,1083.85 1998.17,1075.37C2007.27,1065.88 2012.89,1053.08 2012.89,1038.88Z" style="fill:none;stroke:rgb(51,51,51);stroke-width:5.33px;"/>
    </g>
    <g transform="matrix(1,0,0,1,-1811.43,-982.954)">
        <path d="M1959.63,1061.53L1959.63,1123.7" style="fill:none;stroke:rgb(51,51,51);stroke-width:5.33px;"/>
    </g>
    <g transform="matrix(1,0,0,1,-1811.43,-982.954)">
        <path d="M1945.74,1061.53L1973.51,1061.53" style="fill:none;stroke:rgb(51,51,51);stroke-width:5.33px;"/>
    </g>
    <g transform="matrix(1,0,0,1,-1811.43,-982.954)">
        <path d="M1928.8,1026.05C1932.79,1016.12 1941.48,1008.58 1952.12,1006.2" style="fill:none;stroke:rgb(51,51,51);stroke-width:5.33px;"/>
    </g>
    <g transform="matrix(1,0,0,1,-1811.43,-982.954)">
        <path d="M1940.38,1139.79L1979.37,1139.79" style="fill:none;stroke:rgb(51,51,51);stroke-width:5.33px;"/>
    </g>
    <g transform="matrix(1,0,0,1,-1811.43,-982.954)">
        <path d="M1946.25,1155.89L1974,1155.89" style="fill:none;stroke:rgb(51,51,51);stroke-width:5.33px;"/>
    </g>
    <g transform="matrix(1,0,0,1,-1811.43,-982.954)">
        <path d="M1952.12,1171.98L1968.62,1171.98" style="fill:none;stroke:rgb(51,51,51);stroke-width:5.33px;"/>
    </g>
    <g transform="matrix(1,0,0,1,-1811.43,-982.954)">
        <path d="M2031.74,1009.62C2056.87,1030.36 2072.88,1061.74 2072.88,1096.86C2072.88,1139.58 2049.19,1176.76 2014.22,1195.99" style="fill:none;stroke:rgb(51,51,51);stroke-width:5.33px;"/>
    </g>
    <g transform="matrix(1,0,0,1,-1811.43,-982.954)">
        <path d="M1905.43,1195.99C1870.46,1176.77 1846.77,1139.58 1846.77,1096.86C1846.77,1061.74 1862.78,1030.36 1887.91,1009.62" style="fill:none;stroke:rgb(51,51,51);stroke-width:5.33px;"/>
    </g>
    <g transform="matrix(1,0,0,1,-1811.43,-982.954)">
        <path d="M1898.82,1122.4C1898.82,1128.19 1894.12,1132.89 1888.32,1132.89C1882.52,1132.89 1877.82,1128.19 1877.82,1122.4C1877.82,1116.6 1882.52,1111.9 1888.32,1111.9C1894.12,1111.9 1898.82,1116.6 1898.82,1122.4Z" style="fill:rgb(80,200,180);fill-rule:nonzero;"/>
    </g>
    <g transform="matrix(1,0,0,1,-1811.43,-982.954)">
        <path d="M2035.95,1152.09L2023.65,1164.39L2011.35,1152.09L2023.65,1139.79L2035.95,1152.09Z" style="fill:rgb(251,192,85);fill-rule:nonzero;"/>
    </g>
    <g transform="matrix(1,0,0,1,-1811.43,-982.954)">
        <path d="M1898.82,1122.4C1898.82,1128.19 1894.12,1132.89 1888.32,1132.89C1882.52,1132.89 1877.82,1128.19 1877.82,1122.4C1877.82,1116.6 1882.52,1111.9 1888.32,1111.9C1894.12,1111.9 1898.82,1116.6 1898.82,1122.4Z" style="fill:none;stroke:rgb(51,51,51);stroke-width:5.33px;"/>
    </g>
    <g transform="matrix(1,0,0,1,-1811.43,-982.954)">
        <path d="M2035.95,1152.09L2023.65,1164.39L2011.35,1152.09L2023.65,1139.79L2035.95,1152.09Z" style="fill:none;stroke:rgb(51,51,51);stroke-width:5.33px;"/>
    </g>
    <g transform="matrix(1,0,0,1,-1811.43,-982.954)">
        <path d="M2020.09,1072.72L2025.48,1072.72" style="fill:none;stroke:rgb(51,51,51);stroke-width:5.33px;"/>
    </g>
    <g transform="matrix(1,0,0,1,-1811.43,-982.954)">
        <path d="M2039.52,1072.72L2044.91,1072.72" style="fill:none;stroke:rgb(51,51,51);stroke-width:5.33px;"/>
    </g>
    <g transform="matrix(1,0,0,1,-1811.43,-982.954)">
        <path d="M2032.5,1060.31L2032.5,1065.7" style="fill:none;stroke:rgb(51,51,51);stroke-width:5.33px;"/>
    </g>
    <g transform="matrix(1,0,0,1,-1811.43,-982.954)">
        <path d="M2032.5,1079.74L2032.5,1085.13" style="fill:none;stroke:rgb(51,51,51);stroke-width:5.33px;"/>
    </g>
</svg>
