<?xml version="1.0" encoding="UTF-8" standalone="no"?>
<!DOCTYPE svg PUBLIC "-//W3C//DTD SVG 1.1//EN" "http://www.w3.org/Graphics/SVG/1.1/DTD/svg11.dtd">
<svg width="100%" height="100%" viewBox="0 0 297 334" version="1.1" xmlns="http://www.w3.org/2000/svg" xmlns:xlink="http://www.w3.org/1999/xlink" xml:space="preserve" xmlns:serif="http://www.serif.com/" style="fill-rule:evenodd;clip-rule:evenodd;stroke-linecap:round;stroke-linejoin:round;stroke-miterlimit:2;">
    <g transform="matrix(1,0,0,1,-2664.74,-1033.92)">
        <path d="M2693.68,1363.02C2693.68,1363.27 2693.67,1363.5 2693.66,1363.69C2693.64,1363.88 2693.61,1364.05 2693.57,1364.19C2693.53,1364.34 2693.48,1364.47 2693.42,1364.58C2693.35,1364.69 2693.24,1364.83 2693.08,1364.99C2692.92,1365.15 2692.58,1365.39 2692.07,1365.71C2691.56,1366.05 2690.92,1366.37 2690.16,1366.68C2689.4,1367 2688.53,1367.25 2687.55,1367.48C2686.56,1367.68 2685.48,1367.8 2684.31,1367.8C2682.29,1367.8 2680.47,1367.46 2678.85,1366.79C2677.22,1366.12 2675.83,1365.12 2674.69,1363.81C2673.54,1362.5 2672.66,1360.88 2672.04,1358.94C2671.43,1357.02 2671.12,1354.79 2671.12,1352.28C2671.12,1349.7 2671.45,1347.4 2672.13,1345.38C2672.78,1343.37 2673.72,1341.66 2674.92,1340.25C2676.12,1338.86 2677.55,1337.78 2679.24,1337.05C2680.9,1336.31 2682.76,1335.94 2684.79,1335.94C2685.69,1335.94 2686.56,1336.02 2687.41,1336.2C2688.26,1336.36 2689.05,1336.57 2689.77,1336.83C2690.49,1337.09 2691.13,1337.38 2691.69,1337.72C2692.25,1338.06 2692.64,1338.33 2692.85,1338.55C2693.07,1338.76 2693.21,1338.93 2693.27,1339.04C2693.34,1339.15 2693.39,1339.29 2693.43,1339.43C2693.47,1339.59 2693.51,1339.77 2693.52,1339.98C2693.55,1340.19 2693.56,1340.43 2693.56,1340.72C2693.56,1341.04 2693.55,1341.32 2693.51,1341.54C2693.48,1341.76 2693.43,1341.96 2693.37,1342.11C2693.31,1342.26 2693.23,1342.36 2693.14,1342.44C2693.05,1342.51 2692.95,1342.55 2692.81,1342.55C2692.58,1342.55 2692.27,1342.4 2691.87,1342.08C2691.47,1341.77 2690.95,1341.43 2690.31,1341.05C2689.68,1340.67 2688.9,1340.33 2688,1340.01C2687.08,1339.71 2686,1339.55 2684.72,1339.55C2683.34,1339.55 2682.08,1339.82 2680.94,1340.38C2679.8,1340.92 2678.84,1341.74 2678.04,1342.81C2677.23,1343.89 2676.6,1345.2 2676.16,1346.74C2675.72,1348.29 2675.5,1350.05 2675.5,1352.04C2675.5,1354.01 2675.71,1355.75 2676.14,1357.26C2676.56,1358.78 2677.18,1360.05 2677.97,1361.05C2678.77,1362.08 2679.75,1362.85 2680.91,1363.36C2682.06,1363.89 2683.38,1364.15 2684.84,1364.15C2686.08,1364.15 2687.16,1363.99 2688.09,1363.69C2689.01,1363.38 2689.81,1363.05 2690.46,1362.67C2691.11,1362.3 2691.65,1361.95 2692.06,1361.65C2692.48,1361.34 2692.81,1361.19 2693.06,1361.19C2693.17,1361.19 2693.27,1361.21 2693.35,1361.26C2693.43,1361.31 2693.49,1361.41 2693.54,1361.54C2693.59,1361.68 2693.62,1361.86 2693.64,1362.1C2693.67,1362.34 2693.68,1362.65 2693.68,1363.02Z" style="fill:rgb(51,51,51);fill-rule:nonzero;"/>
    </g>
    <g transform="matrix(1,0,0,1,-2664.74,-1033.92)">
        <path d="M2720.4,1351.8C2720.4,1350.04 2720.24,1348.4 2719.93,1346.88C2719.62,1345.38 2719.1,1344.06 2718.37,1342.94C2717.64,1341.84 2716.67,1340.96 2715.46,1340.34C2714.24,1339.71 2712.73,1339.4 2710.95,1339.4C2709.15,1339.4 2707.65,1339.74 2706.43,1340.41C2705.21,1341.08 2704.23,1341.98 2703.47,1343.1C2702.71,1344.22 2702.16,1345.54 2701.83,1347.02C2701.51,1348.53 2701.35,1350.1 2701.35,1351.75C2701.35,1353.58 2701.5,1355.26 2701.8,1356.79C2702.11,1358.33 2702.62,1359.66 2703.34,1360.77C2704.06,1361.89 2705.02,1362.75 2706.23,1363.36C2707.44,1363.99 2708.95,1364.29 2710.77,1364.29C2712.58,1364.29 2714.1,1363.95 2715.34,1363.28C2716.57,1362.61 2717.55,1361.7 2718.31,1360.56C2719.06,1359.41 2719.6,1358.08 2719.92,1356.58C2720.24,1355.07 2720.4,1353.48 2720.4,1351.8ZM2724.77,1351.51C2724.77,1354.02 2724.47,1356.29 2723.88,1358.31C2723.29,1360.33 2722.4,1362.05 2721.23,1363.46C2720.04,1364.88 2718.57,1365.97 2716.79,1366.72C2715.02,1367.48 2712.94,1367.87 2710.57,1367.87C2708.23,1367.87 2706.21,1367.52 2704.51,1366.82C2702.79,1366.13 2701.39,1365.11 2700.28,1363.79C2699.16,1362.46 2698.33,1360.81 2697.79,1358.84C2697.25,1356.87 2696.97,1354.6 2696.97,1352.04C2696.97,1349.59 2697.27,1347.36 2697.86,1345.36C2698.46,1343.36 2699.34,1341.66 2700.53,1340.25C2701.71,1338.86 2703.2,1337.78 2704.97,1337.01C2706.75,1336.25 2708.83,1335.87 2711.2,1335.87C2713.49,1335.87 2715.48,1336.21 2717.18,1336.9C2718.88,1337.59 2720.28,1338.6 2721.42,1339.91C2722.54,1341.24 2723.39,1342.88 2723.94,1344.81C2724.5,1346.77 2724.77,1349 2724.77,1351.51Z" style="fill:rgb(51,51,51);fill-rule:nonzero;"/>
    </g>
    <g transform="matrix(1,0,0,1,-2664.74,-1033.92)">
        <path d="M2746.05,1345.77C2746.05,1344.5 2745.81,1343.45 2745.35,1342.6C2744.87,1341.75 2744.29,1341.12 2743.59,1340.7C2742.9,1340.28 2742.18,1340.02 2741.42,1339.91C2740.69,1339.79 2739.96,1339.74 2739.25,1339.74L2735.44,1339.74L2735.44,1352.21L2739.16,1352.21C2740.41,1352.21 2741.44,1352.05 2742.27,1351.73C2743.09,1351.41 2743.79,1350.96 2744.35,1350.39C2744.91,1349.83 2745.33,1349.14 2745.62,1348.35C2745.91,1347.55 2746.05,1346.7 2746.05,1345.77ZM2750.4,1345.43C2750.4,1346.98 2750.15,1348.39 2749.63,1349.64C2749.12,1350.88 2748.38,1351.95 2747.43,1352.83C2746.48,1353.71 2745.31,1354.39 2743.92,1354.87C2742.54,1355.35 2740.89,1355.59 2738.97,1355.59L2735.44,1355.59L2735.44,1366.79C2735.44,1366.92 2735.4,1367.03 2735.32,1367.12C2735.26,1367.22 2735.14,1367.3 2734.99,1367.35C2734.83,1367.41 2734.63,1367.45 2734.36,1367.49C2734.11,1367.53 2733.77,1367.56 2733.37,1367.56C2732.97,1367.56 2732.63,1367.53 2732.38,1367.49C2732.1,1367.45 2731.9,1367.41 2731.74,1367.35C2731.58,1367.3 2731.46,1367.22 2731.4,1367.12C2731.33,1367.03 2731.3,1366.92 2731.3,1366.79L2731.3,1338.1C2731.3,1337.46 2731.47,1337.01 2731.81,1336.73C2732.14,1336.46 2732.52,1336.33 2732.94,1336.33L2739.59,1336.33C2740.26,1336.33 2740.9,1336.36 2741.52,1336.41C2742.14,1336.47 2742.87,1336.59 2743.72,1336.77C2744.55,1336.96 2745.41,1337.3 2746.28,1337.8C2747.15,1338.31 2747.9,1338.93 2748.5,1339.67C2749.11,1340.4 2749.58,1341.26 2749.91,1342.22C2750.23,1343.2 2750.4,1344.26 2750.4,1345.43Z" style="fill:rgb(51,51,51);fill-rule:nonzero;"/>
    </g>
    <g transform="matrix(1,0,0,1,-2664.74,-1033.92)">
        <path d="M2766.35,1355.33L2766.35,1366.79C2766.35,1366.92 2766.32,1367.03 2766.26,1367.12C2766.19,1367.22 2766.08,1367.3 2765.92,1367.35C2765.76,1367.41 2765.55,1367.45 2765.28,1367.49C2765.01,1367.53 2764.68,1367.56 2764.3,1367.56C2763.9,1367.56 2763.58,1367.53 2763.31,1367.49C2763.05,1367.45 2762.83,1367.41 2762.66,1367.35C2762.49,1367.3 2762.38,1367.22 2762.32,1367.12C2762.25,1367.03 2762.22,1366.92 2762.22,1366.79L2762.22,1355.33L2753.43,1337.79C2753.25,1337.42 2753.14,1337.13 2753.11,1336.93C2753.06,1336.72 2753.11,1336.56 2753.22,1336.45C2753.35,1336.33 2753.56,1336.26 2753.88,1336.23C2754.18,1336.2 2754.61,1336.18 2755.13,1336.18C2755.62,1336.18 2756,1336.2 2756.3,1336.23C2756.59,1336.26 2756.83,1336.31 2757.01,1336.36C2757.18,1336.42 2757.31,1336.5 2757.4,1336.6C2757.49,1336.71 2757.58,1336.84 2757.66,1337L2761.96,1345.94C2762.36,1346.78 2762.76,1347.67 2763.15,1348.6C2763.55,1349.53 2763.96,1350.47 2764.37,1351.41L2764.42,1351.41C2764.78,1350.5 2765.16,1349.6 2765.55,1348.69C2765.95,1347.79 2766.34,1346.89 2766.74,1346.01L2771.06,1337.02C2771.11,1336.86 2771.17,1336.73 2771.27,1336.61C2771.35,1336.5 2771.47,1336.42 2771.62,1336.36C2771.77,1336.31 2771.99,1336.26 2772.26,1336.23C2772.54,1336.2 2772.88,1336.18 2773.3,1336.18C2773.87,1336.18 2774.32,1336.21 2774.65,1336.25C2774.98,1336.29 2775.21,1336.36 2775.34,1336.47C2775.47,1336.58 2775.51,1336.74 2775.47,1336.95C2775.43,1337.16 2775.32,1337.44 2775.15,1337.79L2766.35,1355.33Z" style="fill:rgb(51,51,51);fill-rule:nonzero;"/>
    </g>
    <g transform="matrix(1,0,0,1,-2664.74,-1033.92)">
        <path d="M2810.2,1366.5C2810.13,1366.72 2810.04,1366.91 2809.91,1367.04C2809.78,1367.18 2809.6,1367.28 2809.38,1367.35C2809.16,1367.43 2808.88,1367.48 2808.55,1367.51C2808.22,1367.54 2807.82,1367.56 2807.34,1367.56C2806.84,1367.56 2806.42,1367.54 2806.07,1367.51C2805.73,1367.48 2805.45,1367.43 2805.22,1367.35C2805,1367.28 2804.83,1367.18 2804.72,1367.04C2804.61,1366.91 2804.52,1366.72 2804.46,1366.5L2797.94,1343.03L2797.9,1343.03L2791.89,1366.5C2791.84,1366.72 2791.76,1366.91 2791.65,1367.04C2791.54,1367.18 2791.38,1367.28 2791.17,1367.35C2790.96,1367.43 2790.69,1367.48 2790.36,1367.51C2790.03,1367.54 2789.62,1367.56 2789.1,1367.56C2788.58,1367.56 2788.13,1367.54 2787.78,1367.51C2787.43,1367.48 2787.14,1367.43 2786.92,1367.35C2786.69,1367.28 2786.52,1367.18 2786.41,1367.04C2786.28,1366.91 2786.2,1366.72 2786.15,1366.5L2777.93,1337.79C2777.84,1337.42 2777.78,1337.13 2777.77,1336.93C2777.76,1336.72 2777.83,1336.56 2777.96,1336.45C2778.1,1336.33 2778.33,1336.26 2778.63,1336.23C2778.93,1336.2 2779.34,1336.18 2779.85,1336.18C2780.35,1336.18 2780.74,1336.2 2781.03,1336.21C2781.32,1336.25 2781.54,1336.29 2781.7,1336.35C2781.84,1336.41 2781.94,1336.5 2782,1336.61C2782.06,1336.73 2782.1,1336.87 2782.14,1337.05L2789.13,1363.09L2789.15,1363.09L2795.78,1337.09C2795.83,1336.92 2795.89,1336.77 2795.97,1336.65C2796.03,1336.53 2796.15,1336.44 2796.31,1336.37C2796.47,1336.31 2796.7,1336.26 2796.99,1336.23C2797.29,1336.2 2797.68,1336.18 2798.16,1336.18C2798.61,1336.18 2798.96,1336.2 2799.23,1336.23C2799.49,1336.26 2799.71,1336.31 2799.87,1336.37C2800.03,1336.44 2800.15,1336.53 2800.21,1336.65C2800.29,1336.77 2800.35,1336.92 2800.39,1337.09L2807.53,1363.09L2807.58,1363.09L2814.42,1337.07C2814.47,1336.91 2814.52,1336.77 2814.57,1336.65C2814.62,1336.53 2814.71,1336.44 2814.87,1336.37C2815.02,1336.31 2815.23,1336.26 2815.52,1336.23C2815.79,1336.2 2816.17,1336.18 2816.63,1336.18C2817.12,1336.18 2817.49,1336.21 2817.78,1336.25C2818.05,1336.29 2818.26,1336.36 2818.39,1336.47C2818.52,1336.58 2818.57,1336.74 2818.56,1336.95C2818.56,1337.16 2818.52,1337.45 2818.44,1337.82L2810.2,1366.5Z" style="fill:rgb(51,51,51);fill-rule:nonzero;"/>
    </g>
    <g transform="matrix(1,0,0,1,-2664.74,-1033.92)">
        <path d="M2838.71,1344.95C2838.71,1343.73 2838.44,1342.7 2837.9,1341.87C2837.35,1341.02 2836.44,1340.42 2835.16,1340.05C2834.76,1339.94 2834.31,1339.86 2833.8,1339.81C2833.3,1339.76 2832.63,1339.74 2831.82,1339.74L2828.33,1339.74L2828.33,1350.21L2832.37,1350.21C2833.46,1350.21 2834.4,1350.08 2835.19,1349.81C2835.99,1349.56 2836.65,1349.19 2837.17,1348.71C2837.7,1348.24 2838.09,1347.68 2838.34,1347.04C2838.58,1346.4 2838.71,1345.7 2838.71,1344.95ZM2844.93,1366.79C2844.93,1366.92 2844.91,1367.03 2844.86,1367.12C2844.81,1367.22 2844.71,1367.3 2844.55,1367.36C2844.39,1367.43 2844.17,1367.48 2843.88,1367.51C2843.59,1367.54 2843.21,1367.56 2842.72,1367.56C2842.31,1367.56 2841.96,1367.54 2841.71,1367.51C2841.43,1367.48 2841.23,1367.43 2841.07,1367.35C2840.91,1367.28 2840.78,1367.18 2840.7,1367.05C2840.6,1366.92 2840.53,1366.76 2840.47,1366.57L2837.61,1359.25C2837.27,1358.41 2836.92,1357.64 2836.57,1356.95C2836.2,1356.25 2835.77,1355.66 2835.28,1355.14C2834.78,1354.65 2834.2,1354.26 2833.52,1353.98C2832.85,1353.7 2832.04,1353.55 2831.1,1353.55L2828.33,1353.55L2828.33,1366.79C2828.33,1366.92 2828.3,1367.03 2828.22,1367.12C2828.16,1367.22 2828.04,1367.3 2827.89,1367.35C2827.73,1367.41 2827.53,1367.45 2827.26,1367.49C2827,1367.53 2826.67,1367.56 2826.27,1367.56C2825.87,1367.56 2825.53,1367.53 2825.28,1367.49C2825,1367.45 2824.79,1367.41 2824.63,1367.35C2824.47,1367.3 2824.36,1367.22 2824.3,1367.12C2824.23,1367.03 2824.2,1366.92 2824.2,1366.79L2824.2,1338.01C2824.2,1337.38 2824.36,1336.95 2824.7,1336.69C2825.02,1336.45 2825.37,1336.33 2825.74,1336.33L2832.35,1336.33C2833.13,1336.33 2833.78,1336.35 2834.31,1336.39C2834.82,1336.43 2835.29,1336.47 2835.71,1336.52C2836.91,1336.73 2837.97,1337.05 2838.89,1337.5C2839.81,1337.95 2840.59,1338.52 2841.21,1339.21C2841.83,1339.9 2842.3,1340.68 2842.62,1341.58C2842.92,1342.46 2843.08,1343.45 2843.08,1344.52C2843.08,1345.56 2842.94,1346.5 2842.67,1347.31C2842.38,1348.15 2841.98,1348.88 2841.45,1349.51C2840.92,1350.14 2840.29,1350.68 2839.55,1351.15C2838.82,1351.61 2837.99,1352.01 2837.08,1352.33C2837.59,1352.55 2838.06,1352.84 2838.47,1353.17C2838.89,1353.53 2839.27,1353.94 2839.64,1354.42C2839.99,1354.9 2840.34,1355.45 2840.66,1356.07C2840.98,1356.7 2841.3,1357.4 2841.62,1358.19L2844.41,1365.03C2844.63,1365.61 2844.77,1366.02 2844.84,1366.24C2844.9,1366.48 2844.93,1366.66 2844.93,1366.79Z" style="fill:rgb(51,51,51);fill-rule:nonzero;"/>
    </g>
    <g transform="matrix(1,0,0,1,-2664.74,-1033.92)">
        <path d="M2855.05,1366.79C2855.05,1366.92 2855.02,1367.03 2854.95,1367.12C2854.89,1367.22 2854.78,1367.3 2854.62,1367.35C2854.46,1367.41 2854.25,1367.45 2853.98,1367.49C2853.72,1367.53 2853.38,1367.56 2852.98,1367.56C2852.6,1367.56 2852.27,1367.53 2852,1367.49C2851.72,1367.45 2851.51,1367.41 2851.35,1367.35C2851.19,1367.3 2851.08,1367.22 2851.01,1367.12C2850.95,1367.03 2850.92,1366.92 2850.92,1366.79L2850.92,1336.95C2850.92,1336.82 2850.95,1336.71 2851.03,1336.61C2851.09,1336.52 2851.22,1336.45 2851.38,1336.39C2851.56,1336.33 2851.76,1336.29 2852.04,1336.25C2852.29,1336.21 2852.61,1336.18 2852.98,1336.18C2853.38,1336.18 2853.72,1336.21 2853.98,1336.25C2854.25,1336.29 2854.46,1336.33 2854.62,1336.39C2854.78,1336.45 2854.89,1336.52 2854.95,1336.61C2855.02,1336.71 2855.05,1336.82 2855.05,1336.95L2855.05,1366.79Z" style="fill:rgb(51,51,51);fill-rule:nonzero;"/>
    </g>
    <g transform="matrix(1,0,0,1,-2664.74,-1033.92)">
        <path d="M2882.8,1338.1C2882.8,1338.41 2882.78,1338.67 2882.75,1338.9C2882.72,1339.12 2882.66,1339.31 2882.6,1339.43C2882.52,1339.58 2882.43,1339.67 2882.32,1339.74C2882.22,1339.8 2882.11,1339.83 2881.98,1339.83L2873.23,1339.83L2873.23,1366.79C2873.23,1366.92 2873.2,1367.03 2873.14,1367.12C2873.07,1367.22 2872.96,1367.3 2872.8,1367.35C2872.64,1367.41 2872.43,1367.45 2872.17,1367.49C2871.9,1367.53 2871.57,1367.56 2871.17,1367.56C2870.78,1367.56 2870.46,1367.53 2870.18,1367.49C2869.91,1367.45 2869.69,1367.41 2869.53,1367.35C2869.37,1367.3 2869.26,1367.22 2869.2,1367.12C2869.13,1367.03 2869.1,1366.92 2869.1,1366.79L2869.1,1339.83L2860.36,1339.83C2860.23,1339.83 2860.11,1339.8 2860.01,1339.74C2859.9,1339.67 2859.82,1339.58 2859.76,1339.43C2859.69,1339.31 2859.64,1339.12 2859.6,1338.9C2859.56,1338.67 2859.54,1338.41 2859.54,1338.1C2859.54,1337.8 2859.56,1337.54 2859.6,1337.3C2859.64,1337.07 2859.69,1336.88 2859.76,1336.73C2859.82,1336.59 2859.9,1336.49 2860.01,1336.42C2860.11,1336.36 2860.23,1336.33 2860.36,1336.33L2881.98,1336.33C2882.11,1336.33 2882.22,1336.36 2882.32,1336.42C2882.43,1336.49 2882.52,1336.59 2882.6,1336.73C2882.66,1336.88 2882.72,1337.07 2882.75,1337.3C2882.78,1337.54 2882.8,1337.8 2882.8,1338.1Z" style="fill:rgb(51,51,51);fill-rule:nonzero;"/>
    </g>
    <g transform="matrix(1,0,0,1,-2664.74,-1033.92)">
        <path d="M2891.42,1366.79C2891.42,1366.92 2891.39,1367.03 2891.32,1367.12C2891.26,1367.22 2891.15,1367.3 2890.99,1367.35C2890.83,1367.41 2890.62,1367.45 2890.35,1367.49C2890.09,1367.53 2889.75,1367.56 2889.35,1367.56C2888.97,1367.56 2888.64,1367.53 2888.37,1367.49C2888.1,1367.45 2887.88,1367.41 2887.72,1367.35C2887.56,1367.3 2887.45,1367.22 2887.38,1367.12C2887.32,1367.03 2887.29,1366.92 2887.29,1366.79L2887.29,1336.95C2887.29,1336.82 2887.32,1336.71 2887.4,1336.61C2887.46,1336.52 2887.59,1336.45 2887.75,1336.39C2887.93,1336.33 2888.14,1336.29 2888.41,1336.25C2888.67,1336.21 2888.99,1336.18 2889.35,1336.18C2889.75,1336.18 2890.09,1336.21 2890.35,1336.25C2890.62,1336.29 2890.83,1336.33 2890.99,1336.39C2891.15,1336.45 2891.26,1336.52 2891.32,1336.61C2891.39,1336.71 2891.42,1336.82 2891.42,1336.95L2891.42,1366.79Z" style="fill:rgb(51,51,51);fill-rule:nonzero;"/>
    </g>
    <g transform="matrix(1,0,0,1,-2664.74,-1033.92)">
        <path d="M2923.18,1365.71C2923.18,1366.03 2923.12,1366.3 2923.02,1366.52C2922.91,1366.75 2922.77,1366.93 2922.59,1367.08C2922.42,1367.22 2922.23,1367.32 2922.01,1367.39C2921.79,1367.45 2921.58,1367.48 2921.37,1367.48L2920,1367.48C2919.57,1367.48 2919.19,1367.44 2918.87,1367.35C2918.54,1367.27 2918.24,1367.11 2917.95,1366.87C2917.66,1366.64 2917.37,1366.32 2917.08,1365.92C2916.79,1365.52 2916.48,1365.01 2916.16,1364.39L2906.67,1346.7C2906.18,1345.79 2905.67,1344.84 2905.18,1343.84C2904.67,1342.84 2904.2,1341.86 2903.77,1340.92L2903.72,1340.92C2903.75,1342.07 2903.78,1343.25 2903.79,1344.45C2903.81,1345.65 2903.82,1346.84 2903.82,1348.03L2903.82,1366.79C2903.82,1366.9 2903.78,1367.01 2903.71,1367.11C2903.65,1367.22 2903.54,1367.3 2903.38,1367.35C2903.22,1367.41 2903,1367.45 2902.74,1367.49C2902.48,1367.53 2902.14,1367.56 2901.73,1367.56C2901.33,1367.56 2901,1367.53 2900.73,1367.49C2900.48,1367.45 2900.27,1367.41 2900.12,1367.35C2899.96,1367.3 2899.85,1367.22 2899.79,1367.11C2899.72,1367.01 2899.68,1366.9 2899.68,1366.79L2899.68,1338.1C2899.68,1337.46 2899.87,1337.01 2900.23,1336.73C2900.6,1336.46 2900.99,1336.33 2901.42,1336.33L2903.46,1336.33C2903.93,1336.33 2904.34,1336.37 2904.66,1336.45C2904.98,1336.53 2905.27,1336.66 2905.52,1336.84C2905.78,1337.03 2906.03,1337.29 2906.27,1337.61C2906.51,1337.94 2906.75,1338.35 2907.02,1338.85L2914.31,1352.49C2914.76,1353.33 2915.2,1354.14 2915.61,1354.94C2916.03,1355.72 2916.44,1356.51 2916.82,1357.27C2917.21,1358.04 2917.59,1358.8 2917.97,1359.55C2918.35,1360.29 2918.73,1361.04 2919.09,1361.79L2919.12,1361.79C2919.09,1360.53 2919.06,1359.21 2919.06,1357.83C2919.05,1356.47 2919.05,1355.15 2919.05,1353.89L2919.05,1337.02C2919.05,1336.91 2919.08,1336.81 2919.15,1336.71C2919.21,1336.61 2919.33,1336.53 2919.49,1336.45C2919.65,1336.39 2919.86,1336.33 2920.13,1336.3C2920.38,1336.27 2920.73,1336.25 2921.15,1336.25C2921.52,1336.25 2921.84,1336.27 2922.11,1336.3C2922.39,1336.33 2922.59,1336.39 2922.75,1336.45C2922.9,1336.53 2923.01,1336.61 2923.08,1336.71C2923.15,1336.81 2923.18,1336.91 2923.18,1337.02L2923.18,1365.71Z" style="fill:rgb(51,51,51);fill-rule:nonzero;"/>
    </g>
    <g transform="matrix(1,0,0,1,-2664.74,-1033.92)">
        <path d="M2954.79,1340.55C2954.79,1340.86 2954.78,1341.13 2954.75,1341.36C2954.71,1341.6 2954.67,1341.79 2954.6,1341.93C2954.54,1342.09 2954.46,1342.2 2954.36,1342.26C2954.27,1342.32 2954.16,1342.36 2954.05,1342.36C2953.86,1342.36 2953.54,1342.2 2953.09,1341.9C2952.64,1341.6 2952.04,1341.26 2951.29,1340.89C2950.53,1340.52 2949.63,1340.19 2948.58,1339.88C2947.53,1339.58 2946.29,1339.43 2944.85,1339.43C2943.13,1339.43 2941.6,1339.74 2940.24,1340.36C2938.87,1340.99 2937.72,1341.85 2936.78,1342.96C2935.83,1344.06 2935.11,1345.38 2934.6,1346.9C2934.1,1348.42 2933.85,1350.07 2933.85,1351.85C2933.85,1353.83 2934.12,1355.59 2934.68,1357.13C2935.22,1358.67 2935.99,1359.97 2936.97,1361.02C2937.95,1362.08 2939.11,1362.88 2940.46,1363.42C2941.81,1363.97 2943.3,1364.24 2944.92,1364.24C2945.88,1364.24 2946.85,1364.13 2947.84,1363.89C2948.82,1363.67 2949.74,1363.31 2950.59,1362.85L2950.59,1353.79L2943.38,1353.79C2943.11,1353.79 2942.9,1353.66 2942.77,1353.38C2942.63,1353.11 2942.57,1352.69 2942.57,1352.11C2942.57,1351.81 2942.58,1351.54 2942.61,1351.33C2942.65,1351.11 2942.7,1350.94 2942.77,1350.8C2942.85,1350.67 2942.93,1350.56 2943.02,1350.5C2943.12,1350.44 2943.24,1350.4 2943.38,1350.4L2953.26,1350.4C2953.43,1350.4 2953.61,1350.44 2953.79,1350.5C2953.96,1350.56 2954.12,1350.66 2954.27,1350.79C2954.41,1350.92 2954.52,1351.09 2954.6,1351.32C2954.68,1351.54 2954.72,1351.8 2954.72,1352.09L2954.72,1363.93C2954.72,1364.35 2954.65,1364.71 2954.51,1365.01C2954.36,1365.31 2954.06,1365.59 2953.59,1365.81C2953.13,1366.05 2952.53,1366.3 2951.79,1366.57C2951.05,1366.84 2950.29,1367.08 2949.51,1367.27C2948.72,1367.46 2947.93,1367.6 2947.13,1367.7C2946.33,1367.8 2945.54,1367.84 2944.75,1367.84C2942.35,1367.84 2940.2,1367.48 2938.31,1366.72C2936.42,1365.99 2934.82,1364.92 2933.53,1363.54C2932.21,1362.17 2931.22,1360.52 2930.53,1358.6C2929.84,1356.67 2929.5,1354.53 2929.5,1352.16C2929.5,1349.69 2929.87,1347.46 2930.61,1345.46C2931.36,1343.45 2932.4,1341.75 2933.77,1340.34C2935.11,1338.93 2936.74,1337.84 2938.63,1337.06C2940.54,1336.29 2942.64,1335.89 2944.94,1335.89C2946.13,1335.89 2947.24,1336 2948.28,1336.21C2949.32,1336.41 2950.25,1336.66 2951.06,1336.93C2951.86,1337.22 2952.55,1337.53 2953.1,1337.85C2953.66,1338.18 2954.03,1338.45 2954.24,1338.66C2954.45,1338.87 2954.59,1339.11 2954.67,1339.38C2954.75,1339.65 2954.79,1340.04 2954.79,1340.55Z" style="fill:rgb(51,51,51);fill-rule:nonzero;"/>
    </g>
    <g transform="matrix(1,0,0,1,-2664.74,-1033.92)">
        <path d="M2667.41,1077.26L2667.41,1214.88C2667.41,1219.41 2671.08,1223.08 2675.61,1223.08L2899.18,1223.08C2903.71,1223.08 2907.38,1219.41 2907.38,1214.88L2907.38,1075.9L2667.41,1077.26Z" style="fill:rgb(232,234,237);fill-rule:nonzero;"/>
    </g>
    <g transform="matrix(1,0,0,1,-2664.74,-1033.92)">
        <path d="M2899.18,1051.67L2675.61,1051.67C2671.08,1051.67 2667.41,1055.34 2667.41,1059.87L2667.41,1077.26L2907.38,1075.9L2907.38,1059.87C2907.38,1055.34 2903.71,1051.67 2899.18,1051.67Z" style="fill:rgb(221,234,251);fill-rule:nonzero;"/>
    </g>
    <g transform="matrix(1,0,0,1,-2664.74,-1033.92)">
        <path d="M2899.18,1223.08L2675.61,1223.08C2671.08,1223.08 2667.41,1219.41 2667.41,1214.88L2667.41,1059.87C2667.41,1055.34 2671.08,1051.67 2675.61,1051.67L2899.18,1051.67C2903.71,1051.67 2907.38,1055.34 2907.38,1059.87L2907.38,1214.88C2907.38,1219.41 2903.71,1223.08 2899.18,1223.08Z" style="fill:none;stroke:rgb(51,51,51);stroke-width:5.33px;"/>
    </g>
    <g transform="matrix(1,0,0,1,-2664.74,-1033.92)">
        <path d="M2667.41,1077.26L2907.38,1077.26" style="fill:none;stroke:rgb(51,51,51);stroke-width:5.33px;"/>
    </g>
    <g transform="matrix(1,0,0,1,-2664.74,-1033.92)">
        <path d="M2958.51,1047.14C2944.89,1051.9 2923.79,1071.54 2915.65,1089.42C2891.88,1141.63 2843.09,1163.89 2818.35,1157.36C2804.13,1107.81 2885.3,1003.14 2958.51,1047.14Z" style="fill:rgb(150,192,251);fill-rule:nonzero;"/>
    </g>
    <g transform="matrix(1,0,0,1,-2664.74,-1033.92)">
        <path d="M2958.51,1047.14C2944.89,1051.9 2923.79,1071.54 2915.65,1089.42C2891.88,1141.63 2843.09,1163.89 2818.35,1157.36C2804.13,1107.81 2885.3,1003.14 2958.51,1047.14Z" style="fill:none;stroke:rgb(51,51,51);stroke-width:5.33px;"/>
    </g>
    <g transform="matrix(1,0,0,1,-2664.74,-1033.92)">
        <path d="M2906.47,1063.34C2870.73,1085.74 2812.53,1159.62 2798.88,1187.67" style="fill:none;stroke:rgb(51,51,51);stroke-width:5.33px;"/>
    </g>
    <g transform="matrix(1,0,0,1,-2664.74,-1033.92)">
        <path d="M2685.19,1115.13L2788.03,1115.13" style="fill:none;stroke:rgb(51,51,51);stroke-width:5.33px;"/>
    </g>
    <g transform="matrix(1,0,0,1,-2664.74,-1033.92)">
        <path d="M2685.19,1150.23L2770.89,1150.23" style="fill:none;stroke:rgb(51,51,51);stroke-width:5.33px;"/>
    </g>
    <g transform="matrix(1,0,0,1,-2664.74,-1033.92)">
        <path d="M2685.19,1185.33L2753.75,1185.33" style="fill:none;stroke:rgb(51,51,51);stroke-width:5.33px;"/>
    </g>
    <g transform="matrix(1,0,0,1,-2664.74,-1033.92)">
        <path d="M2846.75,1185.33L2889.6,1185.33" style="fill:none;stroke:rgb(51,51,51);stroke-width:5.33px;"/>
    </g>
    <g transform="matrix(1,0,0,1,-2664.74,-1033.92)">
        <path d="M2685.19,1064.53L2693.04,1064.53" style="fill:none;stroke:rgb(51,51,51);stroke-width:5.33px;"/>
    </g>
    <g transform="matrix(1,0,0,1,-2664.74,-1033.92)">
        <path d="M2705.23,1064.53L2713.08,1064.53" style="fill:none;stroke:rgb(51,51,51);stroke-width:5.33px;"/>
    </g>
    <g transform="matrix(1,0,0,1,-2664.74,-1033.92)">
        <path d="M2725.27,1064.53L2733.12,1064.53" style="fill:none;stroke:rgb(51,51,51);stroke-width:5.33px;"/>
    </g>
</svg>
