<?xml version="1.0" encoding="UTF-8" standalone="no"?>
<!DOCTYPE svg PUBLIC "-//W3C//DTD SVG 1.1//EN" "http://www.w3.org/Graphics/SVG/1.1/DTD/svg11.dtd">
<svg width="100%" height="100%" viewBox="0 0 276 387" version="1.1" xmlns="http://www.w3.org/2000/svg" xmlns:xlink="http://www.w3.org/1999/xlink" xml:space="preserve" xmlns:serif="http://www.serif.com/" style="fill-rule:evenodd;clip-rule:evenodd;stroke-linecap:round;stroke-linejoin:round;stroke-miterlimit:2;">
    <g transform="matrix(1,0,0,1,-3101.75,-981.618)">
        <path d="M3138.2,1365.71C3138.2,1366 3138.18,1366.24 3138.15,1366.47C3138.12,1366.68 3138.06,1366.86 3137.98,1367C3137.9,1367.15 3137.81,1367.25 3137.71,1367.32C3137.61,1367.38 3137.49,1367.41 3137.36,1367.41L3122.44,1367.41C3122.07,1367.41 3121.73,1367.29 3121.4,1367.04C3121.07,1366.8 3120.9,1366.36 3120.9,1365.73L3120.9,1338.01C3120.9,1337.38 3121.07,1336.95 3121.4,1336.69C3121.73,1336.45 3122.07,1336.33 3122.44,1336.33L3137.19,1336.33C3137.32,1336.33 3137.44,1336.36 3137.54,1336.42C3137.65,1336.49 3137.73,1336.59 3137.79,1336.73C3137.85,1336.88 3137.91,1337.06 3137.95,1337.27C3137.99,1337.5 3138.01,1337.76 3138.01,1338.08C3138.01,1338.37 3137.99,1338.62 3137.95,1338.84C3137.91,1339.05 3137.85,1339.23 3137.79,1339.37C3137.73,1339.51 3137.65,1339.6 3137.54,1339.67C3137.44,1339.73 3137.32,1339.76 3137.19,1339.76L3125.03,1339.76L3125.03,1349.52L3135.46,1349.52C3135.59,1349.52 3135.71,1349.56 3135.81,1349.62C3135.92,1349.7 3136,1349.8 3136.08,1349.92C3136.15,1350.05 3136.2,1350.23 3136.23,1350.45C3136.26,1350.68 3136.28,1350.94 3136.28,1351.25C3136.28,1351.53 3136.26,1351.78 3136.23,1351.99C3136.2,1352.2 3136.15,1352.37 3136.08,1352.49C3136,1352.62 3135.92,1352.72 3135.81,1352.77C3135.71,1352.83 3135.59,1352.85 3135.46,1352.85L3125.03,1352.85L3125.03,1363.98L3137.36,1363.98C3137.49,1363.98 3137.61,1364.01 3137.71,1364.07C3137.81,1364.14 3137.9,1364.24 3137.98,1364.37C3138.06,1364.51 3138.12,1364.69 3138.15,1364.9C3138.18,1365.12 3138.2,1365.39 3138.2,1365.71Z" style="fill:rgb(51,51,51);fill-rule:nonzero;"/>
    </g>
    <g transform="matrix(1,0,0,1,-3101.75,-981.618)">
        <path d="M3164.72,1365.92C3164.93,1366.28 3165.06,1366.56 3165.1,1366.76C3165.14,1366.97 3165.08,1367.14 3164.94,1367.25C3164.79,1367.38 3164.56,1367.45 3164.23,1367.49C3163.9,1367.53 3163.46,1367.56 3162.92,1367.56C3162.41,1367.56 3162.01,1367.54 3161.72,1367.52C3161.43,1367.49 3161.21,1367.45 3161.04,1367.39C3160.87,1367.32 3160.74,1367.25 3160.65,1367.16C3160.56,1367.08 3160.48,1366.96 3160.42,1366.81L3153.5,1354.44L3146.51,1366.81C3146.43,1366.96 3146.34,1367.08 3146.25,1367.17C3146.15,1367.27 3146.02,1367.35 3145.85,1367.4C3145.69,1367.45 3145.45,1367.49 3145.17,1367.52C3144.88,1367.54 3144.49,1367.56 3144.01,1367.56C3143.48,1367.56 3143.07,1367.53 3142.76,1367.49C3142.46,1367.45 3142.25,1367.38 3142.13,1367.25C3142.01,1367.14 3141.97,1366.97 3142.01,1366.76C3142.05,1366.56 3142.17,1366.28 3142.38,1365.92L3150.86,1351.63L3142.76,1337.82C3142.57,1337.46 3142.45,1337.17 3142.39,1336.97C3142.34,1336.74 3142.37,1336.58 3142.5,1336.45C3142.63,1336.34 3142.85,1336.26 3143.17,1336.23C3143.49,1336.2 3143.93,1336.18 3144.49,1336.18C3144.97,1336.18 3145.37,1336.2 3145.67,1336.21C3145.97,1336.25 3146.21,1336.29 3146.39,1336.34C3146.57,1336.4 3146.69,1336.48 3146.77,1336.58C3146.85,1336.69 3146.94,1336.8 3147.04,1336.93L3153.72,1348.55L3160.35,1336.93C3160.43,1336.8 3160.51,1336.69 3160.59,1336.58C3160.67,1336.48 3160.79,1336.4 3160.94,1336.34C3161.09,1336.29 3161.3,1336.25 3161.57,1336.21C3161.85,1336.2 3162.21,1336.18 3162.68,1336.18C3163.17,1336.18 3163.58,1336.21 3163.9,1336.25C3164.21,1336.29 3164.43,1336.36 3164.57,1336.47C3164.7,1336.58 3164.75,1336.74 3164.72,1336.97C3164.69,1337.17 3164.58,1337.46 3164.38,1337.82L3156.31,1351.53L3164.72,1365.92Z" style="fill:rgb(51,51,51);fill-rule:nonzero;"/>
    </g>
    <g transform="matrix(1,0,0,1,-3101.75,-981.618)">
        <path d="M3185.21,1345.77C3185.21,1344.5 3184.98,1343.45 3184.51,1342.6C3184.04,1341.75 3183.45,1341.12 3182.75,1340.7C3182.06,1340.28 3181.34,1340.02 3180.59,1339.91C3179.85,1339.79 3179.12,1339.74 3178.41,1339.74L3174.59,1339.74L3174.59,1352.21L3178.32,1352.21C3179.57,1352.21 3180.61,1352.05 3181.43,1351.73C3182.26,1351.41 3182.95,1350.96 3183.51,1350.39C3184.07,1349.83 3184.49,1349.14 3184.78,1348.35C3185.07,1347.55 3185.21,1346.7 3185.21,1345.77ZM3189.56,1345.43C3189.56,1346.98 3189.3,1348.39 3188.79,1349.64C3188.28,1350.88 3187.55,1351.95 3186.6,1352.83C3185.64,1353.71 3184.48,1354.39 3183.09,1354.87C3181.71,1355.35 3180.05,1355.59 3178.13,1355.59L3174.59,1355.59L3174.59,1366.79C3174.59,1366.92 3174.56,1367.03 3174.49,1367.12C3174.42,1367.22 3174.31,1367.3 3174.15,1367.35C3174,1367.41 3173.79,1367.45 3173.53,1367.49C3173.26,1367.53 3172.93,1367.56 3172.53,1367.56C3172.13,1367.56 3171.8,1367.53 3171.54,1367.49C3171.27,1367.45 3171.05,1367.41 3170.89,1367.35C3170.73,1367.3 3170.62,1367.22 3170.56,1367.12C3170.49,1367.03 3170.46,1366.92 3170.46,1366.79L3170.46,1338.1C3170.46,1337.46 3170.63,1337.01 3170.97,1336.73C3171.3,1336.46 3171.68,1336.33 3172.1,1336.33L3178.75,1336.33C3179.42,1336.33 3180.07,1336.36 3180.69,1336.41C3181.3,1336.47 3182.03,1336.59 3182.87,1336.77C3183.71,1336.96 3184.57,1337.3 3185.44,1337.8C3186.32,1338.31 3187.05,1338.93 3187.66,1339.67C3188.27,1340.4 3188.74,1341.26 3189.07,1342.22C3189.4,1343.2 3189.56,1344.26 3189.56,1345.43Z" style="fill:rgb(51,51,51);fill-rule:nonzero;"/>
    </g>
    <g transform="matrix(1,0,0,1,-3101.75,-981.618)">
        <path d="M3213.18,1365.71C3213.18,1366 3213.16,1366.24 3213.13,1366.47C3213.1,1366.68 3213.04,1366.86 3212.96,1367C3212.88,1367.15 3212.79,1367.25 3212.69,1367.32C3212.58,1367.38 3212.46,1367.41 3212.33,1367.41L3197.42,1367.41C3197.05,1367.41 3196.7,1367.29 3196.38,1367.04C3196.05,1366.8 3195.88,1366.36 3195.88,1365.73L3195.88,1338.01C3195.88,1337.38 3196.05,1336.95 3196.38,1336.69C3196.7,1336.45 3197.05,1336.33 3197.42,1336.33L3212.17,1336.33C3212.29,1336.33 3212.42,1336.36 3212.52,1336.42C3212.62,1336.49 3212.7,1336.59 3212.77,1336.73C3212.83,1336.88 3212.89,1337.06 3212.93,1337.27C3212.97,1337.5 3212.98,1337.76 3212.98,1338.08C3212.98,1338.37 3212.97,1338.62 3212.93,1338.84C3212.89,1339.05 3212.83,1339.23 3212.77,1339.37C3212.7,1339.51 3212.62,1339.6 3212.52,1339.67C3212.42,1339.73 3212.29,1339.76 3212.17,1339.76L3200.01,1339.76L3200.01,1349.52L3210.44,1349.52C3210.57,1349.52 3210.69,1349.56 3210.79,1349.62C3210.89,1349.7 3210.98,1349.8 3211.05,1349.92C3211.13,1350.05 3211.17,1350.23 3211.21,1350.45C3211.24,1350.68 3211.25,1350.94 3211.25,1351.25C3211.25,1351.53 3211.24,1351.78 3211.21,1351.99C3211.17,1352.2 3211.13,1352.37 3211.05,1352.49C3210.98,1352.62 3210.89,1352.72 3210.79,1352.77C3210.69,1352.83 3210.57,1352.85 3210.44,1352.85L3200.01,1352.85L3200.01,1363.98L3212.33,1363.98C3212.46,1363.98 3212.58,1364.01 3212.69,1364.07C3212.79,1364.14 3212.88,1364.24 3212.96,1364.37C3213.04,1364.51 3213.1,1364.69 3213.13,1364.9C3213.16,1365.12 3213.18,1365.39 3213.18,1365.71Z" style="fill:rgb(51,51,51);fill-rule:nonzero;"/>
    </g>
    <g transform="matrix(1,0,0,1,-3101.75,-981.618)">
        <path d="M3234.41,1344.95C3234.41,1343.73 3234.14,1342.7 3233.6,1341.87C3233.05,1341.02 3232.14,1340.42 3230.86,1340.05C3230.46,1339.94 3230,1339.86 3229.5,1339.81C3228.99,1339.76 3228.33,1339.74 3227.52,1339.74L3224.03,1339.74L3224.03,1350.21L3228.07,1350.21C3229.16,1350.21 3230.1,1350.08 3230.9,1349.81C3231.68,1349.56 3232.35,1349.19 3232.88,1348.71C3233.4,1348.24 3233.79,1347.68 3234.04,1347.04C3234.28,1346.4 3234.41,1345.7 3234.41,1344.95ZM3240.63,1366.79C3240.63,1366.92 3240.61,1367.03 3240.56,1367.12C3240.51,1367.22 3240.41,1367.3 3240.25,1367.36C3240.09,1367.43 3239.87,1367.48 3239.58,1367.51C3239.29,1367.54 3238.91,1367.56 3238.42,1367.56C3238.01,1367.56 3237.66,1367.54 3237.41,1367.51C3237.13,1367.48 3236.93,1367.43 3236.77,1367.35C3236.61,1367.28 3236.48,1367.18 3236.4,1367.05C3236.3,1366.92 3236.23,1366.76 3236.17,1366.57L3233.31,1359.25C3232.97,1358.41 3232.62,1357.64 3232.27,1356.95C3231.91,1356.25 3231.47,1355.66 3230.98,1355.14C3230.48,1354.65 3229.9,1354.26 3229.22,1353.98C3228.55,1353.7 3227.74,1353.55 3226.8,1353.55L3224.03,1353.55L3224.03,1366.79C3224.03,1366.92 3224,1367.03 3223.93,1367.12C3223.86,1367.22 3223.75,1367.3 3223.59,1367.35C3223.44,1367.41 3223.23,1367.45 3222.97,1367.49C3222.71,1367.53 3222.37,1367.56 3221.97,1367.56C3221.57,1367.56 3221.24,1367.53 3220.98,1367.49C3220.71,1367.45 3220.5,1367.41 3220.33,1367.35C3220.17,1367.3 3220.06,1367.22 3220,1367.12C3219.93,1367.03 3219.9,1366.92 3219.9,1366.79L3219.9,1338.01C3219.9,1337.38 3220.07,1336.95 3220.4,1336.69C3220.73,1336.45 3221.07,1336.33 3221.44,1336.33L3228.05,1336.33C3228.83,1336.33 3229.49,1336.35 3230,1336.39C3230.53,1336.43 3230.99,1336.47 3231.41,1336.52C3232.61,1336.73 3233.67,1337.05 3234.59,1337.5C3235.51,1337.95 3236.29,1338.52 3236.91,1339.21C3237.54,1339.9 3238,1340.68 3238.32,1341.58C3238.63,1342.46 3238.79,1343.45 3238.79,1344.52C3238.79,1345.56 3238.64,1346.5 3238.37,1347.31C3238.08,1348.15 3237.68,1348.88 3237.15,1349.51C3236.62,1350.14 3235.99,1350.68 3235.25,1351.15C3234.52,1351.61 3233.69,1352.01 3232.78,1352.33C3233.29,1352.55 3233.76,1352.84 3234.17,1353.17C3234.59,1353.53 3234.97,1353.94 3235.34,1354.42C3235.69,1354.9 3236.04,1355.45 3236.36,1356.07C3236.68,1356.7 3237,1357.4 3237.32,1358.19L3240.11,1365.03C3240.33,1365.61 3240.47,1366.02 3240.54,1366.24C3240.6,1366.48 3240.63,1366.66 3240.63,1366.79Z" style="fill:rgb(51,51,51);fill-rule:nonzero;"/>
    </g>
    <g transform="matrix(1,0,0,1,-3101.75,-981.618)">
        <path d="M3250.75,1366.79C3250.75,1366.92 3250.72,1367.03 3250.65,1367.12C3250.59,1367.22 3250.48,1367.3 3250.32,1367.35C3250.16,1367.41 3249.95,1367.45 3249.68,1367.49C3249.42,1367.53 3249.08,1367.56 3248.68,1367.56C3248.3,1367.56 3247.97,1367.53 3247.7,1367.49C3247.42,1367.45 3247.21,1367.41 3247.05,1367.35C3246.89,1367.3 3246.78,1367.22 3246.71,1367.12C3246.65,1367.03 3246.62,1366.92 3246.62,1366.79L3246.62,1336.95C3246.62,1336.82 3246.65,1336.71 3246.73,1336.61C3246.79,1336.52 3246.92,1336.45 3247.08,1336.39C3247.26,1336.33 3247.46,1336.29 3247.74,1336.25C3247.99,1336.21 3248.31,1336.18 3248.68,1336.18C3249.08,1336.18 3249.42,1336.21 3249.68,1336.25C3249.95,1336.29 3250.16,1336.33 3250.32,1336.39C3250.48,1336.45 3250.59,1336.52 3250.65,1336.61C3250.72,1336.71 3250.75,1336.82 3250.75,1336.95L3250.75,1366.79Z" style="fill:rgb(51,51,51);fill-rule:nonzero;"/>
    </g>
    <g transform="matrix(1,0,0,1,-3101.75,-981.618)">
        <path d="M3276.31,1365.71C3276.31,1366 3276.29,1366.24 3276.26,1366.47C3276.23,1366.68 3276.17,1366.86 3276.09,1367C3276.01,1367.15 3275.92,1367.25 3275.81,1367.32C3275.71,1367.38 3275.6,1367.41 3275.47,1367.41L3260.55,1367.41C3260.18,1367.41 3259.83,1367.29 3259.51,1367.04C3259.17,1366.8 3259.01,1366.36 3259.01,1365.73L3259.01,1338.01C3259.01,1337.38 3259.17,1336.95 3259.51,1336.69C3259.83,1336.45 3260.18,1336.33 3260.55,1336.33L3275.3,1336.33C3275.43,1336.33 3275.54,1336.36 3275.65,1336.42C3275.75,1336.49 3275.84,1336.59 3275.9,1336.73C3275.96,1336.88 3276.01,1337.06 3276.05,1337.27C3276.09,1337.5 3276.12,1337.76 3276.12,1338.08C3276.12,1338.37 3276.09,1338.62 3276.05,1338.84C3276.01,1339.05 3275.96,1339.23 3275.9,1339.37C3275.84,1339.51 3275.75,1339.6 3275.65,1339.67C3275.54,1339.73 3275.43,1339.76 3275.3,1339.76L3263.14,1339.76L3263.14,1349.52L3273.57,1349.52C3273.7,1349.52 3273.81,1349.56 3273.92,1349.62C3274.02,1349.7 3274.12,1349.8 3274.18,1349.92C3274.26,1350.05 3274.31,1350.23 3274.34,1350.45C3274.37,1350.68 3274.39,1350.94 3274.39,1351.25C3274.39,1351.53 3274.37,1351.78 3274.34,1351.99C3274.31,1352.2 3274.26,1352.37 3274.18,1352.49C3274.12,1352.62 3274.02,1352.72 3273.92,1352.77C3273.81,1352.83 3273.7,1352.85 3273.57,1352.85L3263.14,1352.85L3263.14,1363.98L3275.47,1363.98C3275.6,1363.98 3275.71,1364.01 3275.81,1364.07C3275.92,1364.14 3276.01,1364.24 3276.09,1364.37C3276.17,1364.51 3276.23,1364.69 3276.26,1364.9C3276.29,1365.12 3276.31,1365.39 3276.31,1365.71Z" style="fill:rgb(51,51,51);fill-rule:nonzero;"/>
    </g>
    <g transform="matrix(1,0,0,1,-3101.75,-981.618)">
        <path d="M3306.53,1365.71C3306.53,1366.03 3306.47,1366.3 3306.37,1366.52C3306.26,1366.75 3306.12,1366.93 3305.95,1367.08C3305.77,1367.22 3305.58,1367.32 3305.36,1367.39C3305.15,1367.45 3304.93,1367.48 3304.72,1367.48L3303.35,1367.48C3302.92,1367.48 3302.54,1367.44 3302.22,1367.35C3301.89,1367.27 3301.59,1367.11 3301.3,1366.87C3301.01,1366.64 3300.72,1366.32 3300.43,1365.92C3300.14,1365.52 3299.84,1365.01 3299.51,1364.39L3290.03,1346.7C3289.53,1345.79 3289.03,1344.84 3288.53,1343.84C3288.03,1342.84 3287.55,1341.86 3287.12,1340.92L3287.07,1340.92C3287.1,1342.07 3287.13,1343.25 3287.14,1344.45C3287.16,1345.65 3287.17,1346.84 3287.17,1348.03L3287.17,1366.79C3287.17,1366.9 3287.14,1367.01 3287.06,1367.11C3287,1367.22 3286.89,1367.3 3286.73,1367.35C3286.57,1367.41 3286.35,1367.45 3286.09,1367.49C3285.83,1367.53 3285.49,1367.56 3285.09,1367.56C3284.69,1367.56 3284.35,1367.53 3284.08,1367.49C3283.83,1367.45 3283.62,1367.41 3283.47,1367.35C3283.32,1367.3 3283.2,1367.22 3283.14,1367.11C3283.07,1367.01 3283.04,1366.9 3283.04,1366.79L3283.04,1338.1C3283.04,1337.46 3283.22,1337.01 3283.58,1336.73C3283.95,1336.46 3284.34,1336.33 3284.77,1336.33L3286.81,1336.33C3287.28,1336.33 3287.69,1336.37 3288.01,1336.45C3288.33,1336.53 3288.62,1336.66 3288.87,1336.84C3289.13,1337.03 3289.38,1337.29 3289.62,1337.61C3289.86,1337.94 3290.11,1338.35 3290.37,1338.85L3297.67,1352.49C3298.12,1353.33 3298.55,1354.14 3298.96,1354.94C3299.38,1355.72 3299.79,1356.51 3300.17,1357.27C3300.56,1358.04 3300.94,1358.8 3301.32,1359.55C3301.7,1360.29 3302.08,1361.04 3302.45,1361.79L3302.47,1361.79C3302.44,1360.53 3302.42,1359.21 3302.42,1357.83C3302.4,1356.47 3302.4,1355.15 3302.4,1353.89L3302.4,1337.02C3302.4,1336.91 3302.43,1336.81 3302.5,1336.71C3302.57,1336.61 3302.68,1336.53 3302.84,1336.45C3303,1336.39 3303.22,1336.33 3303.48,1336.3C3303.74,1336.27 3304.08,1336.25 3304.5,1336.25C3304.87,1336.25 3305.19,1336.27 3305.47,1336.3C3305.74,1336.33 3305.95,1336.39 3306.1,1336.45C3306.25,1336.53 3306.36,1336.61 3306.43,1336.71C3306.5,1336.81 3306.53,1336.91 3306.53,1337.02L3306.53,1365.71Z" style="fill:rgb(51,51,51);fill-rule:nonzero;"/>
    </g>
    <g transform="matrix(1,0,0,1,-3101.75,-981.618)">
        <path d="M3335.55,1363.02C3335.55,1363.27 3335.54,1363.5 3335.53,1363.69C3335.51,1363.88 3335.48,1364.05 3335.44,1364.19C3335.4,1364.34 3335.35,1364.47 3335.29,1364.58C3335.22,1364.69 3335.11,1364.83 3334.95,1364.99C3334.79,1365.15 3334.45,1365.39 3333.94,1365.71C3333.43,1366.05 3332.79,1366.37 3332.03,1366.68C3331.27,1367 3330.39,1367.25 3329.42,1367.48C3328.42,1367.68 3327.35,1367.8 3326.18,1367.8C3324.16,1367.8 3322.34,1367.46 3320.72,1366.79C3319.09,1366.12 3317.7,1365.12 3316.56,1363.81C3315.41,1362.5 3314.53,1360.88 3313.91,1358.94C3313.3,1357.02 3312.99,1354.79 3312.99,1352.28C3312.99,1349.7 3313.32,1347.4 3313.99,1345.38C3314.65,1343.37 3315.59,1341.66 3316.79,1340.25C3317.99,1338.86 3319.42,1337.78 3321.11,1337.05C3322.77,1336.31 3324.63,1335.94 3326.66,1335.94C3327.56,1335.94 3328.43,1336.02 3329.28,1336.2C3330.13,1336.36 3330.92,1336.57 3331.64,1336.83C3332.36,1337.09 3333,1337.38 3333.56,1337.72C3334.12,1338.06 3334.51,1338.33 3334.72,1338.55C3334.94,1338.76 3335.08,1338.93 3335.14,1339.04C3335.21,1339.15 3335.25,1339.29 3335.29,1339.43C3335.33,1339.59 3335.38,1339.77 3335.39,1339.98C3335.42,1340.19 3335.43,1340.43 3335.43,1340.72C3335.43,1341.04 3335.42,1341.32 3335.38,1341.54C3335.35,1341.76 3335.3,1341.96 3335.24,1342.11C3335.17,1342.26 3335.09,1342.36 3335.01,1342.44C3334.92,1342.51 3334.81,1342.55 3334.68,1342.55C3334.45,1342.55 3334.14,1342.4 3333.74,1342.08C3333.34,1341.77 3332.82,1341.43 3332.18,1341.05C3331.55,1340.67 3330.77,1340.33 3329.87,1340.01C3328.95,1339.71 3327.86,1339.55 3326.59,1339.55C3325.21,1339.55 3323.95,1339.82 3322.81,1340.38C3321.67,1340.92 3320.71,1341.74 3319.9,1342.81C3319.1,1343.89 3318.47,1345.2 3318.03,1346.74C3317.59,1348.29 3317.37,1350.05 3317.37,1352.04C3317.37,1354.01 3317.58,1355.75 3318.01,1357.26C3318.43,1358.78 3319.05,1360.05 3319.84,1361.05C3320.64,1362.08 3321.62,1362.85 3322.78,1363.36C3323.93,1363.89 3325.25,1364.15 3326.71,1364.15C3327.95,1364.15 3329.03,1363.99 3329.96,1363.69C3330.88,1363.38 3331.68,1363.05 3332.32,1362.67C3332.98,1362.3 3333.52,1361.95 3333.93,1361.65C3334.35,1361.34 3334.68,1361.19 3334.93,1361.19C3335.04,1361.19 3335.13,1361.21 3335.21,1361.26C3335.29,1361.31 3335.36,1361.41 3335.41,1361.54C3335.46,1361.68 3335.49,1361.86 3335.51,1362.1C3335.54,1362.34 3335.55,1362.65 3335.55,1363.02Z" style="fill:rgb(51,51,51);fill-rule:nonzero;"/>
    </g>
    <g transform="matrix(1,0,0,1,-3101.75,-981.618)">
        <path d="M3358.33,1365.71C3358.33,1366 3358.31,1366.24 3358.28,1366.47C3358.25,1366.68 3358.19,1366.86 3358.11,1367C3358.03,1367.15 3357.93,1367.25 3357.83,1367.32C3357.73,1367.38 3357.61,1367.41 3357.49,1367.41L3342.57,1367.41C3342.2,1367.41 3341.85,1367.29 3341.53,1367.04C3341.19,1366.8 3341.03,1366.36 3341.03,1365.73L3341.03,1338.01C3341.03,1337.38 3341.19,1336.95 3341.53,1336.69C3341.85,1336.45 3342.2,1336.33 3342.57,1336.33L3357.32,1336.33C3357.45,1336.33 3357.56,1336.36 3357.67,1336.42C3357.77,1336.49 3357.85,1336.59 3357.92,1336.73C3357.98,1336.88 3358.03,1337.06 3358.07,1337.27C3358.11,1337.5 3358.13,1337.76 3358.13,1338.08C3358.13,1338.37 3358.11,1338.62 3358.07,1338.84C3358.03,1339.05 3357.98,1339.23 3357.92,1339.37C3357.85,1339.51 3357.77,1339.6 3357.67,1339.67C3357.56,1339.73 3357.45,1339.76 3357.32,1339.76L3345.16,1339.76L3345.16,1349.52L3355.59,1349.52C3355.71,1349.52 3355.83,1349.56 3355.94,1349.62C3356.04,1349.7 3356.13,1349.8 3356.2,1349.92C3356.28,1350.05 3356.32,1350.23 3356.36,1350.45C3356.39,1350.68 3356.4,1350.94 3356.4,1351.25C3356.4,1351.53 3356.39,1351.78 3356.36,1351.99C3356.32,1352.2 3356.28,1352.37 3356.2,1352.49C3356.13,1352.62 3356.04,1352.72 3355.94,1352.77C3355.83,1352.83 3355.71,1352.85 3355.59,1352.85L3345.16,1352.85L3345.16,1363.98L3357.49,1363.98C3357.61,1363.98 3357.73,1364.01 3357.83,1364.07C3357.93,1364.14 3358.03,1364.24 3358.11,1364.37C3358.19,1364.51 3358.25,1364.69 3358.28,1364.9C3358.31,1365.12 3358.33,1365.39 3358.33,1365.71Z" style="fill:rgb(51,51,51);fill-rule:nonzero;"/>
    </g>
    <g transform="matrix(1,0,0,1,-3101.75,-981.618)">
        <path d="M3263.58,1088.24C3263.58,1101.36 3252.95,1111.99 3239.83,1111.99C3226.71,1111.99 3216.08,1101.36 3216.08,1088.24C3216.08,1075.13 3226.71,1064.49 3239.83,1064.49C3252.95,1064.49 3263.58,1075.13 3263.58,1088.24Z" style="fill:none;stroke:rgb(51,51,51);stroke-width:5.33px;"/>
    </g>
    <g transform="matrix(1,0,0,1,-3101.75,-981.618)">
        <path d="M3211.94,1165.47C3211.94,1163.36 3211.21,1161.31 3209.87,1159.67L3190.55,1136.01C3181.85,1125.36 3176.34,1112.46 3174.67,1098.81L3172.23,1078.98C3171.46,1072.7 3176.35,1067.17 3182.67,1067.17C3188.07,1067.17 3192.59,1071.25 3193.14,1076.62L3194.51,1089.91C3195.89,1103.34 3200.97,1116.12 3209.19,1126.83C3210.93,1129.09 3213.61,1130.42 3216.46,1130.42L3262.77,1130.42C3265.61,1130.42 3268.3,1129.09 3270.03,1126.83C3278.26,1116.12 3283.34,1103.34 3284.72,1089.91L3286.09,1076.62C3286.64,1071.25 3291.16,1067.17 3296.55,1067.17C3302.88,1067.17 3307.77,1072.7 3307,1078.98L3304.56,1098.81C3302.88,1112.46 3297.38,1125.36 3288.68,1136.01L3269.35,1159.67C3268.02,1161.31 3267.29,1163.36 3267.29,1165.47L3267.29,1208L3212.07,1208L3211.94,1165.47Z" style="fill:rgb(232,234,237);fill-rule:nonzero;"/>
    </g>
    <g transform="matrix(1,0,0,1,-3101.75,-981.618)">
        <path d="M3211.94,1165.47C3211.94,1163.36 3211.21,1161.31 3209.87,1159.67L3190.55,1136.01C3181.85,1125.36 3176.34,1112.46 3174.67,1098.81L3172.23,1078.98C3171.46,1072.7 3176.35,1067.17 3182.67,1067.17C3188.07,1067.17 3192.59,1071.25 3193.14,1076.62L3194.51,1089.91C3195.89,1103.34 3200.97,1116.12 3209.19,1126.83C3210.93,1129.09 3213.61,1130.42 3216.46,1130.42L3262.77,1130.42C3265.61,1130.42 3268.3,1129.09 3270.03,1126.83C3278.26,1116.12 3283.34,1103.34 3284.72,1089.91L3286.09,1076.62C3286.64,1071.25 3291.16,1067.17 3296.55,1067.17C3302.88,1067.17 3307.77,1072.7 3307,1078.98L3304.56,1098.81C3302.88,1112.46 3297.38,1125.36 3288.68,1136.01L3269.35,1159.67C3268.02,1161.31 3267.29,1163.36 3267.29,1165.47L3267.29,1208L3212.07,1208L3211.94,1165.47Z" style="fill:none;stroke:rgb(51,51,51);stroke-width:5.33px;"/>
    </g>
    <g transform="matrix(1,0,0,1,-3101.75,-981.618)">
        <path d="M3243.81,1179.31L3256.14,1204.3C3256.82,1205.68 3258.14,1206.64 3259.66,1206.86L3287.24,1210.87C3291.08,1211.43 3292.61,1216.14 3289.83,1218.85L3269.88,1238.3C3268.77,1239.37 3268.27,1240.92 3268.53,1242.44L3273.24,1269.91C3273.9,1273.73 3269.89,1276.64 3266.46,1274.84L3241.79,1261.87C3240.43,1261.15 3238.8,1261.15 3237.44,1261.87L3212.77,1274.84C3209.34,1276.64 3205.33,1273.73 3205.98,1269.91L3210.7,1242.44C3210.96,1240.92 3210.45,1239.37 3209.35,1238.3L3189.39,1218.85C3186.62,1216.14 3188.15,1211.43 3191.99,1210.87L3219.57,1206.86C3221.09,1206.64 3222.41,1205.68 3223.09,1204.3L3235.42,1179.31C3237.14,1175.84 3242.09,1175.84 3243.81,1179.31Z" style="fill:rgb(251,192,85);fill-rule:nonzero;"/>
    </g>
    <g transform="matrix(1,0,0,1,-3101.75,-981.618)">
        <path d="M3243.81,1179.31L3256.14,1204.3C3256.82,1205.68 3258.14,1206.64 3259.66,1206.86L3287.24,1210.87C3291.08,1211.43 3292.61,1216.14 3289.83,1218.85L3269.88,1238.3C3268.77,1239.37 3268.27,1240.92 3268.53,1242.44L3273.24,1269.91C3273.9,1273.73 3269.89,1276.64 3266.46,1274.84L3241.79,1261.87C3240.43,1261.15 3238.8,1261.15 3237.44,1261.87L3212.77,1274.84C3209.34,1276.64 3205.33,1273.73 3205.98,1269.91L3210.7,1242.44C3210.96,1240.92 3210.45,1239.37 3209.35,1238.3L3189.39,1218.85C3186.62,1216.14 3188.15,1211.43 3191.99,1210.87L3219.57,1206.86C3221.09,1206.64 3222.41,1205.68 3223.09,1204.3L3235.42,1179.31C3237.14,1175.84 3242.09,1175.84 3243.81,1179.31Z" style="fill:none;stroke:rgb(51,51,51);stroke-width:5.33px;"/>
    </g>
    <g transform="matrix(1,0,0,1,-3101.75,-981.618)">
        <path d="M3339.75,1122.99L3332,1138.69C3331.57,1139.56 3330.74,1140.16 3329.79,1140.3L3312.46,1142.82C3310.05,1143.17 3309.09,1146.13 3310.83,1147.83L3323.37,1160.05C3324.06,1160.72 3324.38,1161.69 3324.21,1162.65L3321.26,1179.9C3320.84,1182.3 3323.36,1184.13 3325.52,1183L3341.01,1174.85C3341.87,1174.4 3342.89,1174.4 3343.75,1174.85L3359.24,1183C3361.4,1184.13 3363.92,1182.3 3363.51,1179.9L3360.55,1162.65C3360.38,1161.69 3360.7,1160.72 3361.39,1160.05L3373.93,1147.83C3375.67,1146.13 3374.71,1143.17 3372.3,1142.82L3354.97,1140.3C3354.02,1140.16 3353.19,1139.56 3352.76,1138.69L3345.01,1122.99C3343.94,1120.81 3340.82,1120.81 3339.75,1122.99Z" style="fill:rgb(80,200,180);fill-rule:nonzero;"/>
    </g>
    <g transform="matrix(1,0,0,1,-3101.75,-981.618)">
        <path d="M3134.21,1122.99L3126.46,1138.69C3126.04,1139.56 3125.21,1140.16 3124.25,1140.3L3106.93,1142.82C3104.52,1143.17 3103.56,1146.13 3105.3,1147.83L3117.84,1160.05C3118.53,1160.72 3118.84,1161.69 3118.68,1162.65L3115.72,1179.9C3115.31,1182.3 3117.83,1184.13 3119.98,1183L3135.48,1174.85C3136.34,1174.4 3137.36,1174.4 3138.21,1174.85L3153.71,1183C3155.86,1184.13 3158.38,1182.3 3157.97,1179.9L3155.01,1162.65C3154.85,1161.69 3155.17,1160.72 3155.86,1160.05L3168.39,1147.83C3170.14,1146.13 3169.17,1143.17 3166.77,1142.82L3149.44,1140.3C3148.48,1140.16 3147.66,1139.56 3147.23,1138.69L3139.48,1122.99C3138.4,1120.81 3135.29,1120.81 3134.21,1122.99Z" style="fill:rgb(150,192,251);fill-rule:nonzero;"/>
    </g>
    <g transform="matrix(1,0,0,1,-3101.75,-981.618)">
        <path d="M3339.75,1122.99L3332,1138.69C3331.57,1139.56 3330.74,1140.16 3329.79,1140.3L3312.46,1142.82C3310.05,1143.17 3309.09,1146.13 3310.83,1147.83L3323.37,1160.05C3324.06,1160.72 3324.38,1161.69 3324.21,1162.65L3321.26,1179.9C3320.84,1182.3 3323.36,1184.13 3325.52,1183L3341.01,1174.85C3341.87,1174.4 3342.89,1174.4 3343.75,1174.85L3359.24,1183C3361.4,1184.13 3363.92,1182.3 3363.51,1179.9L3360.55,1162.65C3360.38,1161.69 3360.7,1160.72 3361.39,1160.05L3373.93,1147.83C3375.67,1146.13 3374.71,1143.17 3372.3,1142.82L3354.97,1140.3C3354.02,1140.16 3353.19,1139.56 3352.76,1138.69L3345.01,1122.99C3343.94,1120.81 3340.82,1120.81 3339.75,1122.99Z" style="fill:none;stroke:rgb(51,51,51);stroke-width:5.33px;"/>
    </g>
    <g transform="matrix(1,0,0,1,-3101.75,-981.618)">
        <path d="M3134.21,1122.99L3126.46,1138.69C3126.04,1139.56 3125.21,1140.16 3124.25,1140.3L3106.93,1142.82C3104.52,1143.17 3103.56,1146.13 3105.3,1147.83L3117.84,1160.05C3118.53,1160.72 3118.84,1161.69 3118.68,1162.65L3115.72,1179.9C3115.31,1182.3 3117.83,1184.13 3119.98,1183L3135.48,1174.85C3136.34,1174.4 3137.36,1174.4 3138.21,1174.85L3153.71,1183C3155.86,1184.13 3158.38,1182.3 3157.97,1179.9L3155.01,1162.65C3154.85,1161.69 3155.17,1160.72 3155.86,1160.05L3168.39,1147.83C3170.14,1146.13 3169.17,1143.17 3166.77,1142.82L3149.44,1140.3C3148.48,1140.16 3147.66,1139.56 3147.23,1138.69L3139.48,1122.99C3138.4,1120.81 3135.29,1120.81 3134.21,1122.99Z" style="fill:none;stroke:rgb(51,51,51);stroke-width:5.33px;"/>
    </g>
    <g transform="matrix(1,0,0,1,-3101.75,-981.618)">
        <path d="M3133.39,1022.26L3138.92,1033.47C3139.23,1034.09 3139.82,1034.51 3140.5,1034.61L3152.87,1036.41C3154.59,1036.66 3155.28,1038.78 3154.04,1039.99L3145.08,1048.71C3144.59,1049.2 3144.36,1049.89 3144.48,1050.57L3146.59,1062.89C3146.89,1064.61 3145.09,1065.91 3143.55,1065.1L3132.49,1059.29C3131.87,1058.97 3131.14,1058.97 3130.53,1059.29L3119.47,1065.1C3117.93,1065.91 3116.13,1064.61 3116.42,1062.89L3118.54,1050.57C3118.65,1049.89 3118.43,1049.2 3117.93,1048.71L3108.98,1039.99C3107.74,1038.78 3108.42,1036.66 3110.15,1036.41L3122.52,1034.61C3123.2,1034.51 3123.79,1034.09 3124.1,1033.47L3129.63,1022.26C3130.4,1020.7 3132.62,1020.7 3133.39,1022.26Z" style="fill:none;stroke:rgb(51,51,51);stroke-width:5.33px;"/>
    </g>
    <g transform="matrix(1,0,0,1,-3101.75,-981.618)">
        <path d="M3241.5,985.452L3247.03,996.661C3247.33,997.28 3247.92,997.71 3248.61,997.809L3260.98,999.606C3262.7,999.856 3263.38,1001.97 3262.14,1003.18L3253.19,1011.91C3252.69,1012.39 3252.47,1013.09 3252.58,1013.77L3254.7,1026.09C3254.99,1027.8 3253.19,1029.11 3251.65,1028.3L3240.59,1022.48C3239.98,1022.16 3239.25,1022.16 3238.64,1022.48L3227.57,1028.3C3226.03,1029.11 3224.24,1027.8 3224.53,1026.09L3226.64,1013.77C3226.76,1013.09 3226.53,1012.39 3226.04,1011.91L3217.09,1003.18C3215.84,1001.97 3216.53,999.856 3218.25,999.606L3230.62,997.809C3231.3,997.71 3231.89,997.28 3232.2,996.661L3237.73,985.452C3238.5,983.893 3240.73,983.893 3241.5,985.452Z" style="fill:none;stroke:rgb(51,51,51);stroke-width:5.33px;"/>
    </g>
    <g transform="matrix(1,0,0,1,-3101.75,-981.618)">
        <path d="M3345.84,1022.26L3340.3,1033.47C3340,1034.09 3339.41,1034.51 3338.73,1034.61L3326.35,1036.41C3324.63,1036.66 3323.95,1038.78 3325.19,1039.99L3334.14,1048.71C3334.64,1049.2 3334.86,1049.89 3334.75,1050.57L3332.63,1062.89C3332.34,1064.61 3334.14,1065.91 3335.68,1065.1L3346.74,1059.29C3347.35,1058.97 3348.08,1058.97 3348.69,1059.29L3359.76,1065.1C3361.3,1065.91 3363.1,1064.61 3362.8,1062.89L3360.69,1050.57C3360.57,1049.89 3360.8,1049.2 3361.29,1048.71L3370.24,1039.99C3371.49,1038.78 3370.8,1036.66 3369.08,1036.41L3356.71,1034.61C3356.03,1034.51 3355.44,1034.09 3355.13,1033.47L3349.6,1022.26C3348.83,1020.7 3346.61,1020.7 3345.84,1022.26Z" style="fill:none;stroke:rgb(51,51,51);stroke-width:5.33px;"/>
    </g>
</svg>
