<?xml version="1.0" encoding="UTF-8" standalone="no"?>
<!DOCTYPE svg PUBLIC "-//W3C//DTD SVG 1.1//EN" "http://www.w3.org/Graphics/SVG/1.1/DTD/svg11.dtd">
<svg width="100%" height="100%" viewBox="0 0 297 381" version="1.1" xmlns="http://www.w3.org/2000/svg" xmlns:xlink="http://www.w3.org/1999/xlink" xml:space="preserve" xmlns:serif="http://www.serif.com/" style="fill-rule:evenodd;clip-rule:evenodd;stroke-linecap:round;stroke-linejoin:round;stroke-miterlimit:2;">
    <g transform="matrix(1,0,0,1,-1384.78,-987.413)">
        <path d="M1447.64,1366.79C1447.64,1366.92 1447.61,1367.03 1447.54,1367.12C1447.47,1367.22 1447.36,1367.29 1447.19,1367.35C1447.02,1367.4 1446.82,1367.45 1446.56,1367.49C1446.3,1367.53 1445.97,1367.56 1445.56,1367.56C1445.18,1367.56 1444.85,1367.53 1444.58,1367.49C1444.31,1367.45 1444.09,1367.4 1443.94,1367.35C1443.78,1367.29 1443.67,1367.22 1443.6,1367.12C1443.54,1367.03 1443.51,1366.92 1443.51,1366.79L1443.51,1339.71L1443.46,1339.71L1432.51,1366.91C1432.46,1367.02 1432.39,1367.12 1432.3,1367.2C1432.21,1367.28 1432.08,1367.34 1431.91,1367.4C1431.74,1367.45 1431.54,1367.49 1431.31,1367.52C1431.08,1367.54 1430.81,1367.56 1430.49,1367.56C1430.15,1367.56 1429.86,1367.54 1429.62,1367.51C1429.38,1367.48 1429.18,1367.43 1429.02,1367.37C1428.86,1367.32 1428.73,1367.25 1428.65,1367.17C1428.56,1367.09 1428.5,1367 1428.47,1366.91L1418,1339.71L1417.97,1339.71L1417.97,1366.79C1417.97,1366.92 1417.94,1367.03 1417.87,1367.12C1417.8,1367.22 1417.69,1367.29 1417.52,1367.35C1417.35,1367.4 1417.15,1367.45 1416.88,1367.49C1416.62,1367.53 1416.28,1367.56 1415.86,1367.56C1415.47,1367.56 1415.14,1367.53 1414.88,1367.49C1414.62,1367.45 1414.4,1367.4 1414.25,1367.35C1414.09,1367.29 1413.98,1367.22 1413.93,1367.12C1413.86,1367.03 1413.84,1366.92 1413.84,1366.79L1413.84,1338.2C1413.84,1337.53 1414.02,1337.05 1414.38,1336.76C1414.73,1336.47 1415.13,1336.33 1415.57,1336.33L1418.11,1336.33C1418.63,1336.33 1419.08,1336.37 1419.47,1336.47C1419.86,1336.57 1420.21,1336.72 1420.49,1336.93C1420.79,1337.13 1421.03,1337.4 1421.23,1337.72C1421.42,1338.04 1421.59,1338.42 1421.74,1338.85L1430.63,1361.36L1430.75,1361.36L1440,1338.92C1440.18,1338.44 1440.37,1338.03 1440.58,1337.7C1440.79,1337.36 1441.03,1337.09 1441.28,1336.89C1441.53,1336.69 1441.81,1336.54 1442.12,1336.45C1442.44,1336.37 1442.79,1336.33 1443.2,1336.33L1445.85,1336.33C1446.1,1336.33 1446.33,1336.36 1446.55,1336.43C1446.78,1336.5 1446.96,1336.61 1447.11,1336.77C1447.27,1336.92 1447.39,1337.11 1447.49,1337.34C1447.59,1337.58 1447.64,1337.86 1447.64,1338.2L1447.64,1366.79Z" style="fill:rgb(51,51,51);fill-rule:nonzero;"/>
    </g>
    <g transform="matrix(1,0,0,1,-1384.78,-987.413)">
        <path d="M1465.8,1340.46L1465.78,1340.46L1460.42,1355.95L1471.23,1355.95L1465.8,1340.46ZM1479.18,1365.95C1479.31,1366.3 1479.38,1366.58 1479.38,1366.8C1479.39,1367.01 1479.33,1367.18 1479.21,1367.29C1479.08,1367.4 1478.86,1367.48 1478.57,1367.51C1478.27,1367.54 1477.88,1367.56 1477.38,1367.56C1476.88,1367.56 1476.48,1367.54 1476.19,1367.52C1475.89,1367.49 1475.67,1367.45 1475.52,1367.4C1475.36,1367.34 1475.25,1367.27 1475.18,1367.17C1475.11,1367.08 1475.04,1366.96 1474.98,1366.81L1472.31,1359.25L1459.39,1359.25L1456.84,1366.72C1456.79,1366.86 1456.73,1366.98 1456.65,1367.08C1456.57,1367.19 1456.45,1367.28 1456.3,1367.35C1456.14,1367.42 1455.93,1367.48 1455.65,1367.51C1455.37,1367.54 1455.01,1367.56 1454.56,1367.56C1454.09,1367.56 1453.71,1367.53 1453.41,1367.49C1453.12,1367.45 1452.91,1367.38 1452.79,1367.27C1452.67,1367.16 1452.61,1366.99 1452.62,1366.77C1452.63,1366.56 1452.7,1366.28 1452.83,1365.92L1463.26,1337.05C1463.32,1336.87 1463.4,1336.73 1463.5,1336.61C1463.61,1336.5 1463.76,1336.41 1463.96,1336.35C1464.16,1336.29 1464.42,1336.24 1464.73,1336.21C1465.04,1336.19 1465.44,1336.18 1465.92,1336.18C1466.43,1336.18 1466.86,1336.19 1467.2,1336.21C1467.53,1336.24 1467.8,1336.29 1468.01,1336.35C1468.22,1336.41 1468.38,1336.5 1468.49,1336.62C1468.6,1336.74 1468.69,1336.89 1468.76,1337.07L1479.18,1365.95Z" style="fill:rgb(51,51,51);fill-rule:nonzero;"/>
    </g>
    <g transform="matrix(1,0,0,1,-1384.78,-987.413)">
        <path d="M1498.88,1344.95C1498.88,1343.73 1498.61,1342.7 1498.07,1341.86C1497.52,1341.02 1496.61,1340.42 1495.33,1340.05C1494.93,1339.94 1494.47,1339.86 1493.97,1339.81C1493.46,1339.76 1492.8,1339.74 1491.99,1339.74L1488.5,1339.74L1488.5,1350.21L1492.54,1350.21C1493.63,1350.21 1494.57,1350.08 1495.36,1349.81C1496.15,1349.55 1496.82,1349.18 1497.34,1348.71C1497.87,1348.23 1498.26,1347.68 1498.51,1347.04C1498.75,1346.4 1498.88,1345.7 1498.88,1344.95ZM1505.1,1366.79C1505.1,1366.92 1505.08,1367.03 1505.03,1367.12C1504.98,1367.22 1504.88,1367.3 1504.72,1367.36C1504.56,1367.43 1504.34,1367.48 1504.05,1367.51C1503.76,1367.54 1503.37,1367.56 1502.89,1367.56C1502.48,1367.56 1502.13,1367.54 1501.87,1367.51C1501.6,1367.48 1501.4,1367.42 1501.24,1367.35C1501.08,1367.28 1500.95,1367.18 1500.86,1367.05C1500.77,1366.92 1500.7,1366.76 1500.64,1366.57L1497.78,1359.25C1497.44,1358.41 1497.09,1357.64 1496.73,1356.95C1496.37,1356.25 1495.94,1355.65 1495.45,1355.14C1494.95,1354.64 1494.37,1354.25 1493.69,1353.97C1493.02,1353.69 1492.21,1353.55 1491.27,1353.55L1488.5,1353.55L1488.5,1366.79C1488.5,1366.92 1488.46,1367.03 1488.39,1367.12C1488.32,1367.22 1488.21,1367.29 1488.06,1367.35C1487.9,1367.4 1487.7,1367.45 1487.43,1367.49C1487.17,1367.53 1486.84,1367.56 1486.44,1367.56C1486.04,1367.56 1485.7,1367.53 1485.44,1367.49C1485.17,1367.45 1484.96,1367.4 1484.8,1367.35C1484.64,1367.29 1484.53,1367.22 1484.47,1367.12C1484.4,1367.03 1484.37,1366.92 1484.37,1366.79L1484.37,1338.01C1484.37,1337.38 1484.53,1336.94 1484.86,1336.69C1485.19,1336.45 1485.54,1336.33 1485.91,1336.33L1492.52,1336.33C1493.3,1336.33 1493.95,1336.34 1494.47,1336.38C1494.99,1336.42 1495.46,1336.47 1495.88,1336.52C1497.08,1336.73 1498.14,1337.05 1499.06,1337.5C1499.98,1337.95 1500.76,1338.52 1501.38,1339.21C1502.01,1339.9 1502.47,1340.68 1502.78,1341.57C1503.09,1342.46 1503.25,1343.45 1503.25,1344.52C1503.25,1345.56 1503.11,1346.49 1502.83,1347.31C1502.55,1348.14 1502.15,1348.87 1501.62,1349.5C1501.09,1350.13 1500.46,1350.68 1499.72,1351.15C1498.99,1351.61 1498.16,1352.01 1497.25,1352.33C1497.76,1352.55 1498.23,1352.83 1498.64,1353.17C1499.06,1353.52 1499.44,1353.94 1499.8,1354.42C1500.16,1354.9 1500.51,1355.45 1500.83,1356.07C1501.15,1356.7 1501.47,1357.4 1501.79,1358.19L1504.58,1365.03C1504.8,1365.61 1504.94,1366.01 1505.01,1366.24C1505.07,1366.48 1505.1,1366.66 1505.1,1366.79Z" style="fill:rgb(51,51,51);fill-rule:nonzero;"/>
    </g>
    <g transform="matrix(1,0,0,1,-1384.78,-987.413)">
        <path d="M1531.36,1366.74C1531.36,1366.87 1531.33,1366.98 1531.27,1367.08C1531.22,1367.19 1531.11,1367.28 1530.95,1367.34C1530.79,1367.4 1530.58,1367.45 1530.31,1367.49C1530.03,1367.53 1529.68,1367.56 1529.25,1367.56C1528.69,1367.56 1528.23,1367.53 1527.88,1367.48C1527.53,1367.44 1527.26,1367.35 1527.09,1367.22C1526.91,1367.09 1526.77,1366.95 1526.65,1366.79L1515.22,1351.25L1515.22,1366.79C1515.22,1366.9 1515.19,1367 1515.12,1367.11C1515.06,1367.21 1514.95,1367.29 1514.79,1367.35C1514.63,1367.4 1514.41,1367.45 1514.15,1367.49C1513.88,1367.53 1513.55,1367.56 1513.15,1367.56C1512.77,1367.56 1512.44,1367.53 1512.17,1367.49C1511.9,1367.45 1511.68,1367.4 1511.52,1367.35C1511.36,1367.29 1511.25,1367.21 1511.18,1367.11C1511.12,1367 1511.09,1366.9 1511.09,1366.79L1511.09,1336.95C1511.09,1336.82 1511.12,1336.71 1511.18,1336.61C1511.25,1336.52 1511.36,1336.44 1511.52,1336.38C1511.68,1336.33 1511.9,1336.28 1512.17,1336.24C1512.44,1336.2 1512.77,1336.18 1513.15,1336.18C1513.55,1336.18 1513.88,1336.2 1514.15,1336.24C1514.41,1336.28 1514.63,1336.33 1514.79,1336.38C1514.95,1336.44 1515.06,1336.52 1515.12,1336.61C1515.19,1336.71 1515.22,1336.82 1515.22,1336.95L1515.22,1350.76L1526.22,1336.95C1526.32,1336.81 1526.43,1336.69 1526.56,1336.59C1526.69,1336.49 1526.84,1336.41 1527.02,1336.36C1527.21,1336.3 1527.43,1336.26 1527.69,1336.23C1527.96,1336.2 1528.3,1336.18 1528.72,1336.18C1529.14,1336.18 1529.47,1336.2 1529.73,1336.24C1529.98,1336.28 1530.19,1336.33 1530.34,1336.4C1530.49,1336.46 1530.59,1336.54 1530.65,1336.64C1530.71,1336.73 1530.74,1336.84 1530.74,1336.95C1530.74,1337.16 1530.68,1337.37 1530.58,1337.58C1530.47,1337.78 1530.28,1338.07 1529.99,1338.44L1519.69,1350.76L1530.79,1365.51C1531.06,1365.93 1531.22,1366.21 1531.27,1366.36C1531.33,1366.52 1531.36,1366.64 1531.36,1366.74Z" style="fill:rgb(51,51,51);fill-rule:nonzero;"/>
    </g>
    <g transform="matrix(1,0,0,1,-1384.78,-987.413)">
        <path d="M1553.94,1365.71C1553.94,1366 1553.93,1366.24 1553.9,1366.46C1553.86,1366.68 1553.81,1366.86 1553.73,1367C1553.65,1367.15 1553.55,1367.25 1553.45,1367.32C1553.34,1367.38 1553.23,1367.41 1553.1,1367.41L1538.18,1367.41C1537.82,1367.41 1537.46,1367.28 1537.14,1367.04C1536.81,1366.79 1536.65,1366.36 1536.65,1365.73L1536.65,1338.01C1536.65,1337.38 1536.81,1336.94 1537.14,1336.69C1537.46,1336.45 1537.82,1336.33 1538.18,1336.33L1552.94,1336.33C1553.06,1336.33 1553.18,1336.36 1553.28,1336.42C1553.38,1336.49 1553.47,1336.59 1553.54,1336.73C1553.6,1336.88 1553.65,1337.05 1553.69,1337.27C1553.73,1337.49 1553.75,1337.76 1553.75,1338.08C1553.75,1338.37 1553.73,1338.62 1553.69,1338.83C1553.65,1339.05 1553.6,1339.23 1553.54,1339.36C1553.47,1339.5 1553.38,1339.6 1553.28,1339.67C1553.18,1339.73 1553.06,1339.76 1552.94,1339.76L1540.78,1339.76L1540.78,1349.52L1551.21,1349.52C1551.33,1349.52 1551.45,1349.55 1551.55,1349.62C1551.65,1349.69 1551.74,1349.8 1551.81,1349.92C1551.89,1350.05 1551.94,1350.23 1551.97,1350.45C1552.01,1350.68 1552.02,1350.94 1552.02,1351.25C1552.02,1351.53 1552.01,1351.78 1551.97,1351.99C1551.94,1352.2 1551.89,1352.37 1551.81,1352.49C1551.74,1352.62 1551.65,1352.71 1551.55,1352.77C1551.45,1352.82 1551.33,1352.85 1551.21,1352.85L1540.78,1352.85L1540.78,1363.98L1553.1,1363.98C1553.23,1363.98 1553.34,1364.01 1553.45,1364.07C1553.55,1364.14 1553.65,1364.23 1553.73,1364.37C1553.81,1364.51 1553.86,1364.68 1553.9,1364.9C1553.93,1365.11 1553.94,1365.39 1553.94,1365.71Z" style="fill:rgb(51,51,51);fill-rule:nonzero;"/>
    </g>
    <g transform="matrix(1,0,0,1,-1384.78,-987.413)">
        <path d="M1580.15,1338.1C1580.15,1338.41 1580.14,1338.67 1580.11,1338.9C1580.07,1339.12 1580.02,1339.3 1579.95,1339.43C1579.87,1339.57 1579.79,1339.67 1579.68,1339.74C1579.58,1339.8 1579.46,1339.83 1579.34,1339.83L1570.59,1339.83L1570.59,1366.79C1570.59,1366.92 1570.56,1367.03 1570.5,1367.12C1570.43,1367.22 1570.32,1367.29 1570.16,1367.35C1570,1367.4 1569.78,1367.45 1569.52,1367.49C1569.25,1367.53 1568.93,1367.56 1568.53,1367.56C1568.14,1367.56 1567.81,1367.53 1567.54,1367.49C1567.27,1367.45 1567.05,1367.4 1566.89,1367.35C1566.73,1367.29 1566.62,1367.22 1566.56,1367.12C1566.49,1367.03 1566.46,1366.92 1566.46,1366.79L1566.46,1339.83L1557.72,1339.83C1557.59,1339.83 1557.47,1339.8 1557.36,1339.74C1557.26,1339.67 1557.18,1339.57 1557.12,1339.43C1557.05,1339.3 1557,1339.12 1556.96,1338.9C1556.92,1338.67 1556.9,1338.41 1556.9,1338.1C1556.9,1337.8 1556.92,1337.53 1556.96,1337.29C1557,1337.06 1557.05,1336.88 1557.12,1336.73C1557.18,1336.59 1557.26,1336.49 1557.36,1336.42C1557.47,1336.36 1557.59,1336.33 1557.72,1336.33L1579.34,1336.33C1579.46,1336.33 1579.58,1336.36 1579.68,1336.42C1579.79,1336.49 1579.87,1336.59 1579.95,1336.73C1580.02,1336.88 1580.07,1337.06 1580.11,1337.29C1580.14,1337.53 1580.15,1337.8 1580.15,1338.1Z" style="fill:rgb(51,51,51);fill-rule:nonzero;"/>
    </g>
    <g transform="matrix(1,0,0,1,-1384.78,-987.413)">
        <path d="M1588.78,1366.79C1588.78,1366.92 1588.75,1367.03 1588.68,1367.12C1588.62,1367.22 1588.51,1367.29 1588.35,1367.35C1588.19,1367.4 1587.97,1367.45 1587.71,1367.49C1587.44,1367.53 1587.11,1367.56 1586.71,1367.56C1586.33,1367.56 1586,1367.53 1585.73,1367.49C1585.46,1367.45 1585.24,1367.4 1585.08,1367.35C1584.92,1367.29 1584.81,1367.22 1584.74,1367.12C1584.68,1367.03 1584.65,1366.92 1584.65,1366.79L1584.65,1336.95C1584.65,1336.82 1584.68,1336.71 1584.75,1336.61C1584.82,1336.52 1584.94,1336.44 1585.11,1336.38C1585.28,1336.33 1585.5,1336.28 1585.76,1336.24C1586.02,1336.2 1586.34,1336.18 1586.71,1336.18C1587.11,1336.18 1587.44,1336.2 1587.71,1336.24C1587.97,1336.28 1588.19,1336.33 1588.35,1336.38C1588.51,1336.44 1588.62,1336.52 1588.68,1336.61C1588.75,1336.71 1588.78,1336.82 1588.78,1336.95L1588.78,1366.79Z" style="fill:rgb(51,51,51);fill-rule:nonzero;"/>
    </g>
    <g transform="matrix(1,0,0,1,-1384.78,-987.413)">
        <path d="M1620.54,1365.71C1620.54,1366.03 1620.48,1366.3 1620.38,1366.52C1620.27,1366.75 1620.13,1366.93 1619.95,1367.08C1619.78,1367.22 1619.58,1367.32 1619.37,1367.39C1619.15,1367.45 1618.94,1367.48 1618.72,1367.48L1617.36,1367.48C1616.93,1367.48 1616.55,1367.44 1616.22,1367.35C1615.9,1367.26 1615.6,1367.1 1615.31,1366.87C1615.01,1366.64 1614.72,1366.32 1614.44,1365.92C1614.15,1365.52 1613.83,1365.01 1613.51,1364.39L1604.03,1346.7C1603.54,1345.79 1603.03,1344.83 1602.53,1343.83C1602.02,1342.83 1601.56,1341.86 1601.13,1340.92L1601.08,1340.92C1601.11,1342.07 1601.13,1343.25 1601.15,1344.45C1601.17,1345.65 1601.17,1346.84 1601.17,1348.03L1601.17,1366.79C1601.17,1366.9 1601.14,1367 1601.07,1367.11C1601.01,1367.21 1600.89,1367.29 1600.73,1367.35C1600.57,1367.4 1600.36,1367.45 1600.09,1367.49C1599.84,1367.53 1599.5,1367.56 1599.09,1367.56C1598.68,1367.56 1598.36,1367.53 1598.09,1367.49C1597.83,1367.45 1597.63,1367.4 1597.47,1367.35C1597.32,1367.29 1597.21,1367.21 1597.14,1367.11C1597.07,1367 1597.04,1366.9 1597.04,1366.79L1597.04,1338.1C1597.04,1337.46 1597.22,1337.01 1597.59,1336.73C1597.95,1336.46 1598.35,1336.33 1598.78,1336.33L1600.81,1336.33C1601.29,1336.33 1601.69,1336.37 1602.02,1336.45C1602.34,1336.53 1602.62,1336.65 1602.88,1336.84C1603.14,1337.02 1603.38,1337.28 1603.62,1337.61C1603.86,1337.94 1604.11,1338.35 1604.38,1338.85L1611.66,1352.49C1612.12,1353.33 1612.55,1354.14 1612.97,1354.93C1613.39,1355.72 1613.79,1356.51 1614.18,1357.27C1614.56,1358.04 1614.95,1358.8 1615.32,1359.54C1615.7,1360.29 1616.08,1361.04 1616.45,1361.79L1616.48,1361.79C1616.45,1360.53 1616.42,1359.21 1616.41,1357.83L1616.41,1337.02C1616.41,1336.91 1616.44,1336.81 1616.5,1336.71C1616.57,1336.61 1616.69,1336.53 1616.85,1336.45C1617.01,1336.38 1617.22,1336.33 1617.48,1336.3C1617.74,1336.27 1618.09,1336.25 1618.5,1336.25C1618.88,1336.25 1619.2,1336.27 1619.47,1336.3C1619.74,1336.33 1619.95,1336.38 1620.1,1336.45C1620.26,1336.53 1620.37,1336.61 1620.43,1336.71C1620.51,1336.81 1620.54,1336.91 1620.54,1337.02L1620.54,1365.71Z" style="fill:rgb(51,51,51);fill-rule:nonzero;"/>
    </g>
    <g transform="matrix(1,0,0,1,-1384.78,-987.413)">
        <path d="M1652.15,1340.55C1652.15,1340.86 1652.14,1341.12 1652.1,1341.36C1652.07,1341.59 1652.02,1341.78 1651.96,1341.93C1651.9,1342.08 1651.82,1342.2 1651.72,1342.26C1651.62,1342.32 1651.52,1342.36 1651.41,1342.36C1651.22,1342.36 1650.9,1342.2 1650.45,1341.9C1650,1341.6 1649.4,1341.26 1648.64,1340.89C1647.89,1340.52 1646.99,1340.19 1645.94,1339.88C1644.89,1339.58 1643.65,1339.43 1642.21,1339.43C1640.49,1339.43 1638.96,1339.74 1637.59,1340.36C1636.23,1340.99 1635.08,1341.85 1634.13,1342.96C1633.19,1344.06 1632.46,1345.38 1631.96,1346.9C1631.45,1348.42 1631.2,1350.07 1631.2,1351.85C1631.2,1353.83 1631.48,1355.59 1632.03,1357.13C1632.58,1358.67 1633.35,1359.97 1634.33,1361.02C1635.3,1362.08 1636.46,1362.88 1637.82,1363.42C1639.17,1363.97 1640.66,1364.24 1642.28,1364.24C1643.24,1364.24 1644.21,1364.12 1645.19,1363.89C1646.18,1363.66 1647.1,1363.31 1647.95,1362.85L1647.95,1353.79L1640.74,1353.79C1640.47,1353.79 1640.26,1353.66 1640.12,1353.38C1639.99,1353.11 1639.92,1352.69 1639.92,1352.11C1639.92,1351.81 1639.94,1351.54 1639.97,1351.33C1640,1351.11 1640.05,1350.93 1640.12,1350.8C1640.2,1350.66 1640.28,1350.56 1640.38,1350.5C1640.48,1350.44 1640.6,1350.4 1640.74,1350.4L1650.61,1350.4C1650.79,1350.4 1650.97,1350.44 1651.14,1350.5C1651.32,1350.56 1651.48,1350.66 1651.62,1350.79C1651.77,1350.92 1651.88,1351.09 1651.96,1351.32C1652.04,1351.54 1652.08,1351.8 1652.08,1352.09L1652.08,1363.93C1652.08,1364.35 1652.01,1364.71 1651.86,1365.01C1651.72,1365.31 1651.42,1365.58 1650.95,1365.81C1650.49,1366.04 1649.89,1366.3 1649.15,1366.57C1648.41,1366.84 1647.65,1367.08 1646.87,1367.27C1646.08,1367.46 1645.29,1367.6 1644.49,1367.7C1643.69,1367.8 1642.9,1367.84 1642.11,1367.84C1639.71,1367.84 1637.56,1367.47 1635.67,1366.72C1633.78,1365.98 1632.18,1364.92 1630.88,1363.54C1629.57,1362.17 1628.58,1360.52 1627.89,1358.6C1627.2,1356.67 1626.86,1354.53 1626.86,1352.16C1626.86,1349.69 1627.22,1347.46 1627.97,1345.46C1628.71,1343.45 1629.76,1341.75 1631.12,1340.34C1632.47,1338.93 1634.09,1337.83 1635.99,1337.05C1637.89,1336.28 1640,1335.89 1642.3,1335.89C1643.49,1335.89 1644.6,1336 1645.64,1336.21C1646.68,1336.41 1647.6,1336.65 1648.41,1336.93C1649.22,1337.21 1649.9,1337.52 1650.45,1337.85C1651.01,1338.18 1651.39,1338.45 1651.6,1338.66C1651.81,1338.87 1651.95,1339.11 1652.03,1339.38C1652.11,1339.65 1652.15,1340.04 1652.15,1340.55Z" style="fill:rgb(51,51,51);fill-rule:nonzero;"/>
    </g>
    <g transform="matrix(1,0,0,1,-1384.78,-987.413)">
        <path d="M1637.52,1117.37L1538.87,1055.54L1579.89,990.078L1678.55,1051.91L1637.52,1117.37Z" style="fill:none;stroke:rgb(51,51,51);stroke-width:5.33px;"/>
    </g>
    <g transform="matrix(1,0,0,1,-1384.78,-987.413)">
        <path d="M1579.9,990.078L1605.07,1059.47L1678.55,1051.91L1579.9,990.078Z" style="fill:rgb(150,192,251);fill-rule:nonzero;"/>
    </g>
    <g transform="matrix(1,0,0,1,-1384.78,-987.413)">
        <path d="M1579.9,990.078L1605.07,1059.47L1678.55,1051.91L1579.9,990.078Z" style="fill:none;stroke:rgb(51,51,51);stroke-width:5.33px;"/>
    </g>
    <g transform="matrix(1,0,0,1,-1384.78,-987.413)">
        <path d="M1387.45,1095.08C1387.45,1060.75 1415.28,1032.91 1449.62,1032.91L1449.62,1095.08L1387.45,1095.08Z" style="fill:rgb(80,200,180);fill-rule:nonzero;"/>
    </g>
    <g transform="matrix(1,0,0,1,-1384.78,-987.413)">
        <path d="M1466.48,1049.78C1500.82,1049.78 1528.65,1077.61 1528.65,1111.95C1528.65,1146.29 1500.82,1174.12 1466.48,1174.12C1432.14,1174.12 1404.31,1146.29 1404.31,1111.95L1466.48,1111.95L1466.48,1049.78Z" style="fill:rgb(221,234,251);fill-rule:nonzero;"/>
    </g>
    <g transform="matrix(1,0,0,1,-1384.78,-987.413)">
        <path d="M1387.45,1095.08C1387.45,1060.75 1415.28,1032.91 1449.62,1032.91L1449.62,1095.08L1387.45,1095.08Z" style="fill:none;stroke:rgb(51,51,51);stroke-width:5.33px;"/>
    </g>
    <g transform="matrix(1,0,0,1,-1384.78,-987.413)">
        <path d="M1466.48,1049.78C1500.82,1049.78 1528.65,1077.61 1528.65,1111.95C1528.65,1146.29 1500.82,1174.12 1466.48,1174.12C1432.14,1174.12 1404.31,1146.29 1404.31,1111.95L1466.48,1111.95L1466.48,1049.78Z" style="fill:none;stroke:rgb(51,51,51);stroke-width:5.33px;"/>
    </g>
    <g transform="matrix(1,0,0,1,-1384.78,-987.413)">
        <path d="M1598.92,1188.11C1598.92,1202.73 1587.07,1214.58 1572.45,1214.58C1557.83,1214.58 1545.98,1202.73 1545.98,1188.11C1545.98,1173.49 1557.83,1161.64 1572.45,1161.64C1587.07,1161.64 1598.92,1173.49 1598.92,1188.11Z" style="fill:none;stroke:rgb(51,51,51);stroke-width:5.33px;"/>
    </g>
    <g transform="matrix(1,0,0,1,-1384.78,-987.413)">
        <path d="M1608.71,1269.6L1536.2,1269.6L1536.2,1264.4C1536.2,1244.37 1552.43,1228.14 1572.45,1228.14C1592.47,1228.14 1608.71,1244.37 1608.71,1264.4L1608.71,1269.6Z" style="fill:rgb(251,192,85);fill-rule:nonzero;"/>
    </g>
    <g transform="matrix(1,0,0,1,-1384.78,-987.413)">
        <path d="M1608.71,1269.6L1536.2,1269.6L1536.2,1264.4C1536.2,1244.37 1552.43,1228.14 1572.45,1228.14C1592.47,1228.14 1608.71,1244.37 1608.71,1264.4L1608.71,1269.6Z" style="fill:none;stroke:rgb(51,51,51);stroke-width:5.33px;"/>
    </g>
    <g transform="matrix(1,0,0,1,-1384.78,-987.413)">
        <path d="M1664.57,1176.66C1664.57,1187.22 1656.01,1195.79 1645.44,1195.79C1634.88,1195.79 1626.31,1187.22 1626.31,1176.66C1626.31,1166.09 1634.88,1157.53 1645.44,1157.53C1656.01,1157.53 1664.57,1166.09 1664.57,1176.66Z" style="fill:none;stroke:rgb(51,51,51);stroke-width:5.33px;"/>
    </g>
    <g transform="matrix(1,0,0,1,-1384.78,-987.413)">
        <path d="M1671.65,1235.55L1619.24,1235.55L1619.24,1231.8C1619.24,1217.32 1630.97,1205.59 1645.44,1205.59C1659.91,1205.59 1671.65,1217.32 1671.65,1231.8L1671.65,1235.55Z" style="fill:rgb(232,234,237);fill-rule:nonzero;"/>
    </g>
    <g transform="matrix(1,0,0,1,-1384.78,-987.413)">
        <path d="M1671.65,1235.55L1619.24,1235.55L1619.24,1231.8C1619.24,1217.32 1630.97,1205.59 1645.44,1205.59C1659.91,1205.59 1671.65,1217.32 1671.65,1231.8L1671.65,1235.55Z" style="fill:none;stroke:rgb(51,51,51);stroke-width:5.33px;"/>
    </g>
    <g transform="matrix(1,0,0,1,-1384.78,-987.413)">
        <path d="M1512.86,1203C1512.86,1212.34 1505.29,1219.91 1495.95,1219.91C1486.6,1219.91 1479.03,1212.34 1479.03,1203C1479.03,1193.66 1486.6,1186.08 1495.95,1186.08C1505.29,1186.08 1512.86,1193.66 1512.86,1203Z" style="fill:none;stroke:rgb(51,51,51);stroke-width:5.33px;"/>
    </g>
    <g transform="matrix(1,0,0,1,-1384.78,-987.413)">
        <path d="M1519.11,1255.06L1472.78,1255.06L1472.78,1251.74C1472.78,1238.94 1483.15,1228.57 1495.95,1228.57C1508.74,1228.57 1519.11,1238.94 1519.11,1251.74L1519.11,1255.06Z" style="fill:rgb(232,234,237);fill-rule:nonzero;"/>
    </g>
    <g transform="matrix(1,0,0,1,-1384.78,-987.413)">
        <path d="M1519.11,1255.06L1472.78,1255.06L1472.78,1251.74C1472.78,1238.94 1483.15,1228.57 1495.95,1228.57C1508.74,1228.57 1519.11,1238.94 1519.11,1251.74L1519.11,1255.06Z" style="fill:none;stroke:rgb(51,51,51);stroke-width:5.33px;"/>
    </g>
</svg>
