<?xml version="1.0" encoding="UTF-8" standalone="no"?>
<!DOCTYPE svg PUBLIC "-//W3C//DTD SVG 1.1//EN" "http://www.w3.org/Graphics/SVG/1.1/DTD/svg11.dtd">
<svg width="100%" height="100%" viewBox="0 0 297 376" version="1.1" xmlns="http://www.w3.org/2000/svg" xmlns:xlink="http://www.w3.org/1999/xlink" xml:space="preserve" xmlns:serif="http://www.serif.com/" style="fill-rule:evenodd;clip-rule:evenodd;stroke-linecap:round;stroke-linejoin:round;stroke-miterlimit:2;">
    <g transform="matrix(1,0,0,1,-531.471,-992.478)">
        <path d="M569.443,1345.77C569.443,1344.5 569.203,1343.45 568.73,1342.6C568.257,1341.75 567.673,1341.12 566.976,1340.7C566.28,1340.28 565.559,1340.02 564.814,1339.91C564.069,1339.79 563.349,1339.74 562.644,1339.74L558.824,1339.74L558.824,1352.21L562.548,1352.21C563.797,1352.21 564.83,1352.05 565.655,1351.73C566.48,1351.41 567.176,1350.96 567.737,1350.39C568.297,1349.83 568.722,1349.14 569.01,1348.35C569.298,1347.55 569.443,1346.7 569.443,1345.77ZM573.791,1345.43C573.791,1346.98 573.535,1348.39 573.022,1349.64C572.51,1350.88 571.773,1351.95 570.82,1352.83C569.867,1353.71 568.698,1354.39 567.313,1354.87C565.927,1355.35 564.278,1355.59 562.356,1355.59L558.824,1355.59L558.824,1366.79C558.824,1366.92 558.784,1367.03 558.712,1367.12C558.64,1367.22 558.528,1367.3 558.376,1367.35C558.224,1367.41 558.016,1367.45 557.751,1367.49C557.487,1367.53 557.159,1367.56 556.758,1367.56C556.358,1367.56 556.021,1367.53 555.757,1367.49C555.493,1367.45 555.285,1367.41 555.125,1367.35C554.964,1367.3 554.853,1367.22 554.788,1367.12C554.724,1367.03 554.692,1366.92 554.692,1366.79L554.692,1338.1C554.692,1337.46 554.86,1337.01 555.197,1336.73C555.533,1336.46 555.91,1336.33 556.326,1336.33L562.98,1336.33C563.653,1336.33 564.293,1336.36 564.91,1336.41C565.527,1336.47 566.255,1336.59 567.096,1336.77C567.937,1336.96 568.794,1337.3 569.667,1337.8C570.54,1338.31 571.285,1338.93 571.893,1339.67C572.501,1340.4 572.966,1341.26 573.294,1342.22C573.623,1343.2 573.791,1344.26 573.791,1345.43Z" style="fill:rgb(51,51,51);fill-rule:nonzero;"/>
    </g>
    <g transform="matrix(1,0,0,1,-531.471,-992.478)">
        <path d="M594.619,1344.95C594.619,1343.73 594.347,1342.7 593.803,1341.87C593.258,1341.02 592.345,1340.42 591.064,1340.05C590.664,1339.94 590.207,1339.86 589.703,1339.81C589.198,1339.76 588.542,1339.74 587.725,1339.74L584.241,1339.74L584.241,1350.21L588.277,1350.21C589.366,1350.21 590.303,1350.08 591.096,1349.81C591.889,1349.56 592.553,1349.19 593.082,1348.71C593.61,1348.24 593.995,1347.68 594.243,1347.04C594.491,1346.4 594.619,1345.7 594.619,1344.95ZM600.841,1366.79C600.841,1366.92 600.817,1367.03 600.77,1367.12C600.721,1367.22 600.617,1367.3 600.457,1367.36C600.297,1367.43 600.073,1367.48 599.784,1367.51C599.496,1367.54 599.112,1367.56 598.631,1367.56C598.215,1367.56 597.871,1367.54 597.606,1367.51C597.342,1367.48 597.134,1367.43 596.974,1367.35C596.813,1367.28 596.686,1367.18 596.597,1367.05C596.509,1366.92 596.437,1366.76 596.373,1366.57L593.514,1359.25C593.178,1358.41 592.826,1357.64 592.465,1356.95C592.105,1356.25 591.681,1355.66 591.184,1355.14C590.688,1354.65 590.103,1354.26 589.43,1353.98C588.758,1353.7 587.949,1353.55 587.004,1353.55L584.241,1353.55L584.241,1366.79C584.241,1366.92 584.201,1367.03 584.129,1367.12C584.057,1367.22 583.945,1367.3 583.792,1367.35C583.641,1367.41 583.432,1367.45 583.168,1367.49C582.904,1367.53 582.576,1367.56 582.175,1367.56C581.775,1367.56 581.438,1367.53 581.174,1367.49C580.91,1367.45 580.702,1367.41 580.542,1367.35C580.381,1367.3 580.269,1367.22 580.205,1367.12C580.141,1367.03 580.109,1366.92 580.109,1366.79L580.109,1338.01C580.109,1337.38 580.269,1336.95 580.598,1336.69C580.926,1336.45 581.278,1336.33 581.646,1336.33L588.253,1336.33C589.038,1336.33 589.687,1336.35 590.207,1336.39C590.728,1336.43 591.2,1336.47 591.616,1336.52C592.817,1336.73 593.875,1337.05 594.795,1337.5C595.716,1337.95 596.493,1338.52 597.118,1339.21C597.742,1339.9 598.207,1340.68 598.519,1341.58C598.832,1342.46 598.992,1343.45 598.992,1344.52C598.992,1345.56 598.848,1346.5 598.567,1347.31C598.287,1348.15 597.887,1348.88 597.358,1349.51C596.83,1350.14 596.197,1350.68 595.46,1351.15C594.724,1351.61 593.898,1352.01 592.986,1352.33C593.498,1352.55 593.963,1352.84 594.379,1353.17C594.795,1353.53 595.18,1353.94 595.54,1354.42C595.9,1354.9 596.245,1355.45 596.565,1356.07C596.886,1356.7 597.206,1357.4 597.526,1358.19L600.313,1365.03C600.537,1365.61 600.681,1366.02 600.745,1366.24C600.81,1366.48 600.841,1366.66 600.841,1366.79Z" style="fill:rgb(51,51,51);fill-rule:nonzero;"/>
    </g>
    <g transform="matrix(1,0,0,1,-531.471,-992.478)">
        <path d="M628.012,1351.8C628.012,1350.04 627.852,1348.4 627.54,1346.88C627.227,1345.38 626.707,1344.06 625.986,1342.94C625.257,1341.84 624.28,1340.96 623.071,1340.34C621.854,1339.71 620.349,1339.4 618.555,1339.4C616.769,1339.4 615.264,1339.74 614.046,1340.41C612.829,1341.08 611.844,1341.98 611.083,1343.1C610.323,1344.22 609.778,1345.54 609.45,1347.02C609.122,1348.53 608.961,1350.1 608.961,1351.75C608.961,1353.58 609.113,1355.26 609.418,1356.79C609.722,1358.33 610.234,1359.66 610.947,1360.77C611.668,1361.89 612.637,1362.75 613.846,1363.36C615.047,1363.99 616.569,1364.29 618.387,1364.29C620.196,1364.29 621.718,1363.95 622.951,1363.28C624.176,1362.61 625.169,1361.7 625.922,1360.56C626.675,1359.41 627.211,1358.08 627.532,1356.58C627.852,1355.07 628.012,1353.48 628.012,1351.8ZM632.384,1351.51C632.384,1354.02 632.088,1356.29 631.496,1358.31C630.903,1360.33 630.014,1362.05 628.837,1363.46C627.66,1364.88 626.186,1365.97 624.409,1366.72C622.631,1367.48 620.557,1367.87 618.187,1367.87C615.848,1367.87 613.822,1367.52 612.116,1366.82C610.411,1366.13 609.001,1365.11 607.888,1363.79C606.775,1362.46 605.95,1360.81 605.406,1358.84C604.861,1356.87 604.589,1354.6 604.589,1352.04C604.589,1349.59 604.885,1347.36 605.478,1345.36C606.07,1343.36 606.959,1341.66 608.145,1340.25C609.33,1338.86 610.811,1337.78 612.589,1337.01C614.367,1336.25 616.44,1335.87 618.811,1335.87C621.101,1335.87 623.095,1336.21 624.793,1336.9C626.491,1337.59 627.9,1338.6 629.029,1339.91C630.158,1341.24 630.999,1342.88 631.551,1344.81C632.104,1346.77 632.384,1349 632.384,1351.51Z" style="fill:rgb(51,51,51);fill-rule:nonzero;"/>
    </g>
    <g transform="matrix(1,0,0,1,-531.471,-992.478)">
        <path d="M672.72,1366.79C672.72,1366.92 672.687,1367.03 672.616,1367.12C672.552,1367.22 672.439,1367.3 672.271,1367.35C672.103,1367.41 671.895,1367.45 671.639,1367.49C671.382,1367.53 671.054,1367.56 670.638,1367.56C670.261,1367.56 669.933,1367.53 669.661,1367.49C669.389,1367.45 669.172,1367.41 669.02,1367.35C668.86,1367.3 668.748,1367.22 668.684,1367.12C668.62,1367.03 668.588,1366.92 668.588,1366.79L668.588,1339.71L668.539,1339.71L657.585,1366.91C657.537,1367.02 657.465,1367.12 657.377,1367.2C657.289,1367.28 657.161,1367.35 656.992,1367.4C656.824,1367.45 656.624,1367.49 656.392,1367.52C656.16,1367.54 655.887,1367.56 655.567,1367.56C655.23,1367.56 654.942,1367.54 654.702,1367.51C654.462,1367.48 654.262,1367.43 654.102,1367.38C653.941,1367.32 653.813,1367.25 653.725,1367.17C653.637,1367.09 653.581,1367 653.549,1366.91L643.075,1339.71L643.051,1339.71L643.051,1366.79C643.051,1366.92 643.018,1367.03 642.947,1367.12C642.882,1367.22 642.77,1367.3 642.602,1367.35C642.434,1367.41 642.226,1367.45 641.961,1367.49C641.697,1367.53 641.361,1367.56 640.945,1367.56C640.552,1367.56 640.216,1367.53 639.959,1367.49C639.695,1367.45 639.479,1367.41 639.327,1367.35C639.167,1367.3 639.063,1367.22 639.007,1367.12C638.943,1367.03 638.918,1366.92 638.918,1366.79L638.918,1338.2C638.918,1337.53 639.095,1337.05 639.455,1336.76C639.808,1336.47 640.208,1336.33 640.648,1336.33L643.187,1336.33C643.707,1336.33 644.164,1336.37 644.548,1336.47C644.94,1336.57 645.285,1336.72 645.573,1336.93C645.87,1337.13 646.11,1337.4 646.31,1337.72C646.502,1338.04 646.67,1338.42 646.822,1338.85L655.711,1361.36L655.831,1361.36L665.08,1338.92C665.256,1338.44 665.449,1338.03 665.665,1337.7C665.873,1337.36 666.105,1337.09 666.361,1336.89C666.61,1336.69 666.89,1336.55 667.202,1336.45C667.515,1336.37 667.867,1336.33 668.275,1336.33L670.934,1336.33C671.182,1336.33 671.414,1336.36 671.631,1336.44C671.855,1336.5 672.039,1336.62 672.191,1336.77C672.352,1336.93 672.472,1337.12 672.567,1337.35C672.672,1337.58 672.72,1337.86 672.72,1338.2L672.72,1366.79Z" style="fill:rgb(51,51,51);fill-rule:nonzero;"/>
    </g>
    <g transform="matrix(1,0,0,1,-531.471,-992.478)">
        <path d="M702.653,1351.8C702.653,1350.04 702.493,1348.4 702.181,1346.88C701.868,1345.38 701.348,1344.06 700.627,1342.94C699.898,1341.84 698.921,1340.96 697.712,1340.34C696.495,1339.71 694.99,1339.4 693.196,1339.4C691.41,1339.4 689.905,1339.74 688.687,1340.41C687.47,1341.08 686.485,1341.98 685.725,1343.1C684.964,1344.22 684.419,1345.54 684.091,1347.02C683.763,1348.53 683.602,1350.1 683.602,1351.75C683.602,1353.58 683.754,1355.26 684.059,1356.79C684.363,1358.33 684.875,1359.66 685.588,1360.77C686.309,1361.89 687.278,1362.75 688.487,1363.36C689.688,1363.99 691.21,1364.29 693.028,1364.29C694.837,1364.29 696.359,1363.95 697.592,1363.28C698.817,1362.61 699.81,1361.7 700.563,1360.56C701.316,1359.41 701.852,1358.08 702.172,1356.58C702.493,1355.07 702.653,1353.48 702.653,1351.8ZM707.025,1351.51C707.025,1354.02 706.729,1356.29 706.136,1358.31C705.544,1360.33 704.655,1362.05 703.478,1363.46C702.301,1364.88 700.827,1365.97 699.049,1366.72C697.272,1367.48 695.198,1367.87 692.828,1367.87C690.489,1367.87 688.463,1367.52 686.757,1366.82C685.052,1366.13 683.643,1365.11 682.529,1363.79C681.416,1362.46 680.591,1360.81 680.047,1358.84C679.502,1356.87 679.23,1354.6 679.23,1352.04C679.23,1349.59 679.526,1347.36 680.119,1345.36C680.711,1343.36 681.601,1341.66 682.786,1340.25C683.971,1338.86 685.452,1337.78 687.23,1337.01C689.008,1336.25 691.081,1335.87 693.452,1335.87C695.742,1335.87 697.736,1336.21 699.434,1336.9C701.131,1337.59 702.541,1338.6 703.67,1339.91C704.799,1341.24 705.64,1342.88 706.192,1344.81C706.745,1346.77 707.025,1349 707.025,1351.51Z" style="fill:rgb(51,51,51);fill-rule:nonzero;"/>
    </g>
    <g transform="matrix(1,0,0,1,-531.471,-992.478)">
        <path d="M731.722,1338.1C731.722,1338.41 731.706,1338.67 731.673,1338.9C731.642,1339.12 731.585,1339.31 731.513,1339.43C731.441,1339.58 731.353,1339.67 731.249,1339.74C731.145,1339.8 731.033,1339.83 730.905,1339.83L722.16,1339.83L722.16,1366.79C722.16,1366.92 722.128,1367.03 722.064,1367.12C722,1367.22 721.888,1367.3 721.727,1367.35C721.567,1367.41 721.352,1367.45 721.087,1367.49C720.823,1367.53 720.495,1367.56 720.094,1367.56C719.71,1367.56 719.381,1367.53 719.109,1367.49C718.837,1367.45 718.621,1367.41 718.46,1367.35C718.3,1367.3 718.188,1367.22 718.124,1367.12C718.06,1367.03 718.028,1366.92 718.028,1366.79L718.028,1339.83L709.284,1339.83C709.155,1339.83 709.035,1339.8 708.931,1339.74C708.827,1339.67 708.747,1339.58 708.683,1339.43C708.619,1339.31 708.563,1339.12 708.523,1338.9C708.483,1338.67 708.467,1338.41 708.467,1338.1C708.467,1337.8 708.483,1337.54 708.523,1337.3C708.563,1337.07 708.619,1336.88 708.683,1336.73C708.747,1336.59 708.827,1336.49 708.931,1336.42C709.035,1336.36 709.155,1336.33 709.284,1336.33L730.905,1336.33C731.033,1336.33 731.145,1336.36 731.249,1336.42C731.353,1336.49 731.441,1336.59 731.513,1336.73C731.585,1336.88 731.642,1337.07 731.673,1337.3C731.706,1337.54 731.722,1337.8 731.722,1338.1Z" style="fill:rgb(51,51,51);fill-rule:nonzero;"/>
    </g>
    <g transform="matrix(1,0,0,1,-531.471,-992.478)">
        <path d="M740.346,1366.79C740.346,1366.92 740.314,1367.03 740.25,1367.12C740.185,1367.22 740.074,1367.3 739.914,1367.35C739.753,1367.41 739.537,1367.45 739.273,1367.49C739.009,1367.53 738.68,1367.56 738.28,1367.56C737.895,1367.56 737.567,1367.53 737.295,1367.49C737.022,1367.45 736.807,1367.41 736.646,1367.35C736.486,1367.3 736.374,1367.22 736.31,1367.12C736.246,1367.03 736.214,1366.92 736.214,1366.79L736.214,1336.95C736.214,1336.82 736.246,1336.71 736.318,1336.61C736.39,1336.52 736.51,1336.45 736.678,1336.39C736.847,1336.33 737.062,1336.29 737.327,1336.25C737.591,1336.21 737.912,1336.18 738.28,1336.18C738.68,1336.18 739.009,1336.21 739.273,1336.25C739.537,1336.29 739.753,1336.33 739.914,1336.39C740.074,1336.45 740.185,1336.52 740.25,1336.61C740.314,1336.71 740.346,1336.82 740.346,1336.95L740.346,1366.79Z" style="fill:rgb(51,51,51);fill-rule:nonzero;"/>
    </g>
    <g transform="matrix(1,0,0,1,-531.471,-992.478)">
        <path d="M770.279,1351.8C770.279,1350.04 770.119,1348.4 769.807,1346.88C769.495,1345.38 768.974,1344.06 768.253,1342.94C767.524,1341.84 766.547,1340.96 765.338,1340.34C764.121,1339.71 762.616,1339.4 760.822,1339.4C759.036,1339.4 757.531,1339.74 756.313,1340.41C755.096,1341.08 754.111,1341.98 753.351,1343.1C752.59,1344.22 752.045,1345.54 751.717,1347.02C751.389,1348.53 751.228,1350.1 751.228,1351.75C751.228,1353.58 751.381,1355.26 751.685,1356.79C751.989,1358.33 752.502,1359.66 753.214,1360.77C753.935,1361.89 754.904,1362.75 756.113,1363.36C757.314,1363.99 758.836,1364.29 760.654,1364.29C762.463,1364.29 763.985,1363.95 765.218,1363.28C766.443,1362.61 767.436,1361.7 768.189,1360.56C768.942,1359.41 769.478,1358.08 769.799,1356.58C770.119,1355.07 770.279,1353.48 770.279,1351.8ZM774.651,1351.51C774.651,1354.02 774.355,1356.29 773.763,1358.31C773.17,1360.33 772.281,1362.05 771.104,1363.46C769.927,1364.88 768.454,1365.97 766.676,1366.72C764.898,1367.48 762.824,1367.87 760.454,1367.87C758.115,1367.87 756.089,1367.52 754.384,1366.82C752.678,1366.13 751.268,1365.11 750.155,1363.79C749.042,1362.46 748.218,1360.81 747.673,1358.84C747.128,1356.87 746.856,1354.6 746.856,1352.04C746.856,1349.59 747.152,1347.36 747.745,1345.36C748.338,1343.36 749.227,1341.66 750.412,1340.25C751.597,1338.86 753.079,1337.78 754.856,1337.01C756.634,1336.25 758.708,1335.87 761.078,1335.87C763.369,1335.87 765.362,1336.21 767.06,1336.9C768.758,1337.59 770.167,1338.6 771.296,1339.91C772.425,1341.24 773.266,1342.88 773.819,1344.81C774.371,1346.77 774.651,1349 774.651,1351.51Z" style="fill:rgb(51,51,51);fill-rule:nonzero;"/>
    </g>
    <g transform="matrix(1,0,0,1,-531.471,-992.478)">
        <path d="M804.681,1365.71C804.681,1366.03 804.625,1366.3 804.52,1366.52C804.409,1366.75 804.272,1366.93 804.096,1367.08C803.92,1367.22 803.728,1367.32 803.512,1367.39C803.295,1367.45 803.079,1367.48 802.863,1367.48L801.502,1367.48C801.069,1367.48 800.693,1367.44 800.365,1367.35C800.044,1367.27 799.74,1367.11 799.452,1366.87C799.155,1366.64 798.867,1366.32 798.579,1365.92C798.29,1365.52 797.978,1365.01 797.658,1364.39L788.177,1346.7C787.68,1345.79 787.176,1344.84 786.671,1343.84C786.167,1342.84 785.702,1341.86 785.27,1340.92L785.222,1340.92C785.254,1342.07 785.278,1343.25 785.294,1344.45C785.31,1345.65 785.318,1346.84 785.318,1348.03L785.318,1366.79C785.318,1366.9 785.286,1367.01 785.214,1367.11C785.15,1367.22 785.03,1367.3 784.87,1367.35C784.709,1367.41 784.501,1367.45 784.237,1367.49C783.98,1367.53 783.644,1367.56 783.236,1367.56C782.828,1367.56 782.499,1367.53 782.235,1367.49C781.971,1367.45 781.77,1367.41 781.618,1367.35C781.466,1367.3 781.354,1367.22 781.282,1367.11C781.218,1367.01 781.186,1366.9 781.186,1366.79L781.186,1338.1C781.186,1337.46 781.362,1337.01 781.73,1336.73C782.091,1336.46 782.491,1336.33 782.923,1336.33L784.95,1336.33C785.43,1336.33 785.831,1336.37 786.159,1336.45C786.479,1336.53 786.768,1336.66 787.023,1336.84C787.28,1337.03 787.528,1337.29 787.768,1337.61C788.009,1337.94 788.257,1338.35 788.521,1338.85L795.808,1352.49C796.265,1353.33 796.697,1354.14 797.113,1354.94C797.53,1355.72 797.93,1356.51 798.323,1357.27C798.707,1358.04 799.091,1358.8 799.468,1359.55C799.844,1360.29 800.221,1361.04 800.597,1361.79L800.621,1361.79C800.589,1360.53 800.565,1359.21 800.557,1357.83C800.549,1356.47 800.549,1355.15 800.549,1353.89L800.549,1337.02C800.549,1336.91 800.581,1336.81 800.645,1336.71C800.717,1336.61 800.829,1336.53 800.989,1336.45C801.149,1336.39 801.366,1336.33 801.622,1336.3C801.886,1336.27 802.23,1336.25 802.647,1336.25C803.023,1336.25 803.344,1336.27 803.616,1336.3C803.888,1336.33 804.096,1336.39 804.248,1336.45C804.4,1336.53 804.513,1336.61 804.577,1336.71C804.649,1336.81 804.681,1336.91 804.681,1337.02L804.681,1365.71Z" style="fill:rgb(51,51,51);fill-rule:nonzero;"/>
    </g>
    <g transform="matrix(1,0,0,1,-531.471,-992.478)">
        <path d="M613.259,1172.78L638.562,1242.3C641.687,1250.89 637.26,1260.38 628.673,1263.51L628.634,1263.52C620.047,1266.65 610.552,1262.22 607.426,1253.63L581.504,1182.41" style="fill:rgb(221,234,251);fill-rule:nonzero;"/>
    </g>
    <g transform="matrix(1,0,0,1,-531.471,-992.478)">
        <path d="M696.983,1011.79L617.993,1075.59L564.858,1093.87C540.789,1102.16 528.188,1128.57 536.895,1152.49C545.601,1176.41 572.23,1188.54 595.993,1179.41L648.449,1159.27L749.81,1157.36L696.983,1011.79Z" style="fill:rgb(232,234,237);fill-rule:nonzero;"/>
    </g>
    <g transform="matrix(1,0,0,1,-531.471,-992.478)">
        <path d="M752.62,1073.97C767.328,1114.38 767.414,1151.45 752.812,1156.76C738.21,1162.08 714.45,1133.63 699.742,1093.22C685.034,1052.81 684.947,1015.74 699.549,1010.43C714.151,1005.11 737.912,1033.56 752.62,1073.97Z" style="fill:white;fill-rule:nonzero;"/>
    </g>
    <g transform="matrix(1,0,0,1,-531.471,-992.478)">
        <path d="M613.259,1172.78L638.562,1242.3C641.687,1250.89 637.26,1260.38 628.673,1263.51L628.634,1263.52C620.047,1266.65 610.552,1262.22 607.426,1253.63L581.504,1182.41" style="fill:none;stroke:rgb(51,51,51);stroke-width:5.33px;"/>
    </g>
    <g transform="matrix(1,0,0,1,-531.471,-992.478)">
        <path d="M696.983,1011.79L617.993,1075.59L564.859,1093.87C540.789,1102.16 528.188,1128.57 536.895,1152.49C545.601,1176.41 572.23,1188.54 595.993,1179.41L648.449,1159.27L749.81,1157.36" style="fill:none;stroke:rgb(51,51,51);stroke-width:5.33px;"/>
    </g>
    <g transform="matrix(1,0,0,1,-531.471,-992.478)">
        <path d="M752.62,1073.97C767.328,1114.38 767.414,1151.45 752.812,1156.76C738.21,1162.08 714.45,1133.63 699.742,1093.22C685.034,1052.81 684.947,1015.74 699.549,1010.43C714.151,1005.11 737.912,1033.56 752.62,1073.97Z" style="fill:none;stroke:rgb(51,51,51);stroke-width:5.33px;"/>
    </g>
    <g transform="matrix(1,0,0,1,-531.471,-992.478)">
        <path d="M642.549,1056.07L619.409,1074.6C609.308,1090.38 630.859,1151.67 650.168,1159.12L679.805,1158.43C656.416,1149.42 630.314,1075.19 642.549,1056.07Z" style="fill:rgb(251,192,85);fill-rule:nonzero;"/>
    </g>
    <g transform="matrix(1,0,0,1,-531.471,-992.478)">
        <path d="M642.549,1056.07L619.409,1074.6C609.308,1090.38 630.859,1151.67 650.168,1159.12L679.805,1158.43C656.416,1149.42 630.314,1075.19 642.549,1056.07Z" style="fill:none;stroke:rgb(51,51,51);stroke-width:5.33px;"/>
    </g>
    <g transform="matrix(1,0,0,1,-531.471,-992.478)">
        <path d="M715.822,1066.01C725.925,1062.34 737.095,1067.54 740.772,1077.65C744.449,1087.75 739.24,1098.92 729.138,1102.6" style="fill:none;stroke:rgb(51,51,51);stroke-width:5.33px;"/>
    </g>
    <g transform="matrix(1,0,0,1,-531.471,-992.478)">
        <path d="M628.232,1167.3L631.936,1177.47C634.948,1185.75 630.681,1194.9 622.406,1197.91" style="fill:none;stroke:rgb(51,51,51);stroke-width:5.33px;"/>
    </g>
    <g transform="matrix(1,0,0,1,-531.471,-992.478)">
        <path d="M775.68,1065.58L821.261,1048.99" style="fill:none;stroke:rgb(51,51,51);stroke-width:5.33px;"/>
    </g>
    <g transform="matrix(1,0,0,1,-531.471,-992.478)">
        <path d="M763.254,1031.44L781.269,995.143" style="fill:none;stroke:rgb(51,51,51);stroke-width:5.33px;"/>
    </g>
    <g transform="matrix(1,0,0,1,-531.471,-992.478)">
        <path d="M788.105,1099.72L825.237,1115.94" style="fill:none;stroke:rgb(51,51,51);stroke-width:5.33px;"/>
    </g>
</svg>
