<?xml version="1.0" encoding="UTF-8" standalone="no"?>
<!DOCTYPE svg PUBLIC "-//W3C//DTD SVG 1.1//EN" "http://www.w3.org/Graphics/SVG/1.1/DTD/svg11.dtd">
<svg width="100%" height="100%" viewBox="0 0 262 387" version="1.1" xmlns="http://www.w3.org/2000/svg" xmlns:xlink="http://www.w3.org/1999/xlink" xml:space="preserve" xmlns:serif="http://www.serif.com/" style="fill-rule:evenodd;clip-rule:evenodd;stroke-linecap:round;stroke-linejoin:round;stroke-miterlimit:2;">
    <g transform="matrix(1,0,0,1,-122.518,-981.618)">
        <path d="M209.716,1358.69C209.716,1360.15 209.452,1361.45 208.908,1362.58C208.379,1363.72 207.626,1364.68 206.682,1365.47C205.721,1366.27 204.6,1366.87 203.318,1367.27C202.021,1367.67 200.636,1367.87 199.146,1367.87C198.105,1367.87 197.136,1367.78 196.255,1367.6C195.358,1367.43 194.574,1367.21 193.869,1366.96C193.18,1366.7 192.587,1366.44 192.123,1366.16C191.643,1365.89 191.322,1365.66 191.13,1365.47C190.954,1365.27 190.81,1365.03 190.73,1364.73C190.634,1364.43 190.594,1364.04 190.594,1363.54C190.594,1363.19 190.61,1362.9 190.642,1362.66C190.674,1362.43 190.722,1362.25 190.786,1362.1C190.85,1361.96 190.93,1361.86 191.026,1361.8C191.122,1361.74 191.234,1361.72 191.362,1361.72C191.586,1361.72 191.899,1361.86 192.315,1362.13C192.716,1362.4 193.244,1362.7 193.885,1363.02C194.525,1363.34 195.294,1363.63 196.207,1363.91C197.104,1364.19 198.153,1364.34 199.338,1364.34C200.235,1364.34 201.06,1364.22 201.797,1363.98C202.549,1363.74 203.19,1363.39 203.719,1362.95C204.263,1362.51 204.671,1361.98 204.96,1361.33C205.248,1360.69 205.392,1359.97 205.392,1359.15C205.392,1358.27 205.192,1357.51 204.792,1356.89C204.391,1356.27 203.863,1355.71 203.206,1355.24C202.549,1354.77 201.797,1354.34 200.964,1353.94C200.115,1353.55 199.258,1353.15 198.377,1352.74C197.497,1352.33 196.64,1351.89 195.807,1351.39C194.974,1350.89 194.229,1350.31 193.573,1349.64C192.916,1348.96 192.379,1348.17 191.979,1347.26C191.563,1346.36 191.362,1345.28 191.362,1344.01C191.362,1342.72 191.595,1341.56 192.075,1340.54C192.54,1339.52 193.196,1338.67 194.045,1337.98C194.878,1337.29 195.887,1336.77 197.04,1336.41C198.209,1336.05 199.458,1335.87 200.804,1335.87C201.492,1335.87 202.181,1335.93 202.886,1336.05C203.574,1336.17 204.231,1336.33 204.855,1336.53C205.464,1336.73 206.017,1336.95 206.497,1337.2C206.978,1337.45 207.29,1337.65 207.45,1337.8C207.594,1337.95 207.698,1338.07 207.747,1338.16C207.794,1338.25 207.834,1338.36 207.867,1338.5C207.898,1338.63 207.923,1338.8 207.938,1338.99C207.955,1339.19 207.963,1339.43 207.963,1339.74C207.963,1340.03 207.947,1340.28 207.931,1340.51C207.898,1340.73 207.867,1340.92 207.818,1341.07C207.771,1341.22 207.707,1341.33 207.61,1341.4C207.53,1341.48 207.426,1341.52 207.314,1341.52C207.138,1341.52 206.857,1341.4 206.489,1341.18C206.105,1340.96 205.648,1340.7 205.104,1340.42C204.56,1340.14 203.911,1339.88 203.174,1339.65C202.421,1339.42 201.588,1339.31 200.66,1339.31C199.795,1339.31 199.042,1339.42 198.401,1339.65C197.761,1339.88 197.232,1340.19 196.816,1340.58C196.399,1340.96 196.087,1341.42 195.879,1341.95C195.671,1342.48 195.566,1343.04 195.566,1343.63C195.566,1344.49 195.767,1345.24 196.167,1345.86C196.567,1346.49 197.104,1347.04 197.761,1347.52C198.434,1348 199.186,1348.44 200.035,1348.84C200.884,1349.24 201.749,1349.64 202.629,1350.05C203.51,1350.46 204.375,1350.91 205.224,1351.4C206.073,1351.89 206.826,1352.46 207.498,1353.13C208.155,1353.79 208.699,1354.58 209.1,1355.48C209.516,1356.39 209.716,1357.46 209.716,1358.69Z" style="fill:rgb(51,51,51);fill-rule:nonzero;"/>
    </g>
    <g transform="matrix(1,0,0,1,-122.518,-981.618)">
        <path d="M234.773,1338.1C234.773,1338.41 234.757,1338.67 234.725,1338.9C234.693,1339.12 234.645,1339.3 234.565,1339.43C234.5,1339.57 234.405,1339.67 234.309,1339.74C234.196,1339.8 234.084,1339.83 233.956,1339.83L225.211,1339.83L225.211,1366.79C225.211,1366.92 225.18,1367.03 225.115,1367.12C225.051,1367.22 224.939,1367.29 224.779,1367.35C224.619,1367.4 224.411,1367.45 224.139,1367.49C223.882,1367.53 223.546,1367.56 223.146,1367.56C222.761,1367.56 222.433,1367.53 222.161,1367.49C221.888,1367.45 221.672,1367.4 221.512,1367.35C221.352,1367.29 221.24,1367.22 221.176,1367.12C221.111,1367.03 221.08,1366.92 221.08,1366.79L221.08,1339.83L212.335,1339.83C212.207,1339.83 212.095,1339.8 211.982,1339.74C211.887,1339.67 211.798,1339.57 211.734,1339.43C211.67,1339.3 211.614,1339.12 211.582,1338.9C211.534,1338.67 211.518,1338.41 211.518,1338.1C211.518,1337.8 211.534,1337.53 211.582,1337.29C211.614,1337.06 211.67,1336.88 211.734,1336.73C211.798,1336.59 211.887,1336.49 211.982,1336.42C212.095,1336.36 212.207,1336.33 212.335,1336.33L233.956,1336.33C234.084,1336.33 234.196,1336.36 234.309,1336.42C234.405,1336.49 234.5,1336.59 234.565,1336.73C234.645,1336.88 234.693,1337.06 234.725,1337.29C234.757,1337.53 234.773,1337.8 234.773,1338.1Z" style="fill:rgb(51,51,51);fill-rule:nonzero;"/>
    </g>
    <g transform="matrix(1,0,0,1,-122.518,-981.618)">
        <path d="M259.54,1351.8C259.54,1350.04 259.389,1348.39 259.069,1346.88C258.764,1345.37 258.236,1344.05 257.515,1342.94C256.786,1341.83 255.817,1340.96 254.6,1340.34C253.383,1339.71 251.877,1339.4 250.084,1339.4C248.298,1339.4 246.792,1339.74 245.576,1340.41C244.366,1341.08 243.374,1341.98 242.613,1343.1C241.852,1344.22 241.307,1345.53 240.987,1347.02C240.651,1348.52 240.491,1350.1 240.491,1351.75C240.491,1353.58 240.643,1355.26 240.947,1356.79C241.251,1358.33 241.764,1359.65 242.477,1360.77C243.197,1361.88 244.166,1362.74 245.375,1363.36C246.577,1363.98 248.098,1364.29 249.924,1364.29C251.726,1364.29 253.247,1363.95 254.48,1363.28C255.706,1362.61 256.698,1361.7 257.45,1360.55C258.204,1359.41 258.739,1358.08 259.061,1356.58C259.381,1355.07 259.54,1353.48 259.54,1351.8ZM263.914,1351.51C263.914,1354.02 263.617,1356.29 263.024,1358.31C262.432,1360.33 261.551,1362.04 260.366,1363.46C259.196,1364.87 257.715,1365.96 255.937,1366.72C254.16,1367.48 252.086,1367.87 249.715,1367.87C247.377,1367.87 245.359,1367.52 243.646,1366.82C241.948,1366.12 240.539,1365.11 239.417,1363.79C238.313,1362.46 237.479,1360.81 236.935,1358.84C236.391,1356.87 236.118,1354.6 236.118,1352.04C236.118,1349.59 236.415,1347.36 237.007,1345.36C237.6,1343.36 238.489,1341.65 239.674,1340.25C240.859,1338.85 242.34,1337.77 244.118,1337.01C245.896,1336.25 247.97,1335.87 250.34,1335.87C252.63,1335.87 254.624,1336.21 256.321,1336.9C258.019,1337.59 259.437,1338.59 260.558,1339.91C261.695,1341.24 262.528,1342.87 263.089,1344.81C263.633,1346.76 263.914,1349 263.914,1351.51Z" style="fill:rgb(51,51,51);fill-rule:nonzero;"/>
    </g>
    <g transform="matrix(1,0,0,1,-122.518,-981.618)">
        <path d="M284.958,1344.95C284.958,1343.73 284.686,1342.7 284.141,1341.86C283.597,1341.02 282.684,1340.42 281.402,1340.05C281.002,1339.94 280.546,1339.86 280.049,1339.81C279.537,1339.76 278.88,1339.74 278.063,1339.74L274.58,1339.74L274.58,1350.21L278.616,1350.21C279.705,1350.21 280.642,1350.08 281.442,1349.81C282.228,1349.55 282.892,1349.18 283.42,1348.71C283.949,1348.23 284.341,1347.68 284.582,1347.04C284.838,1346.4 284.958,1345.7 284.958,1344.95ZM291.18,1366.79C291.18,1366.92 291.156,1367.03 291.108,1367.12C291.06,1367.22 290.956,1367.3 290.796,1367.36C290.636,1367.43 290.411,1367.48 290.123,1367.51C289.835,1367.54 289.45,1367.56 288.97,1367.56C288.554,1367.56 288.217,1367.54 287.945,1367.51C287.688,1367.48 287.473,1367.42 287.312,1367.35C287.152,1367.28 287.032,1367.18 286.936,1367.05C286.856,1366.92 286.776,1366.76 286.712,1366.57L283.853,1359.25C283.517,1358.41 283.172,1357.64 282.804,1356.95C282.452,1356.25 282.019,1355.65 281.522,1355.14C281.026,1354.64 280.441,1354.25 279.769,1353.97C279.096,1353.69 278.288,1353.55 277.343,1353.55L274.58,1353.55L274.58,1366.79C274.58,1366.92 274.54,1367.03 274.476,1367.12C274.395,1367.22 274.284,1367.29 274.14,1367.35C273.979,1367.4 273.771,1367.45 273.515,1367.49C273.243,1367.53 272.914,1367.56 272.514,1367.56C272.113,1367.56 271.785,1367.53 271.513,1367.49C271.257,1367.45 271.04,1367.4 270.88,1367.35C270.72,1367.29 270.608,1367.22 270.544,1367.12C270.48,1367.03 270.448,1366.92 270.448,1366.79L270.448,1338.01C270.448,1337.38 270.616,1336.94 270.936,1336.69C271.272,1336.45 271.617,1336.33 271.985,1336.33L278.592,1336.33C279.376,1336.33 280.033,1336.34 280.546,1336.38C281.074,1336.42 281.539,1336.47 281.955,1336.52C283.156,1336.73 284.213,1337.05 285.142,1337.5C286.055,1337.95 286.832,1338.52 287.457,1339.21C288.081,1339.9 288.554,1340.68 288.858,1341.57C289.178,1342.46 289.33,1343.45 289.33,1344.52C289.33,1345.56 289.194,1346.49 288.906,1347.31C288.634,1348.14 288.225,1348.87 287.697,1349.5C287.168,1350.13 286.536,1350.68 285.799,1351.15C285.062,1351.61 284.237,1352.01 283.324,1352.33C283.837,1352.55 284.301,1352.83 284.718,1353.17C285.134,1353.52 285.526,1353.94 285.879,1354.42C286.247,1354.9 286.583,1355.45 286.904,1356.07C287.224,1356.7 287.544,1357.4 287.865,1358.19L290.651,1365.03C290.876,1365.61 291.02,1366.01 291.084,1366.24C291.148,1366.48 291.18,1366.66 291.18,1366.79Z" style="fill:rgb(51,51,51);fill-rule:nonzero;"/>
    </g>
    <g transform="matrix(1,0,0,1,-122.518,-981.618)">
        <path d="M306.339,1355.33L306.339,1366.79C306.339,1366.92 306.307,1367.03 306.243,1367.12C306.179,1367.22 306.067,1367.29 305.915,1367.35C305.754,1367.4 305.53,1367.45 305.266,1367.49C304.994,1367.53 304.665,1367.56 304.281,1367.56C303.889,1367.56 303.56,1367.53 303.288,1367.49C303.032,1367.45 302.815,1367.4 302.647,1367.35C302.487,1367.29 302.367,1367.22 302.303,1367.12C302.239,1367.03 302.207,1366.92 302.207,1366.79L302.207,1355.33L293.415,1337.79C293.238,1337.42 293.134,1337.13 293.086,1336.93C293.054,1336.72 293.086,1336.56 293.214,1336.45C293.326,1336.33 293.55,1336.26 293.855,1336.23C294.175,1336.2 294.591,1336.18 295.12,1336.18C295.601,1336.18 295.985,1336.2 296.289,1336.23C296.578,1336.26 296.818,1336.3 296.994,1336.36C297.17,1336.41 297.298,1336.49 297.394,1336.6C297.474,1336.7 297.562,1336.84 297.643,1337L301.943,1345.94C302.343,1346.78 302.744,1347.67 303.144,1348.6C303.536,1349.53 303.945,1350.47 304.361,1351.41L304.409,1351.41C304.77,1350.5 305.146,1349.59 305.538,1348.68C305.931,1347.78 306.323,1346.89 306.723,1346.01L311.047,1337.02C311.096,1336.86 311.167,1336.73 311.248,1336.61C311.344,1336.5 311.456,1336.41 311.616,1336.36C311.76,1336.3 311.977,1336.26 312.249,1336.23C312.521,1336.2 312.865,1336.18 313.282,1336.18C313.858,1336.18 314.307,1336.2 314.643,1336.24C314.963,1336.28 315.196,1336.36 315.324,1336.47C315.452,1336.58 315.492,1336.74 315.46,1336.95C315.412,1337.16 315.308,1337.44 315.131,1337.79L306.339,1355.33Z" style="fill:rgb(51,51,51);fill-rule:nonzero;"/>
    </g>
    <g transform="matrix(1,0,0,1,-122.518,-981.618)">
        <path d="M253.032,1150.36C221.106,1124.49 162.332,1118.8 125.183,1122.93L125.183,1253.32C180.777,1247.14 219.71,1255.48 239.053,1261.39C239.053,1269.12 245.316,1275.38 253.042,1275.38L253.096,1275.38C260.821,1275.38 267.086,1269.12 267.086,1261.39L267.086,1261.37C286.451,1255.46 325.353,1247.15 380.882,1253.32L380.882,1122.93C343.732,1118.8 284.958,1124.49 253.032,1150.36Z" style="fill:rgb(221,234,251);fill-rule:nonzero;"/>
    </g>
    <g transform="matrix(1,0,0,1,-122.518,-981.618)">
        <path d="M253.032,1150.36C221.106,1124.49 162.332,1118.8 125.183,1122.93L125.183,1253.32C180.777,1247.14 219.71,1255.48 239.053,1261.39C239.053,1269.12 245.316,1275.38 253.042,1275.38L253.096,1275.38C260.821,1275.38 267.086,1269.12 267.086,1261.39L267.086,1261.37C286.451,1255.46 325.353,1247.15 380.882,1253.32L380.882,1122.93C343.732,1118.8 284.958,1124.49 253.032,1150.36Z" style="fill:none;stroke:rgb(51,51,51);stroke-width:5.33px;"/>
    </g>
    <g transform="matrix(1,0,0,1,-122.518,-981.618)">
        <path d="M138.964,1108.57L138.964,1235.58C164.466,1234.41 214.867,1232.49 253.069,1258.96L253.069,1133.08C221.156,1107.17 176.133,1104.44 138.964,1108.57Z" style="fill:rgb(150,192,251);fill-rule:nonzero;"/>
    </g>
    <g transform="matrix(1,0,0,1,-122.518,-981.618)">
        <path d="M367.143,1108.57L367.143,1235.58C341.64,1234.41 291.239,1232.49 253.037,1258.96L253.037,1133.08C284.951,1107.17 329.973,1104.44 367.143,1108.57Z" style="fill:rgb(150,192,251);fill-rule:nonzero;"/>
    </g>
    <g transform="matrix(1,0,0,1,-122.518,-981.618)">
        <path d="M138.964,1108.57L138.964,1235.58C164.466,1234.41 214.867,1232.49 253.069,1258.96L253.069,1133.08C221.156,1107.17 176.133,1104.44 138.964,1108.57Z" style="fill:none;stroke:rgb(51,51,51);stroke-width:5.33px;"/>
    </g>
    <g transform="matrix(1,0,0,1,-122.518,-981.618)">
        <path d="M367.143,1108.57L367.143,1235.58C341.64,1234.41 291.239,1232.49 253.037,1258.96L253.037,1133.08C284.951,1107.17 329.973,1104.44 367.143,1108.57Z" style="fill:none;stroke:rgb(51,51,51);stroke-width:5.33px;"/>
    </g>
    <g transform="matrix(1,0,0,1,-122.518,-981.618)">
        <path d="M153.606,1092.52L153.606,1217.31C193.185,1214.94 233.17,1231.08 253.069,1256.71L253.069,1115.51C221.156,1089.61 190.776,1088.39 153.606,1092.52Z" style="fill:rgb(232,234,237);fill-rule:nonzero;"/>
    </g>
    <g transform="matrix(1,0,0,1,-122.518,-981.618)">
        <path d="M352.5,1092.52L352.5,1217.31C312.921,1214.94 272.936,1231.08 253.037,1256.71L253.037,1115.51C284.951,1089.61 315.33,1088.39 352.5,1092.52Z" style="fill:rgb(232,234,237);fill-rule:nonzero;"/>
    </g>
    <g transform="matrix(1,0,0,1,-122.518,-981.618)">
        <path d="M153.606,1092.52L153.606,1217.31C193.185,1214.94 233.17,1231.08 253.069,1256.71L253.069,1115.51C221.156,1089.61 190.776,1088.39 153.606,1092.52Z" style="fill:none;stroke:rgb(51,51,51);stroke-width:5.33px;"/>
    </g>
    <g transform="matrix(1,0,0,1,-122.518,-981.618)">
        <path d="M352.5,1092.52L352.5,1217.31C312.921,1214.94 272.936,1231.08 253.037,1256.71L253.037,1115.51C284.951,1089.61 315.33,1088.39 352.5,1092.52Z" style="fill:none;stroke:rgb(51,51,51);stroke-width:5.33px;"/>
    </g>
    <g transform="matrix(1,0,0,1,-122.518,-981.618)">
        <path d="M200.131,999.933L224.639,1067.27" style="fill:none;stroke:rgb(51,51,51);stroke-width:5.33px;"/>
    </g>
    <g transform="matrix(1,0,0,1,-122.518,-981.618)">
        <path d="M160.786,1035.35L187.206,1064.47" style="fill:none;stroke:rgb(51,51,51);stroke-width:5.33px;"/>
    </g>
    <g transform="matrix(1,0,0,1,-122.518,-981.618)">
        <path d="M345.295,1035.29L319.412,1064.47" style="fill:none;stroke:rgb(51,51,51);stroke-width:5.33px;"/>
    </g>
    <g transform="matrix(1,0,0,1,-122.518,-981.618)">
        <path d="M305.923,999.933L281.415,1067.27" style="fill:none;stroke:rgb(51,51,51);stroke-width:5.33px;"/>
    </g>
    <g transform="matrix(1,0,0,1,-122.518,-981.618)">
        <path d="M253.03,1053.74L253.03,1082.28" style="fill:none;stroke:rgb(51,51,51);stroke-width:5.33px;"/>
    </g>
    <g transform="matrix(1,0,0,1,-122.518,-981.618)">
        <path d="M253.03,984.283L253.03,1013.29" style="fill:none;stroke:rgb(51,51,51);stroke-width:5.33px;"/>
    </g>
    <g transform="matrix(1,0,0,1,-122.518,-981.618)">
        <path d="M253.03,1029.03L253.03,1037.76" style="fill:none;stroke:rgb(51,51,51);stroke-width:5.33px;"/>
    </g>
</svg>
