<?xml version="1.0" encoding="UTF-8" standalone="no"?>
<!DOCTYPE svg PUBLIC "-//W3C//DTD SVG 1.1//EN" "http://www.w3.org/Graphics/SVG/1.1/DTD/svg11.dtd">
<svg width="100%" height="100%" viewBox="0 0 274 387" version="1.1" xmlns="http://www.w3.org/2000/svg" xmlns:xlink="http://www.w3.org/1999/xlink" xml:space="preserve" xmlns:serif="http://www.serif.com/" style="fill-rule:evenodd;clip-rule:evenodd;stroke-linecap:round;stroke-linejoin:round;stroke-miterlimit:2;">
    <g transform="matrix(1,0,0,1,-969.442,-981.622)">
        <path d="M1027.07,1358.69C1027.07,1360.15 1026.81,1361.45 1026.27,1362.58C1025.74,1363.72 1024.99,1364.68 1024.04,1365.47C1023.08,1366.27 1021.96,1366.87 1020.67,1367.27C1019.39,1367.67 1017.99,1367.87 1016.5,1367.87C1015.46,1367.87 1014.5,1367.78 1013.61,1367.6C1012.72,1367.43 1011.93,1367.21 1011.23,1366.96C1010.54,1366.7 1009.95,1366.44 1009.48,1366.16C1009.01,1365.89 1008.68,1365.66 1008.49,1365.47C1008.31,1365.27 1008.17,1365.03 1008.09,1364.73C1008,1364.43 1007.95,1364.04 1007.95,1363.54C1007.95,1363.19 1007.97,1362.9 1008,1362.66C1008.03,1362.43 1008.08,1362.25 1008.14,1362.1C1008.21,1361.96 1008.29,1361.86 1008.38,1361.8C1008.48,1361.74 1008.59,1361.72 1008.72,1361.72C1008.94,1361.72 1009.26,1361.86 1009.67,1362.13C1010.08,1362.4 1010.6,1362.7 1011.24,1363.02C1011.88,1363.34 1012.66,1363.63 1013.56,1363.91C1014.47,1364.19 1015.51,1364.34 1016.69,1364.34C1017.59,1364.34 1018.42,1364.22 1019.16,1363.98C1019.91,1363.74 1020.55,1363.39 1021.08,1362.95C1021.62,1362.51 1022.03,1361.98 1022.32,1361.33C1022.6,1360.69 1022.75,1359.97 1022.75,1359.15C1022.75,1358.27 1022.55,1357.51 1022.15,1356.89C1021.75,1356.27 1021.22,1355.71 1020.56,1355.24C1019.91,1354.77 1019.16,1354.34 1018.32,1353.94C1017.48,1353.55 1016.61,1353.15 1015.73,1352.74C1014.85,1352.33 1014,1351.89 1013.16,1351.39C1012.33,1350.89 1011.59,1350.31 1010.93,1349.64C1010.27,1348.96 1009.74,1348.17 1009.34,1347.26C1008.93,1346.36 1008.72,1345.28 1008.72,1344.01C1008.72,1342.72 1008.96,1341.56 1009.43,1340.54C1009.9,1339.52 1010.56,1338.67 1011.4,1337.98C1012.24,1337.29 1013.24,1336.77 1014.4,1336.41C1015.57,1336.05 1016.81,1335.87 1018.16,1335.87C1018.85,1335.87 1019.55,1335.93 1020.24,1336.05C1020.94,1336.17 1021.6,1336.33 1022.21,1336.53C1022.83,1336.73 1023.37,1336.95 1023.85,1337.2C1024.33,1337.45 1024.65,1337.65 1024.81,1337.8C1024.96,1337.95 1025.05,1338.07 1025.1,1338.16C1025.15,1338.25 1025.19,1338.36 1025.22,1338.5C1025.25,1338.63 1025.28,1338.8 1025.29,1338.99C1025.31,1339.19 1025.32,1339.43 1025.32,1339.74C1025.32,1340.03 1025.31,1340.28 1025.29,1340.51C1025.26,1340.73 1025.22,1340.92 1025.17,1341.07C1025.13,1341.22 1025.06,1341.33 1024.97,1341.4C1024.89,1341.48 1024.78,1341.52 1024.67,1341.52C1024.49,1341.52 1024.22,1341.4 1023.85,1341.18C1023.47,1340.96 1023,1340.7 1022.46,1340.42C1021.92,1340.14 1021.27,1339.88 1020.53,1339.65C1019.79,1339.42 1018.94,1339.31 1018.02,1339.31C1017.15,1339.31 1016.4,1339.42 1015.76,1339.65C1015.12,1339.88 1014.59,1340.19 1014.17,1340.58C1013.76,1340.96 1013.44,1341.42 1013.23,1341.95C1013.03,1342.48 1012.92,1343.04 1012.92,1343.63C1012.92,1344.49 1013.12,1345.24 1013.52,1345.86C1013.92,1346.49 1014.46,1347.04 1015.12,1347.52C1015.79,1348 1016.54,1348.44 1017.39,1348.84C1018.24,1349.24 1019.1,1349.64 1019.99,1350.05C1020.87,1350.46 1021.73,1350.91 1022.58,1351.4C1023.43,1351.89 1024.19,1352.46 1024.85,1353.13C1025.52,1353.79 1026.06,1354.58 1026.46,1355.48C1026.87,1356.39 1027.07,1357.46 1027.07,1358.69Z" style="fill:rgb(51,51,51);fill-rule:nonzero;"/>
    </g>
    <g transform="matrix(1,0,0,1,-969.442,-981.622)">
        <path d="M1052.13,1338.1C1052.13,1338.41 1052.11,1338.67 1052.08,1338.9C1052.05,1339.12 1052,1339.3 1051.93,1339.43C1051.86,1339.57 1051.77,1339.67 1051.66,1339.74C1051.56,1339.8 1051.44,1339.83 1051.31,1339.83L1042.57,1339.83L1042.57,1366.79C1042.57,1366.92 1042.54,1367.03 1042.47,1367.12C1042.41,1367.22 1042.3,1367.29 1042.14,1367.35C1041.97,1367.4 1041.77,1367.45 1041.5,1367.49C1041.24,1367.53 1040.9,1367.56 1040.5,1367.56C1040.12,1367.56 1039.79,1367.53 1039.52,1367.49C1039.24,1367.45 1039.03,1367.4 1038.87,1367.35C1038.71,1367.29 1038.6,1367.22 1038.53,1367.12C1038.47,1367.03 1038.44,1366.92 1038.44,1366.79L1038.44,1339.83L1029.69,1339.83C1029.56,1339.83 1029.45,1339.8 1029.35,1339.74C1029.24,1339.67 1029.15,1339.57 1029.09,1339.43C1029.03,1339.3 1028.98,1339.12 1028.94,1338.9C1028.9,1338.67 1028.87,1338.41 1028.87,1338.1C1028.87,1337.8 1028.9,1337.53 1028.94,1337.29C1028.98,1337.06 1029.03,1336.88 1029.09,1336.73C1029.15,1336.59 1029.24,1336.49 1029.35,1336.42C1029.45,1336.36 1029.56,1336.33 1029.69,1336.33L1051.31,1336.33C1051.44,1336.33 1051.56,1336.36 1051.66,1336.42C1051.77,1336.49 1051.86,1336.59 1051.93,1336.73C1052,1336.88 1052.05,1337.06 1052.08,1337.29C1052.11,1337.53 1052.13,1337.8 1052.13,1338.1Z" style="fill:rgb(51,51,51);fill-rule:nonzero;"/>
    </g>
    <g transform="matrix(1,0,0,1,-969.442,-981.622)">
        <path d="M1071.13,1344.95C1071.13,1343.73 1070.86,1342.7 1070.31,1341.86C1069.77,1341.02 1068.86,1340.42 1067.58,1340.05C1067.18,1339.94 1066.73,1339.86 1066.22,1339.81C1065.72,1339.76 1065.05,1339.74 1064.24,1339.74L1060.75,1339.74L1060.75,1350.21L1064.79,1350.21C1065.88,1350.21 1066.82,1350.08 1067.62,1349.81C1068.41,1349.55 1069.07,1349.18 1069.59,1348.71C1070.12,1348.23 1070.52,1347.68 1070.76,1347.04C1071.01,1346.4 1071.13,1345.7 1071.13,1344.95ZM1077.35,1366.79C1077.35,1366.92 1077.33,1367.03 1077.28,1367.12C1077.23,1367.22 1077.13,1367.3 1076.97,1367.36C1076.81,1367.43 1076.58,1367.48 1076.3,1367.51C1076.01,1367.54 1075.62,1367.56 1075.14,1367.56C1074.73,1367.56 1074.39,1367.54 1074.13,1367.51C1073.86,1367.48 1073.65,1367.42 1073.49,1367.35C1073.33,1367.28 1073.21,1367.18 1073.12,1367.05C1073.03,1366.92 1072.95,1366.76 1072.89,1366.57L1070.03,1359.25C1069.69,1358.41 1069.35,1357.64 1068.99,1356.95C1068.63,1356.25 1068.19,1355.65 1067.7,1355.14C1067.2,1354.64 1066.62,1354.25 1065.94,1353.97C1065.27,1353.69 1064.46,1353.55 1063.52,1353.55L1060.75,1353.55L1060.75,1366.79C1060.75,1366.92 1060.72,1367.03 1060.65,1367.12C1060.58,1367.22 1060.47,1367.29 1060.31,1367.35C1060.16,1367.4 1059.95,1367.45 1059.69,1367.49C1059.42,1367.53 1059.09,1367.56 1058.69,1367.56C1058.29,1367.56 1057.96,1367.53 1057.69,1367.49C1057.43,1367.45 1057.21,1367.4 1057.05,1367.35C1056.89,1367.29 1056.78,1367.22 1056.72,1367.12C1056.65,1367.03 1056.62,1366.92 1056.62,1366.79L1056.62,1338.01C1056.62,1337.38 1056.79,1336.94 1057.12,1336.69C1057.45,1336.45 1057.79,1336.33 1058.16,1336.33L1064.77,1336.33C1065.55,1336.33 1066.21,1336.34 1066.73,1336.38C1067.25,1336.42 1067.71,1336.47 1068.13,1336.52C1069.33,1336.73 1070.39,1337.05 1071.32,1337.5C1072.24,1337.95 1073.01,1338.52 1073.63,1339.21C1074.25,1339.9 1074.73,1340.68 1075.04,1341.57C1075.35,1342.46 1075.5,1343.45 1075.5,1344.52C1075.5,1345.56 1075.37,1346.49 1075.09,1347.31C1074.81,1348.14 1074.4,1348.87 1073.87,1349.5C1073.34,1350.13 1072.71,1350.68 1071.97,1351.15C1071.24,1351.61 1070.41,1352.01 1069.5,1352.33C1070.01,1352.55 1070.47,1352.83 1070.89,1353.17C1071.31,1353.52 1071.7,1353.94 1072.06,1354.42C1072.42,1354.9 1072.76,1355.45 1073.08,1356.07C1073.4,1356.7 1073.72,1357.4 1074.04,1358.19L1076.83,1365.03C1077.05,1365.61 1077.19,1366.01 1077.26,1366.24C1077.32,1366.48 1077.35,1366.66 1077.35,1366.79Z" style="fill:rgb(51,51,51);fill-rule:nonzero;"/>
    </g>
    <g transform="matrix(1,0,0,1,-969.442,-981.622)">
        <path d="M1093.23,1340.46L1093.21,1340.46L1087.85,1355.95L1098.66,1355.95L1093.23,1340.46ZM1106.61,1365.95C1106.74,1366.3 1106.81,1366.58 1106.82,1366.8C1106.83,1367.01 1106.77,1367.18 1106.64,1367.29C1106.51,1367.4 1106.3,1367.48 1106.01,1367.51C1105.71,1367.54 1105.31,1367.56 1104.81,1367.56C1104.32,1367.56 1103.92,1367.54 1103.63,1367.52C1103.33,1367.49 1103.11,1367.45 1102.95,1367.4C1102.8,1367.34 1102.69,1367.27 1102.62,1367.17C1102.55,1367.08 1102.47,1366.96 1102.41,1366.81L1099.74,1359.25L1086.82,1359.25L1084.27,1366.72C1084.22,1366.86 1084.16,1366.98 1084.08,1367.08C1084,1367.19 1083.89,1367.28 1083.74,1367.35C1083.58,1367.42 1083.37,1367.48 1083.09,1367.51C1082.81,1367.54 1082.44,1367.56 1081.99,1367.56C1081.53,1367.56 1081.15,1367.53 1080.85,1367.49C1080.56,1367.45 1080.35,1367.38 1080.23,1367.27C1080.11,1367.16 1080.05,1366.99 1080.06,1366.77C1080.07,1366.56 1080.13,1366.28 1080.26,1365.92L1090.69,1337.05C1090.75,1336.87 1090.84,1336.73 1090.94,1336.61C1091.05,1336.5 1091.2,1336.41 1091.4,1336.35C1091.6,1336.29 1091.86,1336.24 1092.17,1336.21C1092.48,1336.19 1092.87,1336.18 1093.35,1336.18C1093.87,1336.18 1094.29,1336.19 1094.63,1336.21C1094.96,1336.24 1095.24,1336.29 1095.44,1336.35C1095.65,1336.41 1095.81,1336.5 1095.92,1336.62C1096.04,1336.74 1096.12,1336.89 1096.19,1337.07L1106.61,1365.95Z" style="fill:rgb(51,51,51);fill-rule:nonzero;"/>
    </g>
    <g transform="matrix(1,0,0,1,-969.442,-981.622)">
        <path d="M1127.44,1338.1C1127.44,1338.41 1127.43,1338.67 1127.39,1338.9C1127.36,1339.12 1127.31,1339.3 1127.24,1339.43C1127.17,1339.57 1127.08,1339.67 1126.98,1339.74C1126.87,1339.8 1126.75,1339.83 1126.63,1339.83L1117.88,1339.83L1117.88,1366.79C1117.88,1366.92 1117.85,1367.03 1117.79,1367.12C1117.72,1367.22 1117.61,1367.29 1117.45,1367.35C1117.29,1367.4 1117.08,1367.45 1116.82,1367.49C1116.55,1367.53 1116.22,1367.56 1115.82,1367.56C1115.43,1367.56 1115.1,1367.53 1114.83,1367.49C1114.56,1367.45 1114.34,1367.4 1114.18,1367.35C1114.02,1367.29 1113.91,1367.22 1113.85,1367.12C1113.78,1367.03 1113.75,1366.92 1113.75,1366.79L1113.75,1339.83L1105,1339.83C1104.88,1339.83 1104.76,1339.8 1104.66,1339.74C1104.56,1339.67 1104.47,1339.57 1104.4,1339.43C1104.34,1339.3 1104.29,1339.12 1104.25,1338.9C1104.21,1338.67 1104.19,1338.41 1104.19,1338.1C1104.19,1337.8 1104.21,1337.53 1104.25,1337.29C1104.29,1337.06 1104.34,1336.88 1104.4,1336.73C1104.47,1336.59 1104.56,1336.49 1104.66,1336.42C1104.76,1336.36 1104.88,1336.33 1105,1336.33L1126.63,1336.33C1126.75,1336.33 1126.87,1336.36 1126.98,1336.42C1127.08,1336.49 1127.17,1336.59 1127.24,1336.73C1127.31,1336.88 1127.36,1337.06 1127.39,1337.29C1127.43,1337.53 1127.44,1337.8 1127.44,1338.1Z" style="fill:rgb(51,51,51);fill-rule:nonzero;"/>
    </g>
    <g transform="matrix(1,0,0,1,-969.442,-981.622)">
        <path d="M1149.23,1365.71C1149.23,1366 1149.22,1366.24 1149.18,1366.46C1149.15,1366.68 1149.1,1366.86 1149.02,1367C1148.94,1367.15 1148.85,1367.25 1148.74,1367.32C1148.64,1367.38 1148.52,1367.41 1148.39,1367.41L1133.47,1367.41C1133.1,1367.41 1132.76,1367.28 1132.43,1367.04C1132.1,1366.79 1131.93,1366.36 1131.93,1365.73L1131.93,1338.01C1131.93,1337.38 1132.1,1336.94 1132.43,1336.69C1132.76,1336.45 1133.1,1336.33 1133.47,1336.33L1148.22,1336.33C1148.35,1336.33 1148.47,1336.36 1148.58,1336.42C1148.68,1336.49 1148.76,1336.59 1148.82,1336.73C1148.89,1336.88 1148.94,1337.05 1148.98,1337.27C1149.02,1337.49 1149.04,1337.76 1149.04,1338.08C1149.04,1338.37 1149.02,1338.62 1148.98,1338.83C1148.94,1339.05 1148.89,1339.23 1148.82,1339.36C1148.76,1339.5 1148.68,1339.6 1148.58,1339.67C1148.47,1339.73 1148.35,1339.76 1148.22,1339.76L1136.07,1339.76L1136.07,1349.52L1146.49,1349.52C1146.62,1349.52 1146.74,1349.55 1146.85,1349.62C1146.95,1349.69 1147.04,1349.8 1147.11,1349.92C1147.18,1350.05 1147.23,1350.23 1147.26,1350.45C1147.29,1350.68 1147.31,1350.94 1147.31,1351.25C1147.31,1351.53 1147.29,1351.78 1147.26,1351.99C1147.23,1352.2 1147.18,1352.37 1147.11,1352.49C1147.04,1352.62 1146.95,1352.71 1146.85,1352.77C1146.74,1352.82 1146.62,1352.85 1146.49,1352.85L1136.07,1352.85L1136.07,1363.98L1148.39,1363.98C1148.52,1363.98 1148.64,1364.01 1148.74,1364.07C1148.85,1364.14 1148.94,1364.23 1149.02,1364.37C1149.1,1364.51 1149.15,1364.68 1149.18,1364.9C1149.22,1365.11 1149.23,1365.39 1149.23,1365.71Z" style="fill:rgb(51,51,51);fill-rule:nonzero;"/>
    </g>
    <g transform="matrix(1,0,0,1,-969.442,-981.622)">
        <path d="M1178.73,1340.55C1178.73,1340.86 1178.72,1341.12 1178.69,1341.36C1178.65,1341.59 1178.6,1341.78 1178.54,1341.93C1178.48,1342.08 1178.4,1342.2 1178.3,1342.26C1178.2,1342.32 1178.1,1342.36 1177.99,1342.36C1177.8,1342.36 1177.48,1342.2 1177.03,1341.9C1176.58,1341.6 1175.98,1341.26 1175.23,1340.89C1174.47,1340.52 1173.58,1340.19 1172.53,1339.88C1171.48,1339.58 1170.23,1339.43 1168.79,1339.43C1167.07,1339.43 1165.54,1339.74 1164.17,1340.36C1162.81,1340.99 1161.66,1341.85 1160.72,1342.96C1159.77,1344.06 1159.05,1345.38 1158.55,1346.9C1158.04,1348.42 1157.78,1350.07 1157.78,1351.85C1157.78,1353.83 1158.06,1355.59 1158.62,1357.13C1159.17,1358.67 1159.93,1359.97 1160.91,1361.02C1161.88,1362.08 1163.05,1362.88 1164.41,1363.42C1165.76,1363.97 1167.24,1364.24 1168.86,1364.24C1169.82,1364.24 1170.8,1364.12 1171.78,1363.89C1172.77,1363.66 1173.68,1363.31 1174.53,1362.85L1174.53,1353.79L1167.32,1353.79C1167.05,1353.79 1166.85,1353.66 1166.71,1353.38C1166.58,1353.11 1166.5,1352.69 1166.5,1352.11C1166.5,1351.81 1166.52,1351.54 1166.55,1351.33C1166.58,1351.11 1166.64,1350.93 1166.71,1350.8C1166.79,1350.66 1166.87,1350.56 1166.96,1350.5C1167.06,1350.44 1167.18,1350.4 1167.32,1350.4L1177.2,1350.4C1177.37,1350.4 1177.55,1350.44 1177.72,1350.5C1177.9,1350.56 1178.06,1350.66 1178.2,1350.79C1178.35,1350.92 1178.46,1351.09 1178.54,1351.32C1178.62,1351.54 1178.66,1351.8 1178.66,1352.09L1178.66,1363.93C1178.66,1364.35 1178.59,1364.71 1178.44,1365.01C1178.3,1365.31 1178,1365.58 1177.53,1365.81C1177.07,1366.04 1176.47,1366.3 1175.73,1366.57C1174.99,1366.84 1174.23,1367.08 1173.45,1367.27C1172.66,1367.46 1171.87,1367.6 1171.07,1367.7C1170.27,1367.8 1169.48,1367.84 1168.69,1367.84C1166.29,1367.84 1164.14,1367.47 1162.25,1366.72C1160.36,1365.98 1158.77,1364.92 1157.46,1363.54C1156.16,1362.17 1155.16,1360.52 1154.47,1358.6C1153.78,1356.67 1153.44,1354.53 1153.44,1352.16C1153.44,1349.69 1153.81,1347.46 1154.56,1345.46C1155.3,1343.45 1156.35,1341.75 1157.7,1340.34C1159.06,1338.93 1160.68,1337.83 1162.58,1337.05C1164.48,1336.28 1166.58,1335.89 1168.88,1335.89C1170.07,1335.89 1171.18,1336 1172.22,1336.21C1173.26,1336.41 1174.19,1336.65 1175,1336.93C1175.81,1337.21 1176.49,1337.52 1177.04,1337.85C1177.6,1338.18 1177.97,1338.45 1178.18,1338.66C1178.39,1338.87 1178.53,1339.11 1178.61,1339.38C1178.69,1339.65 1178.73,1340.04 1178.73,1340.55Z" style="fill:rgb(51,51,51);fill-rule:nonzero;"/>
    </g>
    <g transform="matrix(1,0,0,1,-969.442,-981.622)">
        <path d="M1195.6,1355.33L1195.6,1366.79C1195.6,1366.92 1195.57,1367.03 1195.5,1367.12C1195.44,1367.22 1195.33,1367.29 1195.17,1367.35C1195.01,1367.4 1194.8,1367.45 1194.52,1367.49C1194.25,1367.53 1193.92,1367.56 1193.55,1367.56C1193.15,1367.56 1192.82,1367.53 1192.55,1367.49C1192.29,1367.45 1192.07,1367.4 1191.91,1367.35C1191.75,1367.29 1191.63,1367.22 1191.56,1367.12C1191.5,1367.03 1191.47,1366.92 1191.47,1366.79L1191.47,1355.33L1182.67,1337.79C1182.5,1337.42 1182.39,1337.13 1182.35,1336.93C1182.31,1336.72 1182.35,1336.56 1182.47,1336.45C1182.59,1336.33 1182.81,1336.26 1183.12,1336.23C1183.43,1336.2 1183.85,1336.18 1184.38,1336.18C1184.86,1336.18 1185.25,1336.2 1185.55,1336.23C1185.84,1336.26 1186.08,1336.3 1186.25,1336.36C1186.43,1336.41 1186.56,1336.49 1186.65,1336.6C1186.74,1336.7 1186.82,1336.84 1186.9,1337L1191.2,1345.94C1191.6,1346.78 1192,1347.67 1192.4,1348.6C1192.79,1349.53 1193.2,1350.47 1193.62,1351.41L1193.67,1351.41C1194.03,1350.5 1194.41,1349.59 1194.8,1348.68C1195.19,1347.78 1195.58,1346.89 1195.98,1346.01L1200.31,1337.02C1200.35,1336.86 1200.43,1336.73 1200.51,1336.61C1200.6,1336.5 1200.72,1336.41 1200.87,1336.36C1201.03,1336.3 1201.23,1336.26 1201.51,1336.23C1201.78,1336.2 1202.12,1336.18 1202.54,1336.18C1203.12,1336.18 1203.57,1336.2 1203.9,1336.24C1204.23,1336.28 1204.45,1336.36 1204.58,1336.47C1204.71,1336.58 1204.76,1336.74 1204.72,1336.95C1204.68,1337.16 1204.57,1337.44 1204.39,1337.79L1195.6,1355.33Z" style="fill:rgb(51,51,51);fill-rule:nonzero;"/>
    </g>
    <g transform="matrix(1,0,0,1,-969.442,-981.622)">
        <rect x="972.107" y="984.287" width="268.463" height="195.553" style="fill:none;stroke:rgb(51,51,51);stroke-width:5.33px;"/>
    </g>
    <g transform="matrix(1,0,0,1,-969.442,-981.622)">
        <path d="M1106.3,1201.18L1106.3,1267.64" style="fill:none;stroke:rgb(51,51,51);stroke-width:5.33px;"/>
    </g>
    <g transform="matrix(1,0,0,1,-969.442,-981.622)">
        <path d="M1072.89,1179.84L1035.46,1275.39" style="fill:none;stroke:rgb(51,51,51);stroke-width:5.33px;"/>
    </g>
    <g transform="matrix(1,0,0,1,-969.442,-981.622)">
        <path d="M1139.79,1179.84L1177.22,1275.39" style="fill:none;stroke:rgb(51,51,51);stroke-width:5.33px;"/>
    </g>
    <g transform="matrix(1,0,0,1,-969.442,-981.622)">
        <path d="M1051.2,1235.44L1090.75,1246.63" style="fill:none;stroke:rgb(51,51,51);stroke-width:5.33px;"/>
    </g>
    <g transform="matrix(1,0,0,1,-969.442,-981.622)">
        <path d="M1161.48,1235.44L1121.93,1246.63" style="fill:none;stroke:rgb(51,51,51);stroke-width:5.33px;"/>
    </g>
    <g transform="matrix(1,0,0,1,-969.442,-981.622)">
        <path d="M1029.91,1032.29C1029.91,1038.09 1025.21,1042.79 1019.41,1042.79C1013.62,1042.79 1008.92,1038.09 1008.92,1032.29C1008.92,1026.5 1013.62,1021.8 1019.41,1021.8C1025.21,1021.8 1029.91,1026.5 1029.91,1032.29Z" style="fill:rgb(150,192,251);fill-rule:nonzero;"/>
    </g>
    <g transform="matrix(1,0,0,1,-969.442,-981.622)">
        <path d="M1143.58,1032.29C1143.58,1038.09 1138.88,1042.79 1133.08,1042.79C1127.29,1042.79 1122.59,1038.09 1122.59,1032.29C1122.59,1026.5 1127.29,1021.8 1133.08,1021.8C1138.88,1021.8 1143.58,1026.5 1143.58,1032.29Z" style="fill:rgb(251,192,85);fill-rule:nonzero;"/>
    </g>
    <g transform="matrix(1,0,0,1,-969.442,-981.622)">
        <path d="M1114.03,1123.28C1114.03,1129.08 1109.33,1133.78 1103.54,1133.78C1097.74,1133.78 1093.04,1129.08 1093.04,1123.28C1093.04,1117.49 1097.74,1112.79 1103.54,1112.79C1109.33,1112.79 1114.03,1117.49 1114.03,1123.28Z" style="fill:rgb(80,200,180);fill-rule:nonzero;"/>
    </g>
    <g transform="matrix(1,0,0,1,-969.442,-981.622)">
        <path d="M1029.91,1032.29C1029.91,1038.09 1025.21,1042.79 1019.41,1042.79C1013.62,1042.79 1008.92,1038.09 1008.92,1032.29C1008.92,1026.5 1013.62,1021.8 1019.41,1021.8C1025.21,1021.8 1029.91,1026.5 1029.91,1032.29Z" style="fill:none;stroke:rgb(51,51,51);stroke-width:5.33px;"/>
    </g>
    <g transform="matrix(1,0,0,1,-969.442,-981.622)">
        <path d="M1143.58,1032.29C1143.58,1038.09 1138.88,1042.79 1133.08,1042.79C1127.29,1042.79 1122.59,1038.09 1122.59,1032.29C1122.59,1026.5 1127.29,1021.8 1133.08,1021.8C1138.88,1021.8 1143.58,1026.5 1143.58,1032.29Z" style="fill:none;stroke:rgb(51,51,51);stroke-width:5.33px;"/>
    </g>
    <g transform="matrix(1,0,0,1,-969.442,-981.622)">
        <path d="M1114.03,1123.28C1114.03,1129.08 1109.33,1133.78 1103.54,1133.78C1097.74,1133.78 1093.04,1129.08 1093.04,1123.28C1093.04,1117.49 1097.74,1112.79 1103.54,1112.79C1109.33,1112.79 1114.03,1117.49 1114.03,1123.28Z" style="fill:none;stroke:rgb(51,51,51);stroke-width:5.33px;"/>
    </g>
    <g transform="matrix(1,0,0,1,-969.442,-981.622)">
        <path d="M1203.76,1035.74L1122.59,1102.06" style="fill:none;stroke:rgb(51,51,51);stroke-width:5.33px;"/>
    </g>
    <g transform="matrix(1,0,0,1,-969.442,-981.622)">
        <path d="M1179.67,1039.03L1203.76,1035.74" style="fill:none;stroke:rgb(51,51,51);stroke-width:5.33px;"/>
    </g>
    <g transform="matrix(1,0,0,1,-969.442,-981.622)">
        <path d="M1203.76,1035.74L1195.08,1058.45" style="fill:none;stroke:rgb(51,51,51);stroke-width:5.33px;"/>
    </g>
    <g transform="matrix(1,0,0,1,-969.442,-981.622)">
        <path d="M1186.65,1125.22L1203.76,1142.33" style="fill:none;stroke:rgb(51,51,51);stroke-width:5.33px;"/>
    </g>
    <g transform="matrix(1,0,0,1,-969.442,-981.622)">
        <path d="M1203.76,1125.22L1186.65,1142.33" style="fill:none;stroke:rgb(51,51,51);stroke-width:5.33px;"/>
    </g>
    <g transform="matrix(1,0,0,1,-969.442,-981.622)">
        <path d="M1019.08,1125.22L1036.19,1142.33" style="fill:none;stroke:rgb(51,51,51);stroke-width:5.33px;"/>
    </g>
    <g transform="matrix(1,0,0,1,-969.442,-981.622)">
        <path d="M1036.19,1125.22L1019.08,1142.33" style="fill:none;stroke:rgb(51,51,51);stroke-width:5.33px;"/>
    </g>
    <g transform="matrix(1,0,0,1,-969.442,-981.622)">
        <path d="M1045.46,1032.29L1107.04,1032.29" style="fill:none;stroke:rgb(51,51,51);stroke-width:5.33px;"/>
    </g>
    <g transform="matrix(1,0,0,1,-969.442,-981.622)">
        <path d="M1083.77,1101.9L1039.18,1053.68" style="fill:none;stroke:rgb(51,51,51);stroke-width:5.33px;"/>
    </g>
</svg>
