<?xml version="1.0" encoding="UTF-8" standalone="no"?>
<!DOCTYPE svg PUBLIC "-//W3C//DTD SVG 1.1//EN" "http://www.w3.org/Graphics/SVG/1.1/DTD/svg11.dtd">
<svg width="100%" height="100%" viewBox="0 0 331 348" version="1.1" xmlns="http://www.w3.org/2000/svg" xmlns:xlink="http://www.w3.org/1999/xlink" xml:space="preserve" xmlns:serif="http://www.serif.com/" style="fill-rule:evenodd;clip-rule:evenodd;stroke-linecap:round;stroke-linejoin:round;stroke-miterlimit:2;">
    <g transform="matrix(1,0,0,1,-2221.2,-1020)">
        <path d="M2237.07,1366.69C2237,1366.87 2236.92,1367.01 2236.8,1367.12C2236.69,1367.24 2236.53,1367.32 2236.33,1367.38C2236.13,1367.44 2235.87,1367.49 2235.56,1367.52C2235.25,1367.54 2234.86,1367.56 2234.4,1367.56C2234.05,1367.56 2233.74,1367.55 2233.47,1367.54C2233.21,1367.53 2232.98,1367.51 2232.79,1367.48C2232.6,1367.44 2232.43,1367.41 2232.29,1367.37C2232.16,1367.33 2232.05,1367.28 2231.95,1367.22C2231.85,1367.16 2231.77,1367.08 2231.72,1366.99C2231.66,1366.9 2231.61,1366.79 2231.57,1366.66L2221.4,1337.78C2221.28,1337.43 2221.2,1337.15 2221.2,1336.93C2221.19,1336.72 2221.26,1336.55 2221.4,1336.44C2221.55,1336.33 2221.78,1336.26 2222.1,1336.23C2222.42,1336.2 2222.85,1336.18 2223.4,1336.18C2223.85,1336.18 2224.2,1336.19 2224.46,1336.21C2224.73,1336.24 2224.93,1336.28 2225.08,1336.34C2225.22,1336.41 2225.33,1336.49 2225.4,1336.6C2225.47,1336.7 2225.54,1336.84 2225.61,1337L2234.52,1363.15L2234.54,1363.15L2243.22,1337.05C2243.26,1336.87 2243.32,1336.73 2243.38,1336.61C2243.45,1336.5 2243.56,1336.41 2243.72,1336.34C2243.88,1336.28 2244.11,1336.24 2244.39,1336.21C2244.68,1336.19 2245.07,1336.18 2245.55,1336.18C2246.04,1336.18 2246.44,1336.2 2246.72,1336.24C2247.01,1336.28 2247.21,1336.36 2247.31,1336.47C2247.41,1336.58 2247.45,1336.74 2247.43,1336.96C2247.41,1337.17 2247.33,1337.46 2247.21,1337.82L2237.07,1366.69Z" style="fill:rgb(51,51,51);fill-rule:nonzero;"/>
    </g>
    <g transform="matrix(1,0,0,1,-2221.2,-1020)">
        <path d="M2256.55,1366.79C2256.55,1366.92 2256.52,1367.03 2256.45,1367.12C2256.39,1367.22 2256.28,1367.29 2256.12,1367.35C2255.96,1367.4 2255.74,1367.45 2255.48,1367.49C2255.21,1367.53 2254.88,1367.56 2254.48,1367.56C2254.1,1367.56 2253.77,1367.53 2253.5,1367.49C2253.23,1367.45 2253.01,1367.4 2252.85,1367.35C2252.69,1367.29 2252.58,1367.22 2252.51,1367.12C2252.45,1367.03 2252.42,1366.92 2252.42,1366.79L2252.42,1336.95C2252.42,1336.82 2252.45,1336.71 2252.52,1336.61C2252.59,1336.52 2252.71,1336.44 2252.88,1336.38C2253.05,1336.33 2253.27,1336.28 2253.53,1336.24C2253.79,1336.2 2254.12,1336.18 2254.48,1336.18C2254.88,1336.18 2255.21,1336.2 2255.48,1336.24C2255.74,1336.28 2255.96,1336.33 2256.12,1336.38C2256.28,1336.44 2256.39,1336.52 2256.45,1336.61C2256.52,1336.71 2256.55,1336.82 2256.55,1336.95L2256.55,1366.79Z" style="fill:rgb(51,51,51);fill-rule:nonzero;"/>
    </g>
    <g transform="matrix(1,0,0,1,-2221.2,-1020)">
        <path d="M2284.37,1351.57C2284.37,1349.89 2284.16,1348.33 2283.74,1346.88C2283.33,1345.43 2282.67,1344.17 2281.78,1343.12C2280.89,1342.06 2279.77,1341.24 2278.41,1340.65C2277.05,1340.06 2275.3,1339.75 2273.15,1339.75L2268.95,1339.75L2268.95,1363.95L2273.2,1363.95C2275.18,1363.95 2276.86,1363.7 2278.22,1363.2C2279.58,1362.7 2280.72,1361.95 2281.63,1360.93C2282.54,1359.9 2283.22,1358.61 2283.68,1357.07C2284.14,1355.52 2284.37,1353.69 2284.37,1351.57ZM2288.72,1351.41C2288.72,1354.1 2288.37,1356.45 2287.68,1358.46C2287,1360.47 2285.99,1362.14 2284.67,1363.46C2283.34,1364.78 2281.73,1365.76 2279.8,1366.42C2277.88,1367.08 2275.59,1367.41 2272.93,1367.41L2266.35,1367.41C2265.98,1367.41 2265.63,1367.28 2265.3,1367.04C2264.97,1366.79 2264.81,1366.36 2264.81,1365.73L2264.81,1338.01C2264.81,1337.38 2264.97,1336.94 2265.3,1336.69C2265.63,1336.45 2265.98,1336.33 2266.35,1336.33L2273.39,1336.33C2276.08,1336.33 2278.36,1336.67 2280.21,1337.37C2282.07,1338.06 2283.62,1339.07 2284.88,1340.37C2286.14,1341.68 2287.09,1343.26 2287.74,1345.12C2288.39,1346.98 2288.72,1349.08 2288.72,1351.41Z" style="fill:rgb(51,51,51);fill-rule:nonzero;"/>
    </g>
    <g transform="matrix(1,0,0,1,-2221.2,-1020)">
        <path d="M2312.38,1365.7C2312.38,1365.99 2312.36,1366.24 2312.33,1366.46C2312.3,1366.68 2312.24,1366.85 2312.16,1367C2312.08,1367.14 2311.99,1367.25 2311.88,1367.32C2311.78,1367.38 2311.67,1367.41 2311.54,1367.41L2296.62,1367.41C2296.25,1367.41 2295.9,1367.28 2295.57,1367.04C2295.24,1366.79 2295.08,1366.36 2295.08,1365.73L2295.08,1338.01C2295.08,1337.38 2295.24,1336.94 2295.57,1336.69C2295.9,1336.45 2296.25,1336.33 2296.62,1336.33L2311.37,1336.33C2311.5,1336.33 2311.61,1336.36 2311.72,1336.42C2311.82,1336.49 2311.91,1336.58 2311.97,1336.73C2312.04,1336.87 2312.08,1337.05 2312.12,1337.27C2312.16,1337.49 2312.19,1337.75 2312.19,1338.07C2312.19,1338.36 2312.16,1338.62 2312.12,1338.83C2312.08,1339.05 2312.04,1339.23 2311.97,1339.36C2311.91,1339.5 2311.82,1339.59 2311.72,1339.66C2311.61,1339.72 2311.5,1339.75 2311.37,1339.75L2299.22,1339.75L2299.22,1349.51L2309.64,1349.51C2309.77,1349.51 2309.88,1349.55 2309.99,1349.62C2310.09,1349.69 2310.18,1349.8 2310.25,1349.92C2310.32,1350.05 2310.38,1350.23 2310.41,1350.45C2310.44,1350.68 2310.46,1350.93 2310.46,1351.24C2310.46,1351.53 2310.44,1351.78 2310.41,1351.99C2310.38,1352.2 2310.32,1352.36 2310.25,1352.49C2310.18,1352.61 2310.09,1352.71 2309.99,1352.77C2309.88,1352.82 2309.77,1352.85 2309.64,1352.85L2299.22,1352.85L2299.22,1363.97L2311.54,1363.97C2311.67,1363.97 2311.78,1364 2311.88,1364.07C2311.99,1364.13 2312.08,1364.23 2312.16,1364.37C2312.24,1364.51 2312.3,1364.68 2312.33,1364.9C2312.36,1365.11 2312.38,1365.38 2312.38,1365.7Z" style="fill:rgb(51,51,51);fill-rule:nonzero;"/>
    </g>
    <g transform="matrix(1,0,0,1,-2221.2,-1020)">
        <path d="M2340.01,1351.8C2340.01,1350.04 2339.85,1348.39 2339.54,1346.88C2339.22,1345.37 2338.7,1344.05 2337.98,1342.94C2337.25,1341.83 2336.28,1340.96 2335.07,1340.33C2333.85,1339.71 2332.34,1339.4 2330.55,1339.4C2328.76,1339.4 2327.26,1339.74 2326.04,1340.41C2324.83,1341.08 2323.84,1341.98 2323.08,1343.1C2322.32,1344.22 2321.77,1345.53 2321.45,1347.02C2321.12,1348.52 2320.96,1350.1 2320.96,1351.75C2320.96,1353.58 2321.11,1355.26 2321.41,1356.79C2321.72,1358.33 2322.23,1359.65 2322.94,1360.77C2323.66,1361.88 2324.63,1362.74 2325.84,1363.36C2327.04,1363.98 2328.56,1364.29 2330.38,1364.29C2332.19,1364.29 2333.71,1363.95 2334.95,1363.28C2336.17,1362.61 2337.17,1361.7 2337.92,1360.55C2338.67,1359.41 2339.21,1358.08 2339.53,1356.57C2339.85,1355.06 2340.01,1353.48 2340.01,1351.8ZM2344.38,1351.51C2344.38,1354.02 2344.08,1356.28 2343.49,1358.3C2342.9,1360.32 2342.01,1362.04 2340.83,1363.46C2339.66,1364.87 2338.18,1365.96 2336.4,1366.72C2334.63,1367.48 2332.55,1367.86 2330.18,1367.86C2327.84,1367.86 2325.82,1367.52 2324.11,1366.82C2322.41,1366.12 2321,1365.11 2319.88,1363.78C2318.77,1362.45 2317.95,1360.8 2317.4,1358.83C2316.86,1356.86 2316.58,1354.6 2316.58,1352.04C2316.58,1349.59 2316.88,1347.36 2317.47,1345.36C2318.07,1343.36 2318.96,1341.65 2320.14,1340.25C2321.33,1338.85 2322.81,1337.77 2324.58,1337.01C2326.36,1336.25 2328.44,1335.86 2330.81,1335.86C2333.1,1335.86 2335.09,1336.21 2336.79,1336.9C2338.49,1337.59 2339.9,1338.59 2341.02,1339.91C2342.15,1341.24 2342.99,1342.87 2343.55,1344.81C2344.1,1346.76 2344.38,1349 2344.38,1351.51Z" style="fill:rgb(51,51,51);fill-rule:nonzero;"/>
    </g>
    <g transform="matrix(1,0,0,1,-2221.2,-1020)">
        <path d="M2382.79,1363.01C2382.79,1363.26 2382.79,1363.49 2382.77,1363.68C2382.75,1363.87 2382.72,1364.05 2382.68,1364.19C2382.64,1364.34 2382.59,1364.47 2382.53,1364.58C2382.46,1364.69 2382.35,1364.82 2382.19,1364.98C2382.03,1365.14 2381.7,1365.39 2381.18,1365.71C2380.67,1366.04 2380.03,1366.36 2379.27,1366.68C2378.51,1366.99 2377.64,1367.25 2376.65,1367.47C2375.67,1367.68 2374.59,1367.8 2373.42,1367.8C2371.41,1367.8 2369.58,1367.46 2367.96,1366.79C2366.33,1366.12 2364.94,1365.12 2363.8,1363.81C2362.65,1362.5 2361.77,1360.87 2361.16,1358.94C2360.54,1357.01 2360.24,1354.79 2360.24,1352.28C2360.24,1349.7 2360.56,1347.39 2361.23,1345.38C2361.89,1343.36 2362.83,1341.65 2364.03,1340.25C2365.23,1338.85 2366.67,1337.78 2368.34,1337.05C2370.01,1336.31 2371.87,1335.94 2373.9,1335.94C2374.8,1335.94 2375.67,1336.02 2376.52,1336.19C2377.37,1336.36 2378.16,1336.57 2378.88,1336.82C2379.6,1337.08 2380.24,1337.38 2380.8,1337.72C2381.36,1338.06 2381.74,1338.33 2381.96,1338.54C2382.18,1338.76 2382.32,1338.92 2382.38,1339.03C2382.45,1339.15 2382.5,1339.28 2382.54,1339.43C2382.58,1339.59 2382.61,1339.77 2382.63,1339.98C2382.66,1340.19 2382.67,1340.43 2382.67,1340.71C2382.67,1341.04 2382.66,1341.31 2382.63,1341.53C2382.59,1341.76 2382.54,1341.95 2382.48,1342.1C2382.42,1342.25 2382.34,1342.36 2382.25,1342.44C2382.16,1342.51 2382.05,1342.54 2381.92,1342.54C2381.7,1342.54 2381.38,1342.39 2380.98,1342.08C2380.58,1341.76 2380.05,1341.42 2379.42,1341.04C2378.79,1340.67 2378.01,1340.32 2377.11,1340.01C2376.2,1339.7 2375.11,1339.55 2373.83,1339.55C2372.45,1339.55 2371.19,1339.82 2370.05,1340.37C2368.92,1340.92 2367.95,1341.74 2367.14,1342.81C2366.34,1343.89 2365.71,1345.19 2365.27,1346.74C2364.82,1348.28 2364.61,1350.05 2364.61,1352.04C2364.61,1354.01 2364.82,1355.75 2365.25,1357.26C2365.67,1358.77 2366.28,1360.04 2367.08,1361.05C2367.88,1362.07 2368.86,1362.84 2370.01,1363.36C2371.17,1363.88 2372.49,1364.15 2373.95,1364.15C2375.19,1364.15 2376.28,1363.99 2377.2,1363.68C2378.13,1363.38 2378.92,1363.04 2379.57,1362.66C2380.22,1362.29 2380.75,1361.95 2381.18,1361.65C2381.59,1361.34 2381.92,1361.18 2382.16,1361.18C2382.27,1361.18 2382.37,1361.21 2382.46,1361.26C2382.54,1361.31 2382.6,1361.4 2382.65,1361.54C2382.7,1361.67 2382.73,1361.86 2382.75,1362.1C2382.78,1362.34 2382.79,1362.64 2382.79,1363.01Z" style="fill:rgb(51,51,51);fill-rule:nonzero;"/>
    </g>
    <g transform="matrix(1,0,0,1,-2221.2,-1020)">
        <path d="M2409.51,1351.8C2409.51,1350.04 2409.35,1348.39 2409.04,1346.88C2408.72,1345.37 2408.2,1344.05 2407.48,1342.94C2406.75,1341.83 2405.78,1340.96 2404.57,1340.33C2403.35,1339.71 2401.84,1339.4 2400.05,1339.4C2398.26,1339.4 2396.76,1339.74 2395.54,1340.41C2394.33,1341.08 2393.34,1341.98 2392.58,1343.1C2391.82,1344.22 2391.27,1345.53 2390.95,1347.02C2390.62,1348.52 2390.46,1350.1 2390.46,1351.75C2390.46,1353.58 2390.61,1355.26 2390.91,1356.79C2391.22,1358.33 2391.73,1359.65 2392.44,1360.77C2393.16,1361.88 2394.13,1362.74 2395.34,1363.36C2396.54,1363.98 2398.06,1364.29 2399.88,1364.29C2401.69,1364.29 2403.21,1363.95 2404.45,1363.28C2405.67,1362.61 2406.67,1361.7 2407.42,1360.55C2408.17,1359.41 2408.71,1358.08 2409.03,1356.57C2409.35,1355.06 2409.51,1353.48 2409.51,1351.8ZM2413.88,1351.51C2413.88,1354.02 2413.58,1356.28 2412.99,1358.3C2412.4,1360.32 2411.51,1362.04 2410.33,1363.46C2409.16,1364.87 2407.68,1365.96 2405.9,1366.72C2404.13,1367.48 2402.05,1367.86 2399.68,1367.86C2397.34,1367.86 2395.32,1367.52 2393.61,1366.82C2391.91,1366.12 2390.5,1365.11 2389.38,1363.78C2388.27,1362.45 2387.45,1360.8 2386.9,1358.83C2386.36,1356.86 2386.08,1354.6 2386.08,1352.04C2386.08,1349.59 2386.38,1347.36 2386.97,1345.36C2387.57,1343.36 2388.46,1341.65 2389.64,1340.25C2390.83,1338.85 2392.31,1337.77 2394.08,1337.01C2395.86,1336.25 2397.94,1335.86 2400.31,1335.86C2402.6,1335.86 2404.59,1336.21 2406.29,1336.9C2407.99,1337.59 2409.4,1338.59 2410.52,1339.91C2411.65,1341.24 2412.49,1342.87 2413.05,1344.81C2413.6,1346.76 2413.88,1349 2413.88,1351.51Z" style="fill:rgb(51,51,51);fill-rule:nonzero;"/>
    </g>
    <g transform="matrix(1,0,0,1,-2221.2,-1020)">
        <path d="M2443.91,1365.7C2443.91,1366.02 2443.85,1366.29 2443.75,1366.52C2443.64,1366.74 2443.5,1366.93 2443.33,1367.08C2443.15,1367.22 2442.96,1367.32 2442.74,1367.38C2442.52,1367.44 2442.31,1367.48 2442.09,1367.48L2440.73,1367.48C2440.3,1367.48 2439.92,1367.44 2439.59,1367.35C2439.27,1367.26 2438.97,1367.1 2438.68,1366.87C2438.38,1366.64 2438.1,1366.32 2437.81,1365.92C2437.52,1365.52 2437.21,1365.01 2436.89,1364.39L2427.41,1346.7C2426.91,1345.79 2426.4,1344.83 2425.9,1343.83C2425.4,1342.83 2424.93,1341.85 2424.5,1340.91L2424.45,1340.91C2424.48,1342.06 2424.51,1343.25 2424.52,1344.45C2424.54,1345.65 2424.55,1346.83 2424.55,1348.02L2424.55,1366.79C2424.55,1366.9 2424.51,1367 2424.44,1367.11C2424.38,1367.21 2424.26,1367.29 2424.1,1367.35C2423.94,1367.4 2423.73,1367.45 2423.46,1367.49C2423.21,1367.53 2422.87,1367.56 2422.46,1367.56C2422.06,1367.56 2421.73,1367.53 2421.46,1367.49C2421.2,1367.45 2421,1367.4 2420.85,1367.35C2420.69,1367.29 2420.58,1367.21 2420.51,1367.11C2420.45,1367 2420.41,1366.9 2420.41,1366.79L2420.41,1338.1C2420.41,1337.46 2420.59,1337 2420.96,1336.73C2421.32,1336.45 2421.72,1336.33 2422.15,1336.33L2424.18,1336.33C2424.66,1336.33 2425.06,1336.36 2425.39,1336.44C2425.71,1336.52 2426,1336.65 2426.25,1336.84C2426.51,1337.02 2426.76,1337.28 2427,1337.61C2427.24,1337.94 2427.49,1338.34 2427.75,1338.84L2435.04,1352.49C2435.49,1353.32 2435.93,1354.14 2436.34,1354.93C2436.76,1355.72 2437.16,1356.51 2437.55,1357.27C2437.94,1358.04 2438.32,1358.8 2438.7,1359.54C2439.07,1360.29 2439.45,1361.04 2439.83,1361.79L2439.85,1361.79C2439.82,1360.53 2439.79,1359.21 2439.79,1357.83C2439.78,1356.47 2439.78,1355.14 2439.78,1353.88L2439.78,1337.01C2439.78,1336.9 2439.81,1336.81 2439.87,1336.71C2439.95,1336.61 2440.06,1336.53 2440.22,1336.45C2440.38,1336.38 2440.59,1336.33 2440.85,1336.29C2441.11,1336.26 2441.46,1336.25 2441.88,1336.25C2442.25,1336.25 2442.57,1336.26 2442.84,1336.29C2443.12,1336.33 2443.33,1336.38 2443.48,1336.45C2443.63,1336.53 2443.74,1336.61 2443.81,1336.71C2443.88,1336.81 2443.91,1336.9 2443.91,1337.01L2443.91,1365.7Z" style="fill:rgb(51,51,51);fill-rule:nonzero;"/>
    </g>
    <g transform="matrix(1,0,0,1,-2221.2,-1020)">
        <path d="M2471.66,1338.1C2471.66,1338.41 2471.64,1338.67 2471.61,1338.89C2471.58,1339.11 2471.52,1339.3 2471.45,1339.43C2471.38,1339.57 2471.29,1339.67 2471.18,1339.74C2471.08,1339.8 2470.97,1339.83 2470.84,1339.83L2462.09,1339.83L2462.09,1366.79C2462.09,1366.92 2462.06,1367.03 2462,1367.12C2461.93,1367.22 2461.82,1367.29 2461.66,1367.35C2461.5,1367.4 2461.29,1367.45 2461.02,1367.49C2460.76,1367.53 2460.43,1367.56 2460.03,1367.56C2459.64,1367.56 2459.32,1367.53 2459.04,1367.49C2458.77,1367.45 2458.56,1367.4 2458.4,1367.35C2458.24,1367.29 2458.12,1367.22 2458.06,1367.12C2458,1367.03 2457.96,1366.92 2457.96,1366.79L2457.96,1339.83L2449.22,1339.83C2449.09,1339.83 2448.97,1339.8 2448.87,1339.74C2448.76,1339.67 2448.68,1339.57 2448.62,1339.43C2448.55,1339.3 2448.5,1339.11 2448.46,1338.89C2448.42,1338.67 2448.4,1338.41 2448.4,1338.1C2448.4,1337.8 2448.42,1337.53 2448.46,1337.29C2448.5,1337.06 2448.55,1336.87 2448.62,1336.73C2448.68,1336.58 2448.76,1336.49 2448.87,1336.42C2448.97,1336.36 2449.09,1336.33 2449.22,1336.33L2470.84,1336.33C2470.97,1336.33 2471.08,1336.36 2471.18,1336.42C2471.29,1336.49 2471.38,1336.58 2471.45,1336.73C2471.52,1336.87 2471.58,1337.06 2471.61,1337.29C2471.64,1337.53 2471.66,1337.8 2471.66,1338.1Z" style="fill:rgb(51,51,51);fill-rule:nonzero;"/>
    </g>
    <g transform="matrix(1,0,0,1,-2221.2,-1020)">
        <path d="M2493.45,1365.7C2493.45,1365.99 2493.43,1366.24 2493.4,1366.46C2493.37,1366.68 2493.31,1366.85 2493.23,1367C2493.15,1367.14 2493.05,1367.25 2492.95,1367.32C2492.84,1367.38 2492.73,1367.41 2492.6,1367.41L2477.69,1367.41C2477.32,1367.41 2476.97,1367.28 2476.64,1367.04C2476.31,1366.79 2476.15,1366.36 2476.15,1365.73L2476.15,1338.01C2476.15,1337.38 2476.31,1336.94 2476.64,1336.69C2476.97,1336.45 2477.32,1336.33 2477.69,1336.33L2492.44,1336.33C2492.56,1336.33 2492.68,1336.36 2492.78,1336.42C2492.88,1336.49 2492.97,1336.58 2493.04,1336.73C2493.1,1336.87 2493.15,1337.05 2493.19,1337.27C2493.23,1337.49 2493.25,1337.75 2493.25,1338.07C2493.25,1338.36 2493.23,1338.62 2493.19,1338.83C2493.15,1339.05 2493.1,1339.23 2493.04,1339.36C2492.97,1339.5 2492.88,1339.59 2492.78,1339.66C2492.68,1339.72 2492.56,1339.75 2492.44,1339.75L2480.28,1339.75L2480.28,1349.51L2490.71,1349.51C2490.83,1349.51 2490.95,1349.55 2491.05,1349.62C2491.16,1349.69 2491.24,1349.8 2491.32,1349.92C2491.39,1350.05 2491.44,1350.23 2491.48,1350.45C2491.51,1350.68 2491.52,1350.93 2491.52,1351.24C2491.52,1351.53 2491.51,1351.78 2491.48,1351.99C2491.44,1352.2 2491.39,1352.36 2491.32,1352.49C2491.24,1352.61 2491.16,1352.71 2491.05,1352.77C2490.95,1352.82 2490.83,1352.85 2490.71,1352.85L2480.28,1352.85L2480.28,1363.97L2492.6,1363.97C2492.73,1363.97 2492.84,1364 2492.95,1364.07C2493.05,1364.13 2493.15,1364.23 2493.23,1364.37C2493.31,1364.51 2493.37,1364.68 2493.4,1364.9C2493.43,1365.11 2493.45,1365.38 2493.45,1365.7Z" style="fill:rgb(51,51,51);fill-rule:nonzero;"/>
    </g>
    <g transform="matrix(1,0,0,1,-2221.2,-1020)">
        <path d="M2523.67,1365.7C2523.67,1366.02 2523.61,1366.29 2523.51,1366.52C2523.4,1366.74 2523.26,1366.93 2523.08,1367.08C2522.91,1367.22 2522.71,1367.32 2522.5,1367.38C2522.28,1367.44 2522.07,1367.48 2521.85,1367.48L2520.49,1367.48C2520.06,1367.48 2519.68,1367.44 2519.35,1367.35C2519.03,1367.26 2518.73,1367.1 2518.44,1366.87C2518.14,1366.64 2517.85,1366.32 2517.57,1365.92C2517.28,1365.52 2516.96,1365.01 2516.64,1364.39L2507.16,1346.7C2506.67,1345.79 2506.16,1344.83 2505.66,1343.83C2505.15,1342.83 2504.69,1341.85 2504.26,1340.91L2504.21,1340.91C2504.24,1342.06 2504.26,1343.25 2504.28,1344.45C2504.3,1345.65 2504.3,1346.83 2504.3,1348.02L2504.3,1366.79C2504.3,1366.9 2504.27,1367 2504.2,1367.11C2504.14,1367.21 2504.02,1367.29 2503.86,1367.35C2503.7,1367.4 2503.49,1367.45 2503.22,1367.49C2502.97,1367.53 2502.63,1367.56 2502.22,1367.56C2501.81,1367.56 2501.49,1367.53 2501.22,1367.49C2500.96,1367.45 2500.76,1367.4 2500.6,1367.35C2500.45,1367.29 2500.34,1367.21 2500.27,1367.11C2500.2,1367 2500.17,1366.9 2500.17,1366.79L2500.17,1338.1C2500.17,1337.46 2500.35,1337 2500.72,1336.73C2501.08,1336.45 2501.48,1336.33 2501.91,1336.33L2503.94,1336.33C2504.42,1336.33 2504.82,1336.36 2505.15,1336.44C2505.47,1336.52 2505.75,1336.65 2506.01,1336.84C2506.27,1337.02 2506.51,1337.28 2506.75,1337.61C2507,1337.94 2507.24,1338.34 2507.51,1338.84L2514.79,1352.49C2515.25,1353.32 2515.68,1354.14 2516.1,1354.93C2516.52,1355.72 2516.92,1356.51 2517.31,1357.27C2517.69,1358.04 2518.08,1358.8 2518.45,1359.54C2518.83,1360.29 2519.21,1361.04 2519.58,1361.79L2519.61,1361.79C2519.58,1360.53 2519.55,1359.21 2519.54,1357.83L2519.54,1337.01C2519.54,1336.9 2519.57,1336.81 2519.63,1336.71C2519.7,1336.61 2519.82,1336.53 2519.98,1336.45C2520.14,1336.38 2520.35,1336.33 2520.61,1336.29C2520.87,1336.26 2521.22,1336.25 2521.63,1336.25C2522.01,1336.25 2522.33,1336.26 2522.6,1336.29C2522.88,1336.33 2523.08,1336.38 2523.24,1336.45C2523.39,1336.53 2523.5,1336.61 2523.56,1336.71C2523.64,1336.81 2523.67,1336.9 2523.67,1337.01L2523.67,1365.7Z" style="fill:rgb(51,51,51);fill-rule:nonzero;"/>
    </g>
    <g transform="matrix(1,0,0,1,-2221.2,-1020)">
        <path d="M2551.41,1338.1C2551.41,1338.41 2551.4,1338.67 2551.37,1338.89C2551.33,1339.11 2551.28,1339.3 2551.21,1339.43C2551.13,1339.57 2551.05,1339.67 2550.94,1339.74C2550.84,1339.8 2550.73,1339.83 2550.6,1339.83L2541.85,1339.83L2541.85,1366.79C2541.85,1366.92 2541.82,1367.03 2541.76,1367.12C2541.69,1367.22 2541.58,1367.29 2541.42,1367.35C2541.26,1367.4 2541.04,1367.45 2540.78,1367.49C2540.52,1367.53 2540.19,1367.56 2539.79,1367.56C2539.4,1367.56 2539.07,1367.53 2538.8,1367.49C2538.53,1367.45 2538.31,1367.4 2538.15,1367.35C2537.99,1367.29 2537.88,1367.22 2537.82,1367.12C2537.75,1367.03 2537.72,1366.92 2537.72,1366.79L2537.72,1339.83L2528.98,1339.83C2528.85,1339.83 2528.73,1339.8 2528.62,1339.74C2528.52,1339.67 2528.44,1339.57 2528.38,1339.43C2528.31,1339.3 2528.26,1339.11 2528.22,1338.89C2528.18,1338.67 2528.16,1338.41 2528.16,1338.1C2528.16,1337.8 2528.18,1337.53 2528.22,1337.29C2528.26,1337.06 2528.31,1336.87 2528.38,1336.73C2528.44,1336.58 2528.52,1336.49 2528.62,1336.42C2528.73,1336.36 2528.85,1336.33 2528.98,1336.33L2550.6,1336.33C2550.73,1336.33 2550.84,1336.36 2550.94,1336.42C2551.05,1336.49 2551.13,1336.58 2551.21,1336.73C2551.28,1336.87 2551.33,1337.06 2551.37,1337.29C2551.4,1337.53 2551.41,1337.8 2551.41,1338.1Z" style="fill:rgb(51,51,51);fill-rule:nonzero;"/>
    </g>
    <g transform="matrix(1,0,0,1,-2221.2,-1020)">
        <path d="M2515.46,1237L2257.15,1237C2248.1,1237 2240.75,1229.66 2240.75,1220.6L2240.75,1095.86C2240.75,1086.8 2248.1,1079.46 2257.15,1079.46L2515.46,1079.46C2524.51,1079.46 2531.86,1086.8 2531.86,1095.86L2531.86,1220.6C2531.86,1229.66 2524.51,1237 2515.46,1237Z" style="fill:none;stroke:rgb(51,51,51);stroke-width:5.33px;"/>
    </g>
    <g transform="matrix(1,0,0,1,-2221.2,-1020)">
        <rect x="2275.52" y="1079.46" width="221.57" height="157.54" style="fill:none;stroke:rgb(51,51,51);stroke-width:5.33px;"/>
    </g>
    <g transform="matrix(1,0,0,1,-2221.2,-1020)">
        <path d="M2452.95,1158.23L2319.66,1158.23C2310.6,1158.23 2303.26,1150.89 2303.26,1141.83L2303.26,1039.07C2303.26,1030.01 2310.6,1022.67 2319.66,1022.67L2452.95,1022.67C2462.01,1022.67 2469.35,1030.01 2469.35,1039.07L2469.35,1141.83C2469.35,1150.89 2462.01,1158.23 2452.95,1158.23Z" style="fill:rgb(221,234,251);fill-rule:nonzero;"/>
    </g>
    <g transform="matrix(1,0,0,1,-2221.2,-1020)">
        <path d="M2405.96,1090.45L2360.38,1064.13L2360.38,1116.76L2405.96,1090.45Z" style="fill:rgb(251,192,85);fill-rule:nonzero;"/>
    </g>
    <g transform="matrix(1,0,0,1,-2221.2,-1020)">
        <path d="M2258.77,1148.04L2258.77,1168.42" style="fill:none;stroke:rgb(51,51,51);stroke-width:5.33px;"/>
    </g>
    <g transform="matrix(1,0,0,1,-2221.2,-1020)">
        <path d="M2514.71,1148.04L2514.71,1168.42" style="fill:none;stroke:rgb(51,51,51);stroke-width:5.33px;"/>
    </g>
    <g transform="matrix(1,0,0,1,-2221.2,-1020)">
        <path d="M2452.95,1158.23L2319.66,1158.23C2310.6,1158.23 2303.26,1150.89 2303.26,1141.83L2303.26,1039.07C2303.26,1030.01 2310.6,1022.67 2319.66,1022.67L2452.95,1022.67C2462.01,1022.67 2469.35,1030.01 2469.35,1039.07L2469.35,1141.83C2469.35,1150.89 2462.01,1158.23 2452.95,1158.23Z" style="fill:none;stroke:rgb(51,51,51);stroke-width:5.33px;"/>
    </g>
    <g transform="matrix(1,0,0,1,-2221.2,-1020)">
        <path d="M2405.96,1090.45L2360.38,1064.13L2360.38,1116.76L2405.96,1090.45Z" style="fill:none;stroke:rgb(51,51,51);stroke-width:5.33px;"/>
    </g>
    <g transform="matrix(1,0,0,1,-2221.2,-1020)">
        <path d="M2303.26,1199.05L2469.35,1199.05" style="fill:none;stroke:rgb(51,51,51);stroke-width:5.33px;"/>
    </g>
    <g transform="matrix(1,0,0,1,-2221.2,-1020)">
        <path d="M2351.69,1199.05C2351.69,1205.28 2346.64,1210.32 2340.42,1210.32C2334.2,1210.32 2329.15,1205.28 2329.15,1199.05C2329.15,1192.83 2334.2,1187.79 2340.42,1187.79C2346.64,1187.79 2351.69,1192.83 2351.69,1199.05Z" style="fill:rgb(150,192,251);fill-rule:nonzero;"/>
    </g>
    <g transform="matrix(1,0,0,1,-2221.2,-1020)">
        <path d="M2351.69,1199.05C2351.69,1205.28 2346.64,1210.32 2340.42,1210.32C2334.2,1210.32 2329.15,1205.28 2329.15,1199.05C2329.15,1192.83 2334.2,1187.79 2340.42,1187.79C2346.64,1187.79 2351.69,1192.83 2351.69,1199.05Z" style="fill:none;stroke:rgb(51,51,51);stroke-width:5.33px;"/>
    </g>
</svg>
