<?xml version="1.0" encoding="UTF-8" standalone="no"?>
<!DOCTYPE svg PUBLIC "-//W3C//DTD SVG 1.1//EN" "http://www.w3.org/Graphics/SVG/1.1/DTD/svg11.dtd">
<svg width="100%" height="100%" viewBox="0 0 2560 1610" version="1.1" xmlns="http://www.w3.org/2000/svg" xmlns:xlink="http://www.w3.org/1999/xlink" xml:space="preserve" xmlns:serif="http://www.serif.com/" style="fill-rule:evenodd;clip-rule:evenodd;stroke-linejoin:round;stroke-miterlimit:2;">
    <g transform="matrix(1,0,0,1,-22,-1616.6)">
        <g id="Brain-Art" serif:id="Brain Art" transform="matrix(0.968963,0,0,1.0719,55.9519,1655.26)">
            <rect x="-35.039" y="-36.064" width="2642" height="1502" style="fill:none;"/>
            <g transform="matrix(1,0,0,1.00385,-520.144,-9.45497)">
                <g transform="matrix(14.0745,0,0,12.5555,-12613.6,-1343.29)">
                    <path d="M970.744,222.42L989.807,211.414L989.807,189.402L970.744,178.397L951.68,189.402L951.68,211.414L970.744,222.42Z" style="fill:rgb(65,99,146);"/>
                </g>
                <g transform="matrix(14.0745,0,0,12.5555,-12613.6,-1343.29)">
                    <path d="M970.744,106.506L951.68,117.512L951.68,139.523L970.744,150.529L989.807,139.523L989.807,117.512L970.744,106.506Z" style="fill:rgb(65,99,146);"/>
                </g>
                <g transform="matrix(14.0745,0,0,12.5555,-12613.6,-1343.29)">
                    <path d="M949.99,142.451L930.926,153.457L930.926,175.468L949.99,186.474L969.053,175.468L969.053,153.457L949.99,142.451Z" style="fill:rgb(65,99,146);"/>
                </g>
                <g transform="matrix(14.0745,0,0,12.5555,-12613.6,-1343.29)">
                    <path d="M936.795,146.165L948.299,139.523L948.299,126.238L936.795,132.881L936.795,146.165Z" style="fill:rgb(65,99,146);"/>
                </g>
                <g transform="matrix(14.0745,0,0,12.5555,-12613.6,-1343.29)">
                    <path d="M936.795,182.76L936.795,196.045L948.299,202.687L948.299,189.402L936.795,182.76Z" style="fill:rgb(65,99,146);"/>
                </g>
                <g transform="matrix(14.0745,0,0,12.5555,-12613.6,-1343.29)">
                    <path d="M972.434,175.468L989.807,185.498L989.807,143.427L972.434,153.457L972.434,175.468Z" style="fill:rgb(65,99,146);"/>
                </g>
            </g>
            <g transform="matrix(1,0,0,1,0.570267,-3.88077)">
                <g transform="matrix(14.0747,0,0,12.6038,-12306.1,-1354.03)">
                    <clipPath id="_clip1">
                        <rect x="1000.42" y="178.397" width="38.12" height="44.023"/>
                    </clipPath>
                    <g clip-path="url(#_clip1)">
                        <path d="M1019.48,222.42L1000.42,211.414L1000.42,189.402L1019.48,178.397L1038.54,189.402L1038.54,211.414L1019.48,222.42Z" style="fill:rgb(69,142,99);"/>
                    </g>
                </g>
                <g transform="matrix(14.0747,0,0,12.6038,-12306.1,-1354.03)">
                    <clipPath id="_clip2">
                        <rect x="1000.42" y="106.506" width="38.12" height="44.023"/>
                    </clipPath>
                    <g clip-path="url(#_clip2)">
                        <path d="M1019.48,106.506L1038.54,117.512L1038.54,139.523L1019.48,150.529L1000.42,139.523L1000.42,117.512L1019.48,106.506Z" style="fill:rgb(69,142,99);"/>
                    </g>
                </g>
                <g transform="matrix(14.0747,0,0,12.6038,-12306.1,-1354.03)">
                    <clipPath id="_clip3">
                        <rect x="1021.17" y="142.451" width="38.13" height="44.023"/>
                    </clipPath>
                    <g clip-path="url(#_clip3)">
                        <path d="M1040.23,142.451L1059.3,153.457L1059.3,175.468L1040.23,186.474L1021.17,175.468L1021.17,153.457L1040.23,142.451Z" style="fill:rgb(69,142,99);"/>
                    </g>
                </g>
                <g transform="matrix(14.0747,0,0,12.6038,-12306.1,-1354.03)">
                    <clipPath id="_clip4">
                        <rect x="1041.93" y="126.238" width="11.5" height="19.927"/>
                    </clipPath>
                    <g clip-path="url(#_clip4)">
                        <path d="M1053.43,146.165L1041.93,139.523L1041.93,126.238L1053.43,132.881L1053.43,146.165Z" style="fill:rgb(69,142,99);"/>
                    </g>
                </g>
                <g transform="matrix(14.0747,0,0,12.6038,-12306.1,-1354.03)">
                    <clipPath id="_clip5">
                        <rect x="1041.93" y="182.76" width="11.5" height="19.927"/>
                    </clipPath>
                    <g clip-path="url(#_clip5)">
                        <path d="M1053.43,182.76L1053.43,196.045L1041.93,202.687L1041.93,189.402L1053.43,182.76Z" style="fill:rgb(69,142,99);"/>
                    </g>
                </g>
                <g transform="matrix(14.0747,0,0,12.6038,-12306.1,-1354.03)">
                    <clipPath id="_clip6">
                        <rect x="1000.42" y="143.427" width="17.37" height="42.071"/>
                    </clipPath>
                    <g clip-path="url(#_clip6)">
                        <path d="M1017.79,175.468L1000.42,185.498L1000.42,143.427L1017.79,153.457L1017.79,175.468Z" style="fill:rgb(69,142,99);"/>
                    </g>
                </g>
            </g>
        </g>
    </g>
</svg>
